<mxfile host="app.diagrams.net" modified="2024-01-16T03:34:19.149Z" agent="Mozilla/5.0 (Windows NT 10.0; Win64; x64) AppleWebKit/537.36 (KHTML, like Gecko) Chrome/120.0.0.0 Safari/537.36" etag="IjOguIuP6HEE_WMtOs5s" version="22.1.18" type="github">
  <diagram name="第 1 页" id="8IYmLdTwDIqv6iiUNqnJ">
    <mxGraphModel dx="2048" dy="1799" grid="1" gridSize="10" guides="1" tooltips="1" connect="1" arrows="0" fold="1" page="1" pageScale="1" pageWidth="827" pageHeight="1169" math="0" shadow="0">
      <root>
        <mxCell id="0" />
        <mxCell id="1" parent="0" />
        <mxCell id="ZCZy4DsMgrWmN7m3GTes-5" value="" style="group;align=left;" vertex="1" connectable="0" parent="1">
          <mxGeometry x="530" y="260" width="560" height="230" as="geometry" />
        </mxCell>
        <mxCell id="ZCZy4DsMgrWmN7m3GTes-6" value="" style="group" vertex="1" connectable="0" parent="ZCZy4DsMgrWmN7m3GTes-5">
          <mxGeometry width="560" height="229.99999999999997" as="geometry" />
        </mxCell>
        <mxCell id="ZCZy4DsMgrWmN7m3GTes-7" value="&lt;b&gt;下游客户端-立即还款-账期回款-列表&lt;br&gt;&lt;/b&gt;" style="text;html=1;strokeColor=#d79b00;fillColor=#ffe6cc;align=left;verticalAlign=middle;whiteSpace=wrap;rounded=0;" vertex="1" parent="ZCZy4DsMgrWmN7m3GTes-6">
          <mxGeometry width="200" height="69" as="geometry" />
        </mxCell>
        <mxCell id="ZCZy4DsMgrWmN7m3GTes-8" value="①.流水表和明细表的增删改查；&lt;br&gt;②.流水明细表的校验&lt;br&gt;&lt;span style=&quot;white-space: pre;&quot;&gt;&#x9;&lt;/span&gt;- 单项金额不能超10；&lt;br&gt;&lt;span style=&quot;white-space: pre;&quot;&gt;&#x9;&lt;/span&gt;- 总金额不够扣减提醒(不限制支付)。" style="rounded=0;whiteSpace=wrap;html=1;align=left;" vertex="1" parent="ZCZy4DsMgrWmN7m3GTes-6">
          <mxGeometry y="46" width="560" height="184" as="geometry" />
        </mxCell>
        <mxCell id="ZCZy4DsMgrWmN7m3GTes-10" value="" style="shape=image;verticalLabelPosition=bottom;labelBackgroundColor=default;verticalAlign=top;aspect=fixed;imageAspect=0;image=data:image/png,iVBORw0KGgoAAAANSUhEUgAABOYAAAQsCAYAAAA1j5P4AAAgAElEQVR4Aey96bdVRbruef6q80/UrTHqQ4066a1R45an9HK8qZkp9iZ2iCACKaIipiKpiCKiIoqkAjaoiCgqIL0gSN/3YINGjWdmPivfHXvOudfazer278MeMdec0b7xi1g7nvVGzH87d/FS4g8bwAAMwAAMwAAMwAAMwAAMwAAMwAAMwAAMwEB7Gfg3DN5eg2Nv7A0DMAADMAADMAADMAADMAADMAADMAADMCAGEObwGMRjEgZgAAZgAAZgAAZgAAZgAAZgAAZgAAZgoAMMIMx1wOio4qjiMAADMAADMAADMAADMAADMAADMAADMAADCHMIcyjiMAADMAADMAADMAADMAADMAADMAADMAADHWDg385dupz4wwYwAAMwAAMwAAMwAAMwAAMwAAMwAAMwAAMw0F4G/u38pcuJP2wAAzAAAzAAAzAAAzAAAzAAAzAAAzAAAzAAA+1lAGEOYRJhFgZgAAZgAAZgAAZgAAZgAAZgAAZgAAZgoAMMIMx1wOioz+1Vn7E39oYBGIABGIABGIABGIABGIABGIABGOhGBhDmEOZQxGEABmAABmAABmAABmAABmAABmAABmAABjrAAMJcB4zejQotdeKXAxiAARiAARiAARiAARiAARiAARiAARhoLwMIcwhzKOIwAAMwAAMwAAMwAAMwAAMwAAMwAAMwAAMdYABhrgNGR31ur/qMvbE3DMAADMAADMAADMAADMAADMAADMBANzKAMIcwhyIOAzAAAzAAAzAAAzAAAzAAAzAAAzAAAzDQAQYQ5jpg9G5UaKkTvxzAAAzAAAzAAAzAAAzAAAzAAAzAAAzAQHsZQJhDmEMRhwEYgAEYgAEYgAEYgAEYgAEYgAEYgAEY6AADCHMdMDrqc3vVZ+yNvWEABmAABmAABmAABmAABmAABmAABrqRAYQ5hDkUcRiAARiAARiAARiAARiAARiAARiAARiAgQ4wgDDXAaN3o0JLnfjlAAZgAAZgAAZgAAZgAAZgAAZgAAZgAAbaywDCHMIcijgMwAAMwAAMwAAMwAAMwAAMwAAMwAAMwEAHGECY64DRUZ/bqz5jb+wNAzAAAzAAAzAAAzAAAzAAAzAAAzDQjQwgzCHMoYjDAAzAAAzAAAzAAAzAAAzAAAzAAAzAAAx0gAGEuQ4YvRsVWurELwcwAAMwAAMwAAMwAAMwAAMwAAMwAAMw0F4GEOYQ5lDEYQAGYAAGYAAGYAAGYAAGYAAGYAAGYAAGOsBATwhzp85eSEdOnE0Hj57mDxvAAAzAAAzAAAzAAAzAAAzAAAzAAAzAQI8wcPjYmXT81Ll09sIlhL8S4a+rhTkJcgeOnE2HT/ycfjj2W9p7OKU9h/jDBjAAAzAAAzAAAzAAAzAAAzAAAzAAAzDQCwzsO/JbOnTi13To2KXC6YqtsgO3ynatMCc19fDxK+n7Iwy0Xhho1BFOYQAGYAAGYAAGYAAGYAAGYAAGYAAG6hiQQPfD4dPp7EW85yxQdqUwd/L0+XT4xI94x+EdCAMwAAMwAAMwAAMwAAMwAAMwAAMwAAN9xMCB478V25AtTI33sOuEuXMXL6eDR88z6Ppo0NWp5Tzj1xQYgAEYgAEYgAEYgAEYgAEYgAEYGF8MHD5xNR07dZYz5y5dTl0nzGkL66ETVxHmEOZgAAZgAAZgAAZgAAZgAAZgAAZgAAZgoE8ZOHjsHMJcNwpzevMqL3kYX0o5v4zQ3zAAAzAAAzAAAzAAAzAAAzAAAzAwvhg4evKndPLs+XEvznWdx9yhI2dRw/tUDWeSHV+TLP1Nf8MADMAADMAADMAADMAADMAADFQxcOz01aRdk5wxd2nga1o7bZDDx88hzCHMwQAMwAAMwAAMwAAMwAAMwAAMwAAMwEAfM3Ds9K/p6EmEua7zmEOYQ02vUtO5DxswAAMwAAMwAAMwAAMwAAMwAAMw0B8MIMz9w1EOYa6P1Wcmq/6YrOhH+hEGYAAGYAAGYAAGYAAGYAAGYKDfGECYQ5jDJRZREgZgAAZgAAZgAAZgAAZgAAZgAAZgAAY6wADCHMIcA68DA6/fFH7aw69WMAADMAADMPAvBnbt/yVt3nVh2H879v006P+zuc++nv73/+OatGTZJwOeqaxHn1iUbrtrWnr/090DnrlPtn//Y1r06vtpy64Lpc9Xvr8l3ffgnHTzbQ+mz746XBrHeVWFy1Z+WdTh8XlL0o59Pw8rD7V72sxni3aqvVVlcf9frGELbAEDMAADvc8AwhzCHP/0IMzBAAzAAAyMKQMSKCQaSFT4r9/fOeyFP/949v4/nv3Qh6s/3lmwLJ7jXxTMquLE+HXXymvDpmPp3smPFWNH4+f/mzCxKO+Gm+5q3JMItnHrqXT73Q+n//yfN6ePN+wfNJZ3H/g1PfP8W0Va5bPuq0NJAlgUDld9tD39v9f9sYjz9II3BzxTvDKhMO9L1VltkrA2VPw1n+xOf12wfNDfU/NfT3+ceH+Rzx1/nj7oudMovcqPQl60J/MMc0XOJ59hAgZgoJsZQJhDmBv0D1w3A0vdmFBhAAZgoPsYGEp4G+o5fdp9fTpe+yQXeiSw5baoEt1GW5iT55oEpig45dcSwSSq/d//44Z03X/dmp7869IBYtYLi1elbXuvpE+/PNAQvH7/x0mFh12eV93n2LbcHv5cJ8yt/XxfITTmcevKrHvm+uT95TQIc8wpZo0QFmAABnqBAYQ5hLlB/3D2ArjUkQkWBmAABrqHgaGEt6Ge05fd05fjvS9yoWcoYc4CUW43i3etCERxnJTlW7WVdeErqyvFO3nIKV/V78stJ9Kdk2YUW2FfeePjyjQWt2Lo+kjkU375n+ymOEpz650Ppa+3nWn8f/neR9sLbz/ZYs0nuxp1effDrSn/e2f1pnT3fbOKfKbOeGbQc8dXW3Kb67Nt1Irdy/LhHnMSDMAADMBAOxlAmEOYK/3Hpp0QUhaTHgzAAAz0NgNRUChbEA/1nP7v7f7vp/4bK2FO+eZiVvzs597yLZFL57Rpq6ru6S/fyqptrtq6+uDD8woh65FHFzS85XQtkWzy1Llp254rjf/1du7/OX138LfG5292nE133zuziKvwq62nimebdp5L2la6buPBRlz1s4WvKNrpWvW1MKfPb6zYUKSTEKc5Qff+x3/elN5+7+tG+crbQpvDZoS5vE6RP9evbB6K8bhmzoEBGIABGOgmBhDmEOYG/MPVTXBSFyZLGIABGOh+BuwZlC/U9dmL41yY+2j93qQtdjf+6Z5iwX7LHQ+llWu2NBbsI+l3CQ9vr/om3TN5dvqP/359kb8EDYkMX207PeA7LwoJWtB/sfl4mvnY80U6fVY9vNBXe+SZFOutfBcsWjngPK28rZ988UN69c1PG22Vx5LOx5I4ovJmzVlYCBYSLR6f90rl4fzN2iRuf5Tnkuw6Zfq8ok3/5++uLeyibYUxP9Vn+l+eS3+69YGkOGqrQvWL2qsXByi+zip74uklxXPFmf/CigF9Jvvq5QF6pr7dsPl4IUZZbBIPo2EP1Ud9p3PVXF+V97eX3k1bv7vUaNtQfaE0EpAsVEXbqQ35n73nIvOqR7Slrx3HYyCyluerz3oe66vPuUiYp1PeS5evK86Wy73UdF/xtbVV7ZPXml7uoPPlXEcJdg/Pmt/oLwteEgQ1DpRe573Fl0HE8RDro/rGNk6eNje9ufLLhpiosSLxzbZWHaryivmWXXtsuh0xdJ62e3zGdfd/n9BH9BEMwMB4ZQBhDmGu8Q/aeB0EtJsvABiAARgYPgMWIMoW0F4cR8FBQooPmY9pdF9vdRxJX0iwsaAQ8/a1hBiLDyonCgk6UN8eSYrvxb8X+s6jLPzL4y8mCYLKs5m2yi7KN5bnfCV8SQAbrh2GEpdUjkTADz/b0ygj2sH1iKFEzi27Lxbx1d8Ww/58318a91Xfd9ZsbohZjz21uGjHaNtDHl6qT6xfvJbXl+I02xdqi7y0FH8o26ntiheZl+10L/9zHI+BoWys59FWVfnm5Ug4VfvFzfyFKwrPutff/jzJ/rovcWzTjnNJL1LQZzEn4VpbQe+b8nhx77//PxPS7Cdfanjb6QULYlr3lSbaNG5llfAqoVlx1PdVbZS4JzE+r/tb7341oEyV28zLH5Quz8ufPV5td98nHMwoNsEmMAADMNA9DCDMIcxV/nPDQO2egUpf0BcwAAPdzEAUFMoWxPG5DqmXALf7wNXCI2juM68VC3st7u95YPYAj6dW2ixPnOdeXNnISyKFPI4kmC18ZU3jfhS+opCgrX+qZ/ToUfle6Kt+c55anLbuuVzEkTgggUv31aYPP/uH8JC39bW31hd1kHfS1Ef+2qiHthhKHFF58mpTHspLHme5Z18rdojikvpCWwlVhrYm6swulaE/eert2v9L8T/Aq8vXJfWD3gKquOobpZOQ6fjyuFI9JNBJkNN9iVoWq5SX8vT9le9vKeKPpj3UlxKMVIbspXqrrhJk1Teu66JXP6gs20zEfo22yL3U3L7YBxbdVF6VgOY4Hg9mTd6Dsonyi7bR8/yz4sR6un0OnbfEZvWd42q7qPiUN5yFaHnK2XNRrEtIs8Dq/OpCeVTac9K2+ODT74p++MPE+wqW3caYj0RUb491OjEmjtTe/E9x5eGpPNSn+XN/Vnrl4zwd2ga2je8T8h0KAzAAAzDQzQwgzCHMDfqnppuBpW5MqDAAAzDQfQxosexFf9mCuO65zsj6z/95c7EQn/C/bh+w1a6VvtZC/Y5JjxT55OKWBDCJB1rsR2EkCgla0JeV54W+0iq+40hok7hmEWLx62uLZ3VtVRzHj+XVpXF5zYZRmIttVfro0aatjxLrqvKV6KFtkK5vbLuEL9+30BltHD3p6trWqj0+/+Zo+l9/uLsoOz87TcKoxU29qVQCW13ZEhrdBseXLbpNmPvbor8XzKov8z+dMSdBLq+3+rmsXyV6PfrEosKjUOPlib++2vBYU//6nDeF2u4s+7382keFQCuhMQphcVvzjNnPF+Kzx5O2zOpP9pUXnMTTWJ/YL+6DVsOcbefv8Vo2DzkOYfd9h9An9AkMwMB4ZwBhDmFuwD9L431A0H6+FGAABmCgdQbiQrtsQVz3PJ5LpsV5mYdSM30SBam6RX6sn4UExY9CWSzPC33FieJULlw5fV1bq8qrSxPr0sx1tEMuXshrSuKn2hLtoLYo3XMvvlO8ETOeNWdbxrZ/+uWBdN1/3VrkYxFUWyYd1x5rqm9d21q1h73QXE5V6HbXlR3z6lZhToJWlWeZ2qY/e47pbD15nMom8hYtY0Ueb9HrTWKmbCVPTl1L6NOfzgGUTZTXqo+2DxLWlLcEdTPgFz24P5VW22UllOrv7+9/O6A+2g6rLbgS7fyn8RM9NFW2tsBqa6vjzHtuWbr3wTnFWFV65ZO30+M18p3H4XPrczw2w2YwAAMwMLYMIMwhzA36p4ZBN7aDDvtiXxiAgX5joE4AUVvrnkdPK22t04sIhmOfKEhVCTa6HxfsFhJ038JaXrYX+ooTxam4dVPPnn5uWVHvurZWlVeXJq/PUJ+jHSxQOU30KpPnmTzQJP488/xbQ25rjG3XllJ5Sand+nvtrc8an6N9VW5d21q1RxTTXHZZ6HbXlR3zaqcwpxeSTLz9wUIQU+gXlMgWsb76HPuyrJ2657bGuLk3oftf4qm2X2uLqEQt20B56Fp9pz95y1mY032ndyhxT1tbVX70jnR/Kq0EQ2871rl23grtPGIoL0UJcN5ae9e9MxsvRHn3w21F+fJQVb117p3Kid57MS+P15zDGIdrvoNhAAZgAAa6jQGEOYS5Qf9wdRuk1IeJEwZgAAa6m4EoKJQtiOue+5wqLfJ9VtVw+nvzzvPFWzqVjzxvdDD9UPlYSFCaVoU5CQ8+a03pJXqovLq2VpVXl2aoNuTPo0Bj0cZx5NmkuurP5/lFsU4eUPJ0sheWRQ7FV92dj8K4LVaeTfae8rZGx61rW6v2iG2LgpDLysO6si1KqW3tFOZs/zyULWJ99fnr7WcKL0Z7jD0w9cmi72Rv9Y3+7DkW+1Zbwz9a//2A/ooenm6vt/NqC7jOFKwS5tZ/faR4gYTsq3xeeePjoh4S0uILW9yfzl9vHVZd1VaJc/lbWZWf4vglFIongc5CnT5rLD//8nvp93+cVOSjezojL3r+xX43s2XzUIzHdXd/p9A/9A8MwMB4YwBhDmFuwD9u420A0F4mfRiAARgYOQNxG50WzjqXKnq0RMFBWym1VU5237j11IBz2uLbTVvtF5UXX/4wZfrTjZcZKC+JTW+8syE9+PC8QgDRPQsJqrMW9GVleqEf2yXh4MUlaxoePvJ88gH3sa25OFBVXl2asjrV3Yvi1S13PFScJybbSFzxGXxqi+qv+1Gg0nP1ifKXvSSAKK7+VPdY7tfbziSdU+fnCiXU+KUPjlvXtlbtEV/+oPIen/dKIV6pHfqTkKVttDpHTX1UV3Zst4Uk1Tn3hFT/q1y3R2FMm9vF8RzHDMgzNJ7hll/reayv81U+8m5c+MrqYlyp3fKIk4fm7Xc/XPSrRWLZ3+JdPpbiGFVeqqdC5af2y0uuSphTXfRs3cZDBQf2bMtfCOH+jPaUx5tfkiLvwJeWfljYU8KattzaY1D10J/brTfr6m2wvq9Qb4DV24TV17ZzHnq82u75cz6PfL7HhtgQBmAABkafAYQ5hLnKf24YcKM/4LApNoUBGOhHBrRQjqKYF9NeHEfBwc/yUN5dPsh+uDbSYn/mY//aYpmXoc/Ri8xCgu43I8yV5SdhQW9edZ1jW91+P6sqry6N0zYbRmGurL66p3O6/OIHhdHzryqNBRPXQ30+/4UVA4STMi+2urYNxx4SbPSmz6p66r6FobqyLZzF+G6bvMAsPsVylEZxYtrcLs7DcXIG/LwsjPV1vhKvVAeJaLaXxGWJkq67XuKga9lfHpDyUlP9Fd8ill+yojPfFEdjRfkonUQ+c6P65ltZVQfdX/73rxpnFMqTTWJvbIfravvrmcpXPWzPydPmpg/WfZduuOmuomyVf/0NtxX569rt1hbr5e9+VWxd1X2ln/3kS0mCcCwzv0aY4zs2Z4LPMAEDMNALDCDMIczV/oPTCxBTRyZbGIABGOg8A/JQWrBo5YAFtzywJLZFwUHCwJ/v/0vDi0beNBIZLBSNtC8lBMhLR6KDts9pUa8/CQHaZqnte35LpIUOPW9GmJv52AtpyvR5hZePhAIJRB+t39sQP1T32NZclKkqry5Nq/awwKI2STyZ+8xrjUP1ZQ8JqPk2wI3fnkxTZzzT8F5Sn2iL5GNPLW7Yz4JJrI/FHttYwkx8Plb2kAebvB/1ogJ7Y6kON918b3p83pJiG6c4qLOrhTOli0KS6iw+Xl2+Lt182+RG+8WPBC09j2nL7BLjiHcJSt6OWhfqLbjeEqx8/eZfi2nmR/XVeNEbW+fNf6MQrcSjBEW1W96QapdEY3mvqj1+k6687LTt+53Vmxrp5OVobsqEOdVLgvY3O84lvYVXXMkWm3acK4Q0ef/JXkpbZk/VSVtt9Vweb26X6qxz4+TpqBdQKO3Ds+YXHoH2pJO94tuPlebu+2YV5eUcy+4Ic53/LlA/8IcNYAAGYKA1BhDmEOb48uQfCBiAARiAARioYMALfYkGVSJMN/3zaYFF9Y3egWNRx/h2VglK+jwW5XRbnq0Ic+qH4fyJNYna2i4skUpvv7UIaSFR4qSEKuWvbccSx2WrrXsuJ3mm6b7E8c83HW14x0ls9Xlyei5BVgKXucmFOW09V7l+oYTObvRW9Lg9NrZR58RJjMv7TUKeRXGdUaj2KZ7Ljnn4WnaQEPvqm582vPX0TIKd84rleLyqHco3PuO6tUUi9sJeMAADMNA+BhDmEOb4p6ViMcZE1L6JCFtjaxiAATMgcUHCgxfmzYYSS5zHaIZe6Kse7RTmYrnN2kD1iyLHWAtz9sJS/fKXPoxmH3RbXlGYi30T+XAcvYhB9/Mz5co+L//7xoZ3o/OScCWPNgtwCuWdJptIUNM5bxLNco9TbfnV1lZ50ekMOnlOSmDTS0rksTZj9t+KstZtPFjkZW4saKkMl5lv13Z/qG7ypos20NmOeV0cvyqMZwfKq1Nej7KfhL+YRnPD2+99nbR1V+KjnlXNF25HTM813zMwAAMwAAPdygDCHMLcgH96uhVU6sUkCgMwAAPjg4GqhXZc/JddI8z9Qzi0wCIbjaUw5xcOuC/kATVexqhFN7fdocU02UEvkdBWWtmpzLOrzFYSuhRf6TQOHEdC2qq1O5JENIlViudnEuC27LrQ+Oz7CiXcxRdXqB67frhaxFX+KivGz6+37b0yqC5VcZRXrFceb6jPEvO0pbXVPKrmC4S58fF9MRRXPIcDGICBXmEAYQ5hrvafsl4BmXoy6cIADMAADIwFA9FzLQovY1HWaOTZLmEuenFpu+VQh/KPRtvIgzEOAzAAAzAAAzDQjwwgzCHMIcyxlRUGYAAGYAAGYAAGYAAGYAAGYAAGYAAGOsAAwhzCHAOvAwOvH1V+2sSvVzAAAzAAAzAAAzAAAzAAAzAAAzDQGgMIcwhzCHMIczAAAzAAAzAAAzAAAzAAAzAAAzAAAzDQAQYQ5hDmGHgdGHj8gtDaLwjYC3vBAAzAAAzAAAzAAAzAAAzAAAz0IwMIcwhzCHMIczAAAzAAAzAAAzAAAzAAAzAAAzAAAzDQAQYQ5hDmGHgdGHj9qPLTJn69ggEYgAEYgAEYgAEYgAEYgAEYgIHWGECYQ5hDmEOYgwEYgAEYgAEYgAEYgAEYgAEYgAEYgIEOMIAwhzDHwOvAwOMXhNZ+QcBe2AsGYAAGYAAGYAAGYAAGYAAGYKAfGUCYQ5hDmEOYgwEYgAEYgAEYgAEYgAEYgAEYgAEYgIEOMIAwhzDHwOvAwOtHlZ828esVDMAADMAADMAADMAADMAADMAADLTGAMJctwpzx86m7w+c4A8bwAAMwAAMwAAMwAAMwAAMwAAMwAAMwECfMnD4+Pl09OS5dP7SPwSq8Rr+W7c1/Mjxs+nX3xJ/2AAGYAAGYAAGYAAGYAAGYAAGYAAGYAAG+pSByz/+jDB36XJCmOtTwBE3EXdhAAZgAAZgAAZgAAZgAAZgAAZgAAa6lQGEuS7dyorHHJNGt04a1As2YQAGYAAGYAAGYAAGYAAGYAAGYGB0GECYQ5jDHRZvQRiAARiAARiAARiAARiAARiAARiAARjoAAMIcwhzDLwODDx+WRidXxawI3aEARiAARiAARiAARiAARiAARjoZQYQ5hDmEOYQ5mAABmAABmAABmAABmAABmAABmAABmCgAwwgzCHMMfA6MPB6Wc2n7vwaBQMwAAMwAAMwAAMwAAMwAAMwAAOjwwDCHMIcwhzCHAzAAAzAAAzAAAzAAAzAAAzAAAzAAAx0gAGEOYQ5Bl4HBh6/LIzOLwvYcfTtuH3HzvTMM8+mKz/+1NTcoHiKv/bjT2rjnzt/IU2dNi0pf/pt9PsNm2JTGIABGIABGIABGIABGOhNBhDmEOZYJLcozElY+N011yAwtGg3viR640vi4KHDhdC29LXXm5obFH/q1GlJYV0fI8z1Rv/X9SHP6EMYgAEYgAEYgAEYgAEYGH0GEOYQ5moX0/aGkRAV/x6YPDmt/Pu76cLFS430XnhXedvs2Lkr3XHHnWn+/OfS5Ss/NtL12sBGmBv9iajXGOj3+jYrtskO8pSLY97jQ/OF7q9avWbA3BHnkX7xnvPcF9uma7cvPp/84IPp5KlTg+Y/2VHzo2yvP13n+ZV9lhei8u93Jmkf8y4MwAAMwAAMwAAMwEC/MoAwhzA3YEEnoS2KZlXCnBeIM2bOTKfPnC3y8OIzLtI9cA4cOJgmTbonPTt/frp0+UqjzF+u/ppOnz6Trv76W+Oe03RraOHBi+5urSf14ourigGPVY/jVkN70+Xzg4Ullas4jqfPLlPjJl5X1bGX7rs9uR09R/j5/fc/kG655da04p2Vg+Y8hDnGay8xT13hFQZgAAZgAAZgAAZGjwGEOYS5QhA7dfpMeu3119Of/zxpwJY0L7yjV4ZENHl8LHxxUeHR8faKFbXCnEW5J56cm86cPTdAgHP+s2b9JW3bvmPQYrUbBzvC3OhNQN3Yv+O9Th6TUVSrsok8ux6bM2eQx5Y97jZ88eWQnl9DnU1XVXY33renW94mC3OvLFmS3li2LN133/3p6LHjA+bCKMyVtU3PJfxZ7CuLwz3mJhiAARiAARiAARiAARjoPQYQ5sa5MHf8xIm06KWX0nXXXZ/kzfHZ+s/Tjz/93FgwepEehTkP9JOnTqfJkx9sbGPz4jN6zB07fiJNn/5IenT27IZnndMrlMgn4e65BQvStddeWxwOv3nLlvTzL1cbdYjxx+rai+I9e/emd99bVXj3aRE8/ZEZaeeu3QMEwzJhTu346uuv04033ZReXrx4gNfhWNWZfHtvwu2FPvOYb0aYy73i1D6nrxKnNH48V/SbyDSUMCd7OY4EOnkMmwnPQXruezFEmGO8Rx64hgcYgAEYgAEYgAEY6B8GEObGoTAnEenI0WNNiWFeZJcJc/L40PbU519YmH76+ZfGYtvCnLa4aqtr3O5aN3nkIuHGjV8NEAnr0o70mRa9EgYnTJgw6FwniW1RQMiFOdlz85ZvEeV4GUSpoDJSNtud3mN+KGHO8eL2Tc0T8pIrmy+iGBev292+sSzPoluVKCmbar7QVlZtad3/w4EGMwhz/fOP1VgyRt5wAgMwAAMwAAMwAAP9xwDC3DgS5rQglHfaU/PmFSJUM9tHvfiOC20Le/PmPV2IWOs/31AsLr3YljAn0a4VUS5OLt5WKy8+ba1d99n6wgsnxhntawtz8tw7dPhIsXiW194XX24sBDeLjyo3F+a+3boNUQ5RriGwjDab7c7PY34oYc718pIO0q8AACAASURBVLi3eK2xZLFOc8F4ePmDbdGMMKe4mh+1nVXetfYORpjrv3+wzAUhfQsDMAADMAADMAADMFDHAMLcOBHm9MKFZ5+dXwhyT86dm7RlUwJbHRx65kW6F9p5GN+w6gW6tn8+9ticYnEenw9VVv5c+b311tuF6HXb7ben7/ftH7K+eR7Nfq5aFGur2UsvL05THnqocT5eFOa2btueJk6cyPZVhLkxY7NZhluNZ47zMT3U5yjSq0yPewtzroc+23s2j1eVxml7NWxWmNPcu3rNmmJu2/3dnoKdqjnItrDgmdvZzwn5Zw8GYAAGYAAGYAAGYAAGepMBhDmEuVpBoUyY05bPadMeHnQenRfbWtj/9a/PpMWLXynEuWVvLm94hbQyUXSDMKf6fvjR2uIAe5/9ZEFDL8vQWyjlORjfNNtKG4nbmxNnP/ebx/xQHnOOlwt5EpBkH4UxD88P/SwsNSvMyT56Ec6MGTPTwoUvFlv2EeaYC/p5XqFt8A0DMAADMAADMAAD1QwgzI0TYU6DYLS2slYNKC+89bKH06fPFN52ry5dWnjprXn/g6bFuU5tZZXIZvEttvG9VavTXXffnQ4fOVoIDhbmJFDq5Rc6g07beZvxQIz5cl09MWGbztnGglsU1er6w+Ne48JpdS2hyeJcLt75c7+JdK0Ic7Kp7HPDDTcked4izHWO+Tq+eUa/wAAMwAAMwAAMwAAMjDUDCHPjSJgzTBKQRuPlD87PoRfocfva5Ss/Jm1nlYj18Sef1IpXnX75Q5kwZ6Hh0UdnpwsXLw0Q5tau/bjwlFP7JM7prDnbgpDJu1cZMPPDEebUZglMj82ZU/xF4c3zQ7zXqzaqqnerwtz5CxeLN1bPfWpeem/VqgGeuXkZsqsEzX62X95mPjOPwgAMwAAMwAAMwAAMjAcGEObGoTAXwc7FsM/Wfz7gTahepOfnSsU8fO2FdxTm9MxvZy0Tr+zFp5cuSLxTOZu3bGnau85ljzTUovdPN99clK03zCq/i5cup+VvvV3US29RtEecFsZxgax2a+uuhL0dO3chznHeXE8z4DE/HGHum02bC69TjWP9SahSaA+5PGy2jJGO73alb1WYU72+2bSpeBv0w9OnI8wxd/T03NGucUY5LNBgAAZgAAZgAAb6jQGEuXEuzBlobx/VW1C1uPR9L9K1uJYA5ftlYZUwp7gW5yZNuid9t2dvIx/n38wbYsvKHK179kbJhQN91ttlVX+XlQtzefv05lvHJeRLo9cY8JhsVjTzuNfbV19ctKjYzqq0uQeq4/Wjx5fbls8fbqufl9lUPwDohTxKm9sssuM5ynnGZ1wzz8AADMAADMAADMAADMBA7zKAMIcwN0BE0nZNbT/1oPYifaTCnPKTYCVhTn8Wr/TWU51HZ280l9vu0B5zWjhPmfJQsUjW21aXLXtzkCBZJsypvocOH0lTp05L9913/wBxs91tobzenZC7oe885stEpLL6WXTyHFF4yU2dliTUSWxqNp+yvHvlnm0wHGFObdQZczprDmGOsdsrzFNPWIUBGIABGIABGICB0WMAYQ5hriHCjeeBJWGublE8nm1D20dvwu0WW0osy0WkVj/bc0uhx45FPY0nt3WosmJcpyHsP+boU/oUBmAABmAABmAABmAABsoZQJjrc2FOLyRodcHd7fFfeunlxqJ/pAPbL2zIhbmR2uDpp/86anUcaRtJXz75jVe7jOWc8L/9t/+W/v3f/z39X//xH03PO3qzcS/3xVjas5l56Kab/tDT9uvlvqfuzK0wAAMwAAMwAAMwAAOjwQDCXJ8Lc6MByXjIIxfmxkObaSNfIjAAAzAAAzAAAzAAAzAAAzAAAzDQWQYQ5hDm8Lb4LSWEuc5ORHwRYH8YgAEYgAEYgAEYgAEYgAEYgIHxyADCHMIcwtxvTH7jcfKjzXAPAzAAAzAAAzAAAzAAAzAAAzDQaQYQ5hDmEOYQ5mAABmAABmAABmAABmAABmAABmAABmCgAwwgzCHMMfA6MPA6rchTPr8KwQAMwAAMwAAMwAAMwAAMwAAMwEDnGUCYQ5hDmEOYgwEYgAEYgAEYgAEYgAEYgAEYgAEYgIEOMIAwhzDHwOvAwONXic7/KkEf0AcwAAMwAAMwAAMwAAMwAAMwAAOdZgBhDmEOYQ5hDgZgAAZgAAZgAAZgAAZgAAZgAAZgAAY6wADCHMIcA68DA6/Tijzl86sQDMAADMAADMAADMAADMAADMAADHSeAYQ5hDmEOYQ5GIABGIABGIABGIABGIABGIABGIABGOgAAwhzCHMMvA4MPH6V6PyvEvQBfQADMAADMAADMAADMAADMAADMNBpBhDmEOYQ5hDmYAAGYAAGYAAGYAAGYAAGYAAGYAAGYKADDCDMIcwx8Dow8DqtyFM+vwrBAAzAAAzAAAzAAAzAAAzAAAzAQOcZQJhDmEOYQ5iDARiAARiAARiAARiAARiAARiAARiAgQ4wgDCHMMfA68DA41eJzv8qQR/QBzAAAzAAAzAAAzAAAzAAAzAAA51mAGEOYQ5hDmEOBmAABmAABmAABmAABmAABmAABmAABjrAAMIcwhwDrwMDr9OKPOXzqxAMwAAMwAAMwAAMwAAMwAAMwAAMdJ4BhDmEOYQ5hDkYGMcMHDx0OE2dOi0prPpS3r5jZ5o6bVo6d/5CZZyqtNzv/Bc9fUAfwAAMwAAMwAAMwAAMwED3MoAwhzDHQnscizJMzt07Oberb8ZKmFO+d9xxZ/rdNdeU/iH0wV67GKccWIMBGIABGIABGIABGOhmBhDmEOYQ5rpcmJOX0qrVa9K0aQ+na6+9thA5brzppjR79mPp408+SWfOnuvZPrx85ceiDdMfmZGuu+76om0TJ05Mc5+al77ZtCld+fGnMWubvMAkGinMJ2nZXMKRnk9+8MF08tSpQXHWfvxJITzVeZrl+XbL56FEsyoxzfefeebZom9kA9+LoQS5OrsonfPoFpuMpB4vvbw4TZp0Tzp67PggTpzvyVOn0+TJD6ZXlixJv1z9tRFP17on+2mMnz13vvHMaRWW2VrzwONPPJF27NyVrv76W2k63T9w4GB6YeHCdOeddxXlaB6ZMuWh9Oby5UWdndZjQmXFsn3tcVHVd2PdFtejXaHmp08+XZcenT27MT/JhsuWvVnqPSo7fr9vX3pq3rwivuw8c9as9O3WbZX90662UA6LERiAARiAARiAARjoXgYQ5hDmShdgDNrOD1ot8r7++pskoSqKHvn1UCJIt/bl/h8OpPvuu7+2bUtfe33M+LQIUSfM3X//A+mWW25NK95ZOWhhLfGiV20fmZCANhpbWdVXeX/JtmWecWVxY5167Xrzli2FaL7+8w2VvH7xxZdFHMWN7Tt1+kya8tBDhWgmISd/7rhlwpznAqWTSG+BzWl+/OnnQnzTc8fNw8iwx8RwhbmxbIvb1M6wzuazZv1l0I8isp/E0tzG+tHhiy83Duj3draDsjr/fU4f0AcwAAMwAAMwAAN1DCDMIcyxWOhSjzl5WWiRp7+Vf3+38NDwwvvnX66mEydPpc83bEhPzp1b651UNwF06pk80OSJJsFg4YuL0pGjxxqiwk8//1J48UgMe+vtFWPGp0UIhbkd7BkkT6Y3li0rBMTcG6qfhDmJM7mYkH8uE9hsN9srt6VslHtXyQtS96rEH+fZS6G83OTtlrfVbZBAtuBvzyeJOecvXBzA2zebNqcbbrihGMsS6HKPOudhkSjaWGNF4r36L/e201yxes2aol///OdJaePGr5I8wJSfnqke327dmp5bsCAdOnykuO8xUdU37ueqdo5VW2yDdofrPlvf8CrUnCu7aa6aM+fxwq4SW10n2VaevpqvJcI5/rZt24v+Ket7pyXkH3UYgAEYgAEYgAEYGN8MIMwhzDUWFuN5MtBCVIvbPXv3pnffW1VsS5Mwoe1eO3bsbIhGtpEWaNo+pgWavCEkMGm7097v9zXs+d2evcWCOy7elP7tFSvSvffel44dP9GIe+HipfToo7OTtsRpO5gWzcpPizwJdC53qNCihxbOyv/1N5YVeah+O3ftLvLRglGePWqb2qgynn9h4aBteN7uWLZIl8dT9LSJ5f5w4GCRn/KVbRYufDGdPn2m0QbZToKbyl658u/FAnaodrVSF+UlIeSz9Z832qh6PPHk3EKIUPstcuTikwUHCxBqp8uWQBe3IJoZPY/1P37iZKP9Zkh1UZ1ivG65Vv1H6jEnW5QJd7qfe9HJto/NmdNzYnJdf5lpeVfKEzSPK1FXW13FveL6uQU7jX3ZRaJcPjc4rpmNwpyeKb8lry4dMB5132XK6/PwkaONMp1fWTgSYW4s21JW107e27ptezF/qU9cD88TubBqNiS+6jvB8QnH9z/f9D/9DwMwAAMwAAMwEBlAmEOYY6Hwz/ObJF794Y9/LBZcUbCJApQGjxZa2jam+DGeriVGeeGss9/kAaNFsxfjly5fKQQixY2CnRd1vmdRL1/kxcFbdm2BTHW+9bbbBtRP9ZIotezN5QPuuw0SDnQWlfN1neLi08+qhLkJEyaU2iVu+7IIKdto65vzrAtbqYvEszeXv1XaRvelRQ633WGZMKe+k/deLrooD+fnust+sqPzi6HsLvs7breEtm2sa9l1mfCmNljErOIkF+bEYVVe3WKT4dRj1+7vCiF+zfsfDOpj3SsTZiyevbdqdZFGttG8UrYl1sx6fnEdLYjp/DqdY+f7mkvUj2X1cZw8VN5KU9aXiuu+9jiJ6ceyLbGcbriWMKd+ituObbtP161r9IHrWvfMcQj55xwGYAAGYAAGYAAGxi8DCHMIc4MWEeNxQvCiVy8h2P3dnkJAkYjy4UdriwWYQttFHjESaeQtpy1gEm70p3TyPNKWNS2Wtc1Mnmjy1JIgp/Tf79ufHpg8uYinZ4qj+9oCdtvtt6cDBw8Vn7W40wJZ911uM6GFOS0aF730UvHSAouCSi+PPomHqru3jyrN2rUfF/e1Fcvb3SzYlC3Sq4Q5nYf393ffbWzXu3jpciFMqi0WHeW9c9fddze8A5tpVyt18SH78tRzW2Rn2f7lxYsHbdvLhQ7VxwKERSWJDjoPT+ktrskuUZhTGYsWvVTYUfaUXWV7b33LF/LNtLsdcWTbkXjMyUbq3/hnuynM+dHnMmGnHW0dyzIsusfxrvK8xTGOLddDtoiCrzxlJWJ7DnE8hYorG0delff7H3xQeKbmIr48PP90880F9zGfumsLSLEvy67L+m8s21JX53Y/07jW9l95NMdtyWX947r5hxbF8T3C8fuPN31P38MADMAADMAADOQMIMwhzLFQ+OeiN4osHigWeSw06L68W6rewCgBL25F00JMIpS3ksl7RYvazzd8Ubyh0R4u2t6q7WzyJlMZVYs8C0ZxsRzrbWHu6b/+NV358R/nSbktrnsUAvzMb1OMebUihrncsgW7bWjPQecbbep6VIVOU7awVT6x3vZUlBBS98ZaixBR6HD5trPrKIFN53VJ1JQAq3iqSyzX7cwFEsW1mPva6683vCddVqfDkQhztmG0g2ymPzMRWc2v+81zrswzToKwBLLcc61MsBNn2u5aNkY9J+Q21GeJRKfPnB0wl+fjohnO3J9lZcR7+Tgf67Y0U/d2xLHHce5drLLdP2XzSd381Y56Uwb//MMADMAADMAADMBAdzOAMIcwN2AxN14HbC6y2A65QKP7WvDGRWp+HUUKL8q19cmLV5VlEUcecfKumz//uRRFmyqPOdcnlhnLsxiSL5zdHtW9SgzJF5Z1i8l80V9XrgRCCYWu01h7zEnc8FZjeanpjC2d3aeD7lVP28IiRNlC2nZWOx1fIt+MGTOLM/PUZzkzdfZyfraB8+xUOBTDka+q681bvi36dNXqNQM87pR3tFtVG2W/Khar0nT7fTMQz5KT6F4m5HtukB1iu+xdlQt5Hp95fyx+ZUnp+YUj8ZjL6+T6VXE81m1x+Z0MNXe8unRp0ZdlZ8W5f8rmE/dplV072S7K7u5/0ukf+gcGYAAGYAAGxgcDCHMIcwMWheN14GvBFAUu28EL0Sg0DCVqxHz8tkYtzrVo95ZBeahJLNKfXhag86G81VNleyFX5n3luilUXWJ5dQKZ41eJIfnC0iJD2WKylXK9xU/iowStsT5jTu2UOCe7StyQ55y22ErQeOyxOQ0vulaFOeUrW+isMAmtOTN19jJH3SLMqS3xT22p46LqmfKIXOuz2NBfzL/sWmV2qz3K6tvMPfEd375atTXVnnG5yBY/Rw9alS176bmFHwn9GlPy4pRIqjxjHdt1xlw72hLb1YlrjV/ZWvO3jxvI6+H5JM7jjuOXRZSdP+c4hAPnJOyBPWAABmAABmAABsYTAwhzCHMDFnPjCf7Y1lxk8TMLKlFo0FbW/KB1x89DC3ASIORZFIUIecspnw1ffJnuuefeAW+p9IK+atHtcloRyJRGdde2uj17vx/Q72VbWe3ZJlHR5TlspVwLVs4nLuSbfSFCK3VxHWOoMj/88KNC2PDC2QtpLZpjXF2X9bvuq1+0bVBi33urVg0QRe0FqXPmfA6d8+3WraxlQq7vaUy4/u5Di0K+r7BKmBMjUWiK13qmvzgeYp69fK0XN8hTU7byCyHMnNvl8R1tkl9LAFZ6p8mFOd3X9tUZM2cW4lz+9ma/jKFs26XzzEOPidj3MY7HRey3drQl1qHd13pTt86X1NmB8e3SeT08RvIfUzzflb38I8+DzyxAYAAGYAAGYAAGYGB8MoAwhzDXWPiN50mgFWHOIsuTc+cWooRFGAkaWkhrC5kWq7anvCTk1SZvi7jgLYScBx9MM2fNGvCCCKfTQlvC3HXXXV+8ZVTxtcjTc71o4MTJU+nZZ+cPEIcsqsSFs/NT6Jc/6IB5v7hCacpe/qA2TJ/+SOFJ5TPydE8vd5AHWpmnnkQrCQKqp/784oN4Npvq4ZcpSMBY+OKixoso3DY9f/e9VcXbUHWvlbqoXXpJg7bX+eUa6qOvv9lUeLtZJNm5a3choCxd+tqALa4qzwKExCN9jn/fbNqU9PbZh6dPH2ADv/xB/aUD+WXXaINue/mDRZgXFy0qBLJcGMo/S1iV51zOVpUwF21Wdt2vwpwF2sWLXylefFL29mHZXjyYxdw+FnniltgyYU7pLM7lApzY09uE1Y9//vOktHHjV42XoeiZxpS2d0tI1phRXmYizlOxbh4XkYF2tCXWoZ3X6z5bX8wZOmZA47mubB9VoLnuiy83Nl4gpHlcc6XmXNm8Lg+eDZxrsQf2gAEYgAEYgAEYGC8MIMwhzLFQKDnI3xOAF6JRoNGi1meY5eKFPufb/nz+UhSylL+EHL2ZVWni+XIuW+XI+0YLvbJyfE/edhbOhhLmfHi508awbmEf40l4+v2NNw4QpVxujBevyzzjduzcVeQR4+XXtnsUGWKcsrpY1IjxfK3FsV8Icer0mSTRxM8UWnAo63f3i940K1FW8fM+PXDgYHEGVczT12U2cJ7tDGVLtTPn1HVwX1aJM7l4MxJhzv3rsvshtPephDcJuLkHlZ/Xed26D6KoVyXMyWbmTt5zJ0+daszpEoskUpvBsjAynPdt3h8eFx4n7WxLXpd2fBafZTbzvWg71Uf2K5uvxYI8o9tRZ8pgAQMDMAADMAADMAADvccAwhzCHIuFFoU5TXQSN77fty/Ne/rpxkJMXmQ6iH3//h+K554Qfaaatj9qoez7CuUxo0WetrXG+/FaQtLKv7+bpkx5qPCyUXyVpbOs8hcaeEHvhXPMx9cS5yT4KT/lpYWkBEJ5qTmOQ+UnrxvFkQj21Lx5RbvlZRYXpS53+iMzkjyFfKabylBZ9ip0vg610NcW32nTHm607c4772q0TWd2OW6zdVFZssvcuU81+kZ5Llv2ZkOUc57yIJSXnxbOaqMW4hJMLUBUCUfa/qqtadEGzlNn28meXqDLBp+t/7z0gH6n6abQfVklzOV1LRNCq+zmtLZvs2U4Xa+Em7dsKZgSVxJrYr3tUZcLdjGOrr0lVnnpc50wp+f2sJU4F9/QqrlKIrjmC49LjWWNVXmlRiGvVWGu3W3JbTTWn1sV5mRrbX2dM+fxYr5U/8sjWn2jZ2NdX/LvvX/C6TP6DAZgAAZgAAZgQAwgzCHMsVjItioyObY+OVrMqRMEsWvrdh1Lmw0lOtgrqCyMYlOzHnN5eVUee2PZZvLuLgbpD/oDBmAABmAABmAABmAABhDmzl9CmEOYQ5gbMQMIc3yh8oUKAzAAAzAAAzAAAzAAAzAAAzDQOgN4zCHMjViUYeC1PvD6zWYIczDQb0zTHpiGARiAARiAARiAARiAARhoBwMIcwhzCHN4zI2YAYQ5vrDa8YVFGXAGAzAAAzAAAzAAAzAAAzDQbwwgzCHMjViU6bdBQXuY6GEABmAABmAABmAABmAABmAABmAABtrBAMIcwhzCHB5zMAADMAADMAADMAADMAADMAADMAADMNABBhDmEOYYeB0YeO1Q3SmDX3dgAAZgAAZgAAZgAAZgAAZgAAZgoLsZQJhDmEOYQ5iDARiAARiAARiAARiAARiAARiAARiAgQ4wgDCHMMfA68DA4xeL7v7Fgv6hf2AABmAABmAABmAABmAABmAABtrBAMIcwhzCHMIcDMAADMAADMAADMAADMAADMAADMAADHSAAYQ5hDkGXgcGXjtUd8rg1x0YgAEYgAEYgAEYgAEYgAEYgAEY6G4GEOYQ5hDmEOZgAAZgAAZgAAZgAAZgAAZgAAZgAAZgoAMMIMwhzDHwOjDw+MWiu3+xoH/oHxiAARiAARiAARiAARiAARiAgXYwgDCHMIcwhzAHAzAAAzAAAzAAAzAAAzAAAzAAAzAAAx1gAGEOYY6B14GB1w7VnTL4dQcGYAAGYAAGYAAGYAAGYAAGYAAGupsBhDmEOYQ5hDkYgAEYgAEYgAEYgAEYgAEYgAEYgAEY6AADCHMIcwy8Dgw8frHo7l8s6B/6BwZgAAZgAAZgAAZgAAZgAAZgoB0MIMwhzCHMIczBAAzAAAzAAAzAAAzAAAzAAAzAAAzAQAcYQJhDmGPgdWDgtUN1pwx+3YEBGIABGIABGIABGIABGIABGICB7mYAYQ5hDmEOYQ4GYAAGYAAGYAAGYAAGYAAGYAAGYAAGOsAAwhzCHAOvAwOPXyy6+xcL+of+gQEYgAEYgAEYgAEYgAEYgAEYaAcDCHMIcwhzv6W09uNP0h133JkOHjrc0/bYvmNn+t011ySFYzWBnDt/IU2dNi0tfe31MStjrOpOvtVfrGImjoErP/6Unnnm2SH7WRyIueH8DZdTjVPVVeOWPq3uU2yDbWAABmAABmAABmAABmCg+xlAmEOYY2E7ToU5iRq5mCIhRoJM3eSNMNf9E3td/5U9swiX9/9YCdZmKApzFvjivbK66l63CXMvvbw4TZp0Tzp67Hjl2Dl56nSaPPnB9MqSJemXq7824ula9zQWp017OJ09d77xLLa/bLzeeNNN6fEnnkg7du5KV3/9rTSd7h84cDC9sHBhuvPOu4pyrr322jRlykPpzeXLizo7rWyvelQJnu63nBPXc6zb4nLaFf7408/pm02b09y5TyXZWraZOHFiYcu6vm5X/Sin/+Zi+pQ+hQEYgAEYgIHxyQDCHMJc6WJuvE0IYyVAtNuOXlg3I26ULfSrFtyxHV6c4zHXP18aVfxbsBvtvjZDkdNeFuY2b9mSJHat/3xD5Xz6xRdfFnEUN46nU6fPpCkPPVSIZsojf+64ZePVwrrSffzJJ4PEOQlLEt/03HHzMHpJev5QWS43hu63qnliLNsS69Gua9sjt5k+S4iV4NmuulBO/8y39CV9CQMwAAMwAAMwkDOAMIcwx8JinHrMeTKQIKKtqVp0+15d6MX5aIs1dWXybOy+vCw+VIkxfq4w7weLaWXCRdU9pTFDZXnmZZR97jaPOXm5ydutSrCSQLbgb8+nWbP+ks5fuDjAjvLIuuGGG9LnGzYUAl3uUef2W5iLNvvp51/S119/U2zrzb3t5AW3es2aQpD7858npY0bv0qXr/xYlK1nqse3W7em5xYsSIcOHynuu6+rWHC/VbVzrNpiG7Q73Llrd1q69LV0+MjR9PMvVwsbyYZvr1hR2FVhu+tEeWM3F2JbbAsDMAADMAADMNApBhDmEOZYWARhbs/evWnFOyuL7UoSFqY/MiNpceatXhqoXrxu27Y9bfl2axFHcefPfy5dvHQ5vfvue+n++x9oeKloC9TzLywctM3Ni1wt/L7fty89NW9euu6664stU0teXZouXb4yoG9UB8Wb9/TTRRx5wWgxvu6z9Y3tp67b5i3fps/Wf15sV1Pd5N0hb57YDk86dcKcFqHRHspH9S1Czpgb0D+2Zy+FFriqhBa3RUJN9Kzy/eGGZj+KTFVlnDl7Li1e/EpjK6G2YIrZP918c+WWy+HWa7jpNK7eentFuuWWW9P+Hw4M4kLbHjVmFCeOQQt2jz46uxArJcrde+996djxE4PyKBPmVF/lp/ki7x+XqblIwlIzbfP8MRxhbizb0kzd2xnnwMFD6bbbby8EunaWS1ksFmAABmAABmAABmCgPxlAmEOYa2rB1u8TgBaiEromTJgwaMuXhLXd3+1p2MmLV50XFbeISdyQ4KCwzFvovvvuHyDOWZz4/Y03FoJcnuaNZcsGnEX17dZtDXEij2uBw3WTaJHHkVfO1m3bG+1wn1YJcxLlJDbm+fiz0jkPwt77grAo16y3ZJVwNpy+N/vmVnmU5X/6zNk0Y+bMSgarBKTh1GmkaXbt/q7wfFvz/geDxoXuafx9t2fvgGcWz95btbq4L3toTinbEqu2auxFm6nOFsQ0H+kcO7dDW2cVv6w+jpOHnj+q7Op+KxNyx7IteT079Vki6MlTp9LCFxcVQqs9DTtVH8rtEAAwsQAAIABJREFUvXmXPqPPYAAGYAAGYAAGyhhAmEOYayzkygAZL/e0ENWC2Nu6tADT1qUvvtxYiGHyeNO2MdnDi1dtD/tm06bG/SpbKS8dzi6Plk/XrWvY24tceclpS5S3uB0/caIQI3TulLyFlK/PblIeKlN1U76nT59Jby5/q/Dqq6qb4m3avKVohzxr9DnWtUqY04JeC3stQlW+0qhciZR4zPX2F4oZzkU5nylXJcxYHKp6Hrmquzb7UWRSntHryy8S0Lhc/tbbhTeq8tQ41LbMbvKYU73k4frEk3OLv+jtKoF77lPzij9dR7uozdHLTnOAtrtq26sEtzxuLswpv/c/+KAQ9vMtsBL2ZaPv9+0fkE/MM782Fyqn7q9MmBvLtuT17MRnzZOyiebr115/vTE3d6IulNnb8y/9R//BAAzAAAzAAAzkDCDMIcw1vWjL4emnz7ko4LZJHNAbF6NI5sVrmfeZ0km8Uhylmzp1WuNNiFrUxTOJLE6UeZ7JgyaKFDq7SenLPGlcV4Wum8J436JB2YK6TJhz/LIzserqHcvkunu/cFatXpNeXLSosQXafWV+yjhxHHvaaczonnmoE3IiyzFN5DQfg36LaZlIldfBdet0WOYZJ2FMAlnuuVYm2Ek0r9oSK/tU2fjR2bOTvAtj+zWuc7vH52XX7v+qcnw/52Os21JW13bfszAnG2gbqwTRXDxtd50or3vnWPqGvoEBGIABGIABGGiFAYQ5hLkBi7lW4OmnuLkoENv24UdrByxwvXiNooLjy8NNXjNewOZhFOEsaMR7zievjz5rMaizjRynLKyqmz2h8gW18lD5uedUXd3qnpXViXu98aVUx0hdH5qHsvGgdBLRJFArdD5laXLm68S3umcuoxOh6xXPkpMYLw9TbfWMdbJgp3bH+9ruqm2vuZCnePl8os+LX1lSKhCNxGMur5Pr537L55GxbovL74ZQIqReqiFPzryPuqF+1KE35lv6iX6CARiAARiAARiIDCDMIcwNWBRGOMbTdS4KxLbLe+2uu+9uHKBeJX4pjRZqWixr6+v+/T8U21PlQecFbRThyu653Lw++owwx+RtPsYirOO6rjxzjDD3r/Pe7GlatTXVnnFlQpvv6YUQFy5easzPmgP0zHaWQKQzIHUGpl72km9Rb9cZc+1oSx1/nXhm5nOBshN1oUy+F2AABmAABmAABmCg9xlAmEOYayz8xvOAzoUw28IHq8dFcp2AIeEtbnt1Pl7IDVeY8yJ7uFtZ67yhyjzmJAiozWULz7K2uJ2EvfmlUNWn8gAr2/Ia+9lpLRjFZ7pWHsPxmNObSfWGUp3nlYtO9kzTuM3L6/RnjVF5U8kefiGExm+slwU7i3BlobzmlN7pcmFO9/1yDIlzejmM4yr0yxjkrXfgwMEBz2K8eO25rcqu7us4L7SjLbGO3XAtz2jN89EO3VAv6tCb8y/9Rr/BAAzAAAzAAAwgzCHMNbVg6/fJQgtRnQOlQ+X9koeLly4Xh85rkb3inZUNccCL1zIhQtvHtEjWyxYkJujvyNFjaenS14pDw4crzGmRrbe66syoZl7+kNetVWEuHryvbVtK77boZRCySWxLv/PR7+0rE2fV5hMnT6XH5sypFSAs1pSJS76Xn3XmNJFTjcEYz+eWaTzpJSzyPNXfvv0/pCfn/mO7eJWA1Mn+8tl4ixe/kvSyFQk4fnmK66V2awzlgp2fW3iMW2LVVtkz2kzxLc7lApzGq+YtpdGLajS3yaZKo2cS1L7dujUtWvRS8ttFlbfiV9nV/RYFqXa0xXZpdyj7fbR2bfG2W9lMf34rq+wU+6fddaM8/oGHARiAARiAARiAgf5hAGEOYQ5h7rdULES10Cr7mzFz5oCD1b14zRfImhj1xlIJCXk+Ehx0P4pZXuTGe55cc5FCC8KPP/nHm2PzvPXZdamqW5kw54V+zC8uuOVlo8V+fK7r39944yCR0fUm7L0vhypm3JcWico4VRxzbAadri4sS5Mzr/TyAisbT3/44x8LYatKQKore6yfRVF7woQJKX9bqp9PnvxgIfiU1cfjNYp6Hq9ldvZY1Vwl4ch5Soh7efHiQWM4jukohpqFKru63zxPtLMtblM7QzEfbRWv8++FdtaLsnpvnqXP6DMYgAEYgAEYgIE6BhDmEOYai7g6UPr9mUWBN5e/laZMeahYjEkQeP2NZYXwENvvxWvZAlkC2o4dOxt5SNh6971V6fiJE8ULFqK44UVuvOdyXB+JIr6nvL/fty89NW9eIYzJ42bmrFnp66+/aRz+XlU3L/S9oFaeXujHxWZ8rjh7v9+X9MZHlTVx4sS0bNmbxbY4vSyirN6uK2FvfPEMJbq5H81VlWDjeM2GZj+OoSrmdX6ax6TH0569ewvvutGqT7P1bjbe5i1bijGjcRPbqPT2qMsFuzxvb4lVXnrm8Zrn53QWMXPBqJiTdu5KerutxrDG+3XXXZ+mPzKjmJuikDdUP7vfPE+0uy1ua7tCbVnVG4xlK9lMtntg8uTCbvY+bFddKKc35lT6iX6CARiAARiAARgYDgMIcwhzDeFnOACRhokHBnqTAYtyUZitupYIa9GmShiq48BpY/4Wd+rS8aw32aLf6DcYgAEYgAEYgAEYgAEYaJ4BhDmEOYS535ofMEwu2Go8MyCBDk9JxsB4HgO0Hf5hAAZgAAZgAAZgAAZGmwGEOYQ5hDmEORiAARiAARiAARiAARiAARiAARiAARjoAAMIcwhzDLwODLzRVtjJj19tYAAGYAAGYAAGYAAGYAAGYAAGYKD3GECYQ5hDmEOYgwEYgAEYgAEYgAEYgAEYgAEYgAEYgIEOMIAwhzDHwOvAwONXjN77FYM+o89gAAZgAAZgAAZgAAZgAAZgAAZGmwGEOYQ5hDmEORiAARiAARiAARiAARiAARiAARiAARjoAAMIcwhzDLwODLzRVtjJj19tYAAGYAAGYAAGYAAGYAAGYAAGYKD3GECYQ5hDmEOYgwEYgAEYgAEYgAEYgAEYgAEYgAEYgIEOMIAwhzDHwOvAwONXjN77FYM+o89gAAZgAAZgAAZgAAZgAAZgAAZGmwGEOYQ5hDmEORiAARiAARiAARiAARiAARiAARiAARjoAAMIcwhzDLwODLzRVtjJj19tYAAGYAAGYAAGYAAGYAAGYAAGYKD3GECYQ5hDmEOYgwEYgAEYgAEYgAEYgAEYgAEYgAEYgIEOMIAwhzDHwOvAwONXjN77FYM+o89gAAZgAAZgAAZgAAZgAAZgAAZGmwGEOYQ5hDmEORiAARiAARiAARiAARiAARiAARiAARjoAAMIcwhzDLwODLzRVtjJj19tYAAGYAAGYAAGYAAGYAAGYAAGYKD3GECYQ5hDmEOYgwEYgAEYgAEYgAEYgAEYgAEYgAEYgIEOMIAwhzDHwOvAwONXjN77FYM+o89gAAZgAAZgAAZgAAZgAAZgAAZGmwGEOYQ5hDmEORiAgQYDV378KT3zzLNp7cefNO6N9hdPK/mdO38hTZ02LW3fsbMr6tNK3YnLP20wAAMwAAMwAAMwAAMwAANDMYAwhzDHYhdRBgZgoMHAcIW5ZgW0pa+9nvQ31JeTnyvfFxctKsQ5Xfv+cMODhw6nO+64sxD6lN9jc+Yk3RtufqTjHy0YgAEYgAEYgAEYgAEYgIGRMIAwhzDHghRRBgZgoMHAcIU5ebTJs20o8axVYU5fcFFMG8kXXp6X6vrNps3pd9dc0zUegiNtH+n5pxAGYAAGYAAGYAAGYAAGeosBhDmEucaCnMHbmcH7y9Vf00svL0733ntfOnb8xID+8LMbbrghfbdn74Bn6q/3Vq1Of7r55vT9vv2DntGfnenPbrf7z79cLQQ0iVEj+YtbSy3mNeMJVybM6d5I6qK0sT51fVAm8umePOeGEhXr8tXWX3nilXnfuX3N1rGunKGejbQs1bEVew5VH5739jx09dff0vf79qWn5s1L1113fbr22mvTzFmz0rdbtyU9o397u3/pP/oPBmAABmAABrqDAYQ5hDn+se4Cb6kvvviyWPDkC/fzFy6m6dMfKRbKEuHixPnTz7+k519YmB59dHa6cPHSgGcxHtfdMdn2Sj9YZGvljDmJUVOnTisVpfJ2lwlzeRzXQXHzZ1WfJarJY2+kAt++/T80XWasC8Ic4yzy0C/X+k668aabBo0riXRffLlxWGOlX2xDOxjzMAADMAADMAADo8UAwhzCHP9Yd4EwZy+et1esGNAf8oSTJ9399z9QiHAS4zz4z5w9l6Y89FB67fXX8Vzogj50v/R6aFGsFWFOAppEsRMnTxUvjmhWHKvyMLPI1oow16zdnXcr7Wsm7zphrpn03RIHjzn+wTSLl6/8mOY+Na8Q5iTCydtWXnLbtm0vvENnzfpL0o9Hjk8IOzAAAzAAAzAAAzAwPAYQ5hDm+Kf6t1ScLyWRYM/evend91alSZPuKTwEpj8yI+3ctXuA8HX69Jn07Pz56c4772p4ESi+0mkh48lo85YtacKECUmh7znUYkaLmgV/ez79+NPPhcebPN/0NkwJI46nxf4TT85NH61dmyZPfjCdPHW68UxbW7XFVWdkKb5Eu3fffa8Q8bTdSOKIPB3kVXf02PFGuv0/HEi33HJrWvP+B417Lk91UZ1YcA1vQrUdezlsVZizkNPM+XKySzMec2Mlnqn8schbbSoTIy0slol2vpfPOVOmPJR27NjZmHNaHa/O11tq3Z+aW344cLCYDzQvyOPp2WfnJ81n5lVpy9qRz0uOT9jf84R/MHplyZKkYxXc3xLn3np7RfH9U3bEguMR9jcf9C/9CwMwAAMwAAOjxwDCHMJc45/t8TywtCCVmCUhLV+YahEbt5h6sZLH0+eFC18shDbZ8uy582natIcb4lu0by7aaaEjz7d4zpzPl3tj2bJ04OChQiyMi6APP1o74EwrL8DL6nXfffc3xDnHKxPf6kSAWH+uR28S7pQt6zguY0j3LDS5zmZJz8ZCmKuqh+83W6brq9B1ztsS47R6PVxhTnPOH/74x0FzTvQkdH2bHa9VwpxEfP3Zdg6j6IYw1/vjulV26+JbdP903bpB/yfUPavLk2cwBgMwAAMwAAMwAAODGUCYQ5gb9A/3eBwoFuaeW7AgHTp8pPBW0bYdbd+x11ncRprbSItnnQF31913p8NHjhY2tVeBvNMkeDlNlVeaPN+0ULcIaGFP93WGnDzqfM6cz5eTN92ly1caebsMh6rDjp27CgEvLq7Wf76hKCt687m+8v6LHnbOi3DwBNoPNhFvUQgqa5MX4Ron8bk+Sxzb8MWXA4Q5xa8SvnS/6pnztmjoseD7MXTZ8oDzfaez6JSHbmczdXCezYaqj/PP05Q90z3VT165u7/bU2wT1JwjwV3zgELn08p4zcuysKc8F730Ujp56lQxv8lrV56/t91+eyH8uyz3dZ3tHZewP+cE96sZLWPBHtuK4/iE/c0D/Uv/wgAMwAAMwMDYMYAwhzDHP9VhK6sW9nHCsdeaznLTmW5+dvHS5bTus/XF+Tt6JvFOi+z87an2QNO2HwlfSu97+VZSvZFVHnM+Z07ny01+8MFC6FNaedRpW6pEOZ8v57iulxb2WkTpLa86jD9ut41xT50+U5xP5620Su97+bYl5004dhNxJ21r4aZKLPPz6Fml+ur+i4sWFS98EHPRe01iskSqsgV9M6KY0lWJXLaV8snr5GcOq8pqJq3zaDbMBbGYruxZ2T2l0XZ1bVtXHZ2Hx2Yz4zXPt6r/lLf6SfNW7Cdd5/dcD8L+nAOq+lUsVbFgEVxxqtJzf3zxQn/T3zAAAzAAAzAwfAYQ5hDm+Ke6RpjT5JJvGbUHmhYsZX9xkWvvOIl3WlzXeaXlC2gteKJHnN7c6nPm7K2ghbUnQIl1il9WJ92LC33XI3rzyStHwuKu3d818nTehMOfZHvBdl5kR3Zd77rFueMoXRTmdF/p8nu6XyWWOa+6tDFOM+JaVVlVdYv5t3qtPKvExLJnZfdUps/AG+54zfPN55XYrjIRruxeTMN1f88FsX/Fkr47yuYFfwcpTkzD9fjhg76mr2EABmAABmBg9BhAmEOY45/qIYS5uEU1vqVu9Zo1xVsotc1UQlfVglbbRbWNTMKXPV+qvNLk1SavuSNHjxVebzpfzhOexJN77rk3aUGkxVA8j05x5IGnRZS86vbv/6F4W5486MoW+opvzz1582k7rN6+p7/4AguXTTh6k2632lJM5UKamR5q8a14eVpzl6etEsuiXZoV3YbrMaf6VolosR6tXKudVXmWPSu7p/JstyjM6X6z4zXPF2Gu/8duK5y2EtfjXz8K5em2bttefN/EIxLyOHyGPRiAARiAARiAARhojgGEOYS5Qf9wj8fBky9mbQMvanW+mwQ4L5qXvLq0sTXVcb2IUeh7Cv0GVoleH374Ua1XmtLqBRSfb9hQvDgiesT5nLl3Vq4sxLdclNBCPt9yq/Jd53yhH735VJ685SQexrpz3dxE2i920jiwwGaec27K2qq4Thef634Zp3V51nnvOW+Py7p8FFfPy+I0U4bLajaU7fLz2py2bH4pu6f4Ix2veb62Vd4PKst9rNB19T0JL75HOL7mAfe3x0n+Q5I9rvOjG5yOcHzyQr/T7zAAAzAAAzAwfAYQ5hDmWHz902PuTzffnOTd5pc86By55W+9XXi7rXhnZSHESWSbPv2RNGPmzHT8xInCdoq/bfuONGfO46XbfryIkdecRLc6rzSfL6UD4X2+nCc45aNz5vR2Rr1l1S+C8HN51+msu02btxR1VXx53i1d+lq67rrrSwUKCXHystMCy9ttnR/h8CfWXradhB0xob8yUausbRJzyoS5srhVYpnj6vlQeVlsGqp+VWWVpfc9jR/XpZVQnkOy2QcfflS8yCGmzcUyPSu7p/tVwpyeNTNe83zdrmaFuZ27dhdznuYNpY3t4Hp8zQnRQ1wvQpIHtv6+3bqt8A4te1MwjIwvRuhv+hsGYAAGYAAGRocBhDmEORZe/1wkW4zIQ4lwp8+cLewksUsiXR5Hn7W1VGH0PvFE5W1oel7nlea3rSpePF/O+fiwdol8eTl6s6NfQqH0/tP2Ot0vEzG8tVZx4wsqXB7h6Ey0vWDHKMjppQ7ipmprZt6eVoU5lZXnoc/KRyzmbOdxLV5V5eP4Fubs+aO8LfrlApbz3Lf/h9K6Oc+qMI5xjz2Pubws5VF2T/ddD6eN5TUzXvN8WxXmYhluR5moF+vFdf/OExqLZd8r+g7S25jp+/7te/qWvoUBGIABGICB9jGAMIcwxz/WwWNOi+EpUx4qxIGJEyemZcveLBbKcVLSFlB5q+m5FiczZ81KW77dmrb988ydMlFBaeY/t6AprzQtrLUgjufLuXwLDH4JhO8rlGi4Y8fORv0nTbonvfveqsKzT2JE2UJfad5cvjzFl0DEPLlu32TcCVubJ/FWJsJZJNLzOnFGzFvwqmuHRSIxnsdzXco4zePm4lPZc4tKVXV329wula83GR8/cXJQ3fL8yz5rLG3e8m1j/Gl+WL3m/SKvsvqW3VO+rleZHZoZr3m+trnbGeuufpN98jlr7/f70qOzZxfzm0V9exLH9Fz39/yg/hVze/buLTzC5Xnt7zx5zekZDPQ/A/QxfQwDMAADMAADY88AwhzCHP9Y13ivjNYkZC+U/Kye0cp/uPl4q1Ld9trh5k26sZ/Ah2NjLaYl0lQJVlV5Wjiz4CUByHHrhDnFc5qqMp13mXjkZzEPXedikgUoPYt1cx3LQgtTEiUlyklc1Bb2srjdcI/x2p1jqhvYoA6wAQMwAAMwAAMwAAO9ywDCHMJc1y5C2zmx5F4mo122tq/qHLddu7/rKnurPrz0oXcn8NHmtBP5WVAr8xBrR30szrUi6LWjXmVlMF4Zq2VccA8uYAAGYAAGYAAGYKC3GUCYQ5jrKqGoUxPKWApz3erl8svVX5M8+HjpQ29P4p0aM5TbXm4Yr+21N3xjbxiAARiAARiAARiAgXYxgDCHMIcwN8ZbWbvVy+XoseNJ59Dx0ge+cNr1hUM5w2eN8Tp828EdtoMBGIABGIABGIABGOhmBhDmEOYQ5n5jkurmSYq6wScMwAAMwAAMwAAMwAAMwAAMwEC/MoAwhzCHMIcwBwMwAAMwAAMwAAMwAAMwAAMwAAMwAAMdYABhDmGOgdeBgdevSj/t4lcsGIABGIABGIABGIABGIABGIABGGieAYQ5hDmEOYQ5GIABGIABGIABGIABGIABGIABGIABGOgAAwhzCHMMvA4MPH49aP7XA2yFrWAABmAABmAABmAABmAABmAABvqVAYQ5hDmEOYQ5GIABGIABGIABGIABGIABGIABGIABGOgAAwhzCHMMvA4MvH5V+mkXv2LBAAzAAAzAAAzAAAzAAAzAAAzAQPMMIMwhzCHMIczBAAzAAAzAAAzAAAzAAAzAAAzAAAzAQAcYQJhDmGPgdWDg8etB878eYCtsBQMwAAMwAAMwAAMwAAMwAAMw0K8MIMwhzCHMIczBAAzAAAzAAAzAAAzAAAzAAAzAAAzAQAcYQJhDmGPgdWDg9avST7v4FQsGYAAGYAAGYAAGYAAGYAAGYAAGmmcAYQ5hDmEOYQ4GYAAGYAAGYAAGYAAGYAAGYAAGYAAGOsAAwhzCHAOvAwOPXw+a//UAW2ErGIABGIABGIABGIABGIABGICBfmUAYQ5hDmEOYQ4GYAAGYAAGYAAGYAAGYAAGYAAGYAAGOsAAwhzCHAOvAwOvX5V+2sWvWDAAAzAAAzAAAzAAAzAAAzAAAzDQPAMIcwhzCHMIczAAAw0Grvz4U3rmmWfT2o8/adzjS7X5L1Vsha1gAAZgAAZgAAZgAAZgAAZaYQBhDmGOxTeiDAzAQIOB4Qpz585fSFOnTUvbd+xs5FX2ZbT0tdeT/sqe+Z5Ewao4KuexOXPSwUOHa/PQ86lTpw0Zz2US8s8TDMAADMAADMAADMAADMBAJxhAmEOYq13cdgJKymQyhIHOMTBcYU6CnIQ5CWd1/deMMGeRLxfnXLf8flV5eVnO93fXXJOq/jZt3lJb/6qyuN85ZrE9tocBGIABGIABGIABGOhlBhDmEOZYhHaZt9TlKz+muU/NK4QDbSmUGNHLk0wzdZeH1B133Il3UxtY/PmXq4WAViVMNXs/esa1IpjlYlkVH2Ueb0pbNybEUV39Y1rXebS27JaVfeNNN6UZM2amVavXpDNnzw0ax65Ds3W2rX786ef09dffpNmzH0sqQ+kV6vMnn65LFy9dLspSH+V5R/E0CpWvLFmSfrn666A6Kq8n586tnY+ambPc1li+29Otodolez46e3a67rrrCxvceeddadmyN4cUoNWmAwcOpkmT7mlKsB6uDcpYmDFzZjp/4eKgvhxuGaRjoQMDMAADMAADMAADY8sAwhzCHP+8t0EMaWUi2//DgXTLLbcmLQAV6nMr6XsxLsLc2E70rTBhAaUVwapMRKsqs06Y07NcSBrqcxQIVWeJb3u/3zdoG6ufqX2qWyt1rmpLvK/86+oq4Wz95xvS1V9/a4xn27ouXRQTVd7JU6cKoaiZNM0KcxMmTEi33X57+n7f/kbd3LbNW7aka6+9tlaYa2bOclt7SZir69NZs/5SKrbabqfPnE0SyNRPY9Vmib1PPPkP0TTyMFbluW2E3TNf0xf0BQzAAAzAAAz0BwMIcwhzgxZiDO7ODu73Vq0uvCw2fPFlIcytef+Dvu8jLYDxmOssdx73FlDUJ743VChBTWLAiZOnCmEsigR113mf14l2eR3s7RWFOcdRPrmgFZ9V1Ulpfvr5l6bb7TwVWsSJ9VFeh48cTUuXvlZ4XEng0rh2Otu6WSEleq/Ji23f/h+SPCCVn0LZ/6O1a9Pixa8M8LStGl+24YK/PV94xb28eHEjP+VpT7iFC19MUx56qNKmzcxZrbbVNupkuO6z9enN5cvT0WPHC7tIVD1y9FiaM+fxQnD7IvRlrOely1fSs/Pnp/nzn0svLFw4JsKcPOXUL2JZLEhoNguxLlx3x7xKP9APMAADMAADMAADdQwgzCHMNRaJdaD0+zMvXPfs3ZvefW9VIYxpwTP9kRlp567dA7xcTp8+Uyy65NHmBb62KymdFrK2lTxN5Imi0PccapuRPC60INYCK7///AsLi61I2tL66KOz04WLlxpxFNeL3L/+9Zm0Y+eu9NS8ecXCX9uttFiTJ8XxEyfSa6+/niZOnFjUc8qUh4q2uCyHWpxra5bjlbVFcW0jLQCdVqEX91EIcf1074cDB5PaI48h1e/ZZ+cn2dB5VHlJ6b7jELbvi8x9p/5uxu72ympWXKoT3+qe5XUxd1EIUxzXx2PTofmsKkPtHW1hLtb5uz17i3lFAtepf/JvWzdrO3ncqT0Se5Q25l93PdTYlU2+2bRpkNec5q57770v7f5uTyEu2YaxLM9lzc5ZzbY1ltFt11u3bS/6oWyM6DtAgpy85eQ1J9uORZt37f4u3XDDDUVZ8Xun22xFfdo3d2NrbA0DMAADMAADvcsAwhzCXNOLu34e6FpgyZtFQpoX8g4lKMXFv4Qpefr4eQwlilloO3vufJo27eFB4pvsWCXaebH1zabNRb+oXlp86X60vxf0sex4fc899zbOnor377vv/sL7w3nF7VYxnq61uIwLvqEW93HR7vqp7vrL845xtXDNn+uz7ruehKP/JVPHcVl/lPWJ+1nPmhUf1K9VfVv3LGegTJhzm2L+rqNFlFiG7plFX4+mx1yss7ytVq9ZU7Du8e26NWM71Uvi13C2tw81dmUTe+PZa05jXz8MvPX2iqS5THW0rWK7Wp2zmmlrzL8bryXM6fsi/9FFHmvL3lxeiHLacqy6y7aj3WaxpB9dhsNCN9qTOo3+/I5NsSkMwAAMwAAM9BYDCHMIc4ineavIAAAgAElEQVQf//QG00LruQUL0qHDRwoPOS2yvvhyYyFwaUFct2DXAlvbue66++5i65omQi2etKjNF08S7uQpJ4+5eEC3F1vRo0ZbqOTBpnz03BOsF/Sq86KXXirOndJzecn5XCN5+8nTRe1QmW8sW1aIAnH71cq/v1ssMJe/9XbjwHh58yx8cVERN26jHWpxHxftVfVTe7XFS+dZHTh4qNGeqrzdXsKx+2KR6JxvKc3tbS809VN8ps8SHbQ9M4oPih/FsZgmCmPxvq7rnuVxy4Q5p4886V5k03GUn+L5ma/rxnleh/hZ6SVQRhE/Pte1znD70803p7dXrCjs6HFSJYTqvuunsTN9+iPFmWLaKpnnXfc52iPGsw1lE92PXnMSnx6YPLkQ8h3PdXEew5mzIifOp5dC9Zm+J/RCiDh/a57VfKkfRfTSB7dJth3tNpsb5asXi+gHIH0X6E/XerNw/L5wXQjHbh7FttgWBmAABmAABmBgJAwgzCHMNRYQIwGp19NWLVz1lsKXXl5cnK8U36oo7xKdPySPEglp8qrTIlreYdqyZnv4UPQorPleFL0UX4KY8opvR7SIF8U6xfXCLF8o65nPe5Ko53oolBAmQUxt1Wct7nVwuNoQPeP0zHWJ+VfZqGzRXlc/eQvlAkZV3rH+XI/Nl537yuJMbmc/jywoju6/uGhRcbaVxKgoPqiPJfaViVRRGMvL0rM6karsWVkZytfec7Feuh/LF3dut67VxrEU5lwnl2nblrXL92z3snGW26/qc9X4cp6uj73mFiz4W8NbTgKP47kuLsfzRCtzVt4fzqsXQnvE6ceSKL7JRh9/8kkhun67dduAeVe2He02uz/MSB5KoFN9EOfGZs7sBVapI30PAzAAAzAAA73FAMIcwtyARcR4HcBVC1fZ48OP1g7wKNKZblVbWbVAikJBLqxpoSSRTgu7XDiTmKEFVUyv8uXhpvtx25QX9PlCWfGr2mJRQM8Vz4s7L8p1z3/OPy4oq/J1PrEuTh/vOW+1L7dTVd5OQ/ivvhkLW5iNnD2Vpb7J+yuvg9JFVpwuv6f74q2MuaGe5WWau7I6uz2qu+uvMC9D91wXXYvXsRTm7DEn8Vx18Tgps1Pe3nZ4zKlMec1pvolzlG2dj+fhzFnNtDVvezd8Vl+9unRpYZf444vqZvvkAln+ObffcNvl8mbOmpW+37evwayEw2+3bi3qqLMBjx0/0ZjTh1sW6cZ27sW+2BcGYAAGYAAGYEAMIMwhzPGPe42YpUESt6j63CV5yOm8KL0FUS9mkOBWJjgpvQQ1LXR1cHuZh4niWMDLF3Lxc9xO6wV92UJPAkPZ1sQoVqhML+4sTOie/5x/XERX5et8Yl2cPt5z3mV2qsrbaQj/1TdjZQv1QexvleO+0rO6chUvT2su8rR1wlxZGcq7jKOyuLqn8sriu1yHihuvnW4shTl5yUaR3eMkt11Z21SvsTxjzmXaa27FOysbHlfuy2jX4c5ZzbTVdemWUO3XmZtTp04bsAXf9bN94nxddh3t57TDCe3tXJWfvrNy7+3hlEOasZ93sTE2hgEYgAEYgAEYEAMIcwhztQvu8TJRaFFeJmZ54ew3o3oBtuTVpY1Fq21kEUOh7ymUp4vOk9OW0Q8//Kj0ZQ4+S65sMed70YPF9SpbmFW1JRfmvLh7/IknBr311QJizP/TdetKF3u2SYxbV78yO6nO+blz0YZct+cLS/1g4cT9JPFqKPsrrtPFuLofudCzKIblcT0GY37iVnnk+ev+Y3PmFAKz8jFzjz02p3Q7rNvh8h1fbVZ6hSpnrIS5/ft/KDyZ4tmSrkPetmiXeO23suYvZolxyq7VNts2PvfYtW3is3jteLEvhztnNdvWWH4nr/Wmbr00R9v+49ukm62TbDvabfYRC/ff/0Dx41Csi72ymU/bM2dG23ONzWEABmAABmAABobLAMIcwtyQi+7hwtVL6bRw1aHs8m7zwlyeI3opgjxc7D3i7WR6wYJetKA2Kv627TvSnDmPl27580JJ+eitr2Vnuqn8Og8HCRX2ulOZXtDHhbLtXbUIz4U5xffLH7R4VHt1T6Jc2csfdu7aXdRBb22U56DapRdl6CB01S3Wpa5+aovERoWus0Q/3fvgw4+Kl1X4PmH7v9zEj8XgoQQb908U0nyvKlSeeb7mxffz/PxcdYv5Kn4ueihtZFHxY5m+ttjkPBUqncd/LKeZa9stcq28JGAtW/Zmuu6664uzKOMZZG5X3oaq8jT/6KUD6p8n585N+/b/0Bgv2sYoD16dLaY2Km/no7qNtjCnPIczZzXbVte9k6HOEVUb9QbUaM9W6lTGaCvpq+LaE1vfO0eOHivmY/H29dffFH2dv5yiKh/ut3+OxebYHAZgAAZgAAZgIGcAYQ5hrrF4y+EYT5+9qLYgEUOJcKfPnC3sJDFKIl187mud6aPruDC3Df3CBz2X14vvK/T2WHlkVL1t8ey588Xb9izqeUGfCxDKr2oRXibMqV1+i6vb4TD3yomigOMo/P2NNxaiQ6xLXf1kH6WLdor2cd5a0EY7cT22X2BxDOilDhJyysScsn5QXzYruKhfVVbMR+ljWUPlpzz0Z85i2UobWVQ5jh/LjO3V8/hsONcxPzMcw4kTJ6bPN2wY4Gnr+sd4+XXeFonh2lKZx4ufnUa2iPd1HW1lcXKo9jue8x3JnJXXJ37OuRhOP4xmGtkl1i+/jsxWlas8os2r4rV6X1uJly59rbR+Yk1v1W01T+KP7RyLfbEvDMAADMAADMBAFQMIcwhz/PP+TzFLHnNaRE2Z8lCx2NHiRp4uWpTGAaQFkc7w0XN5iukA7i3fbk3btm0v0mkxHOPrWmnmP7egeOuqPNLicx8In7+lNcax190tt9yaJGJ5Qe+FcoyrxW3ZgrFMmFM6tU/tVHu08NSW2XffWzXoTa2Ke/zEyfTUvHlFu20fvZ1QC89Yl7r6WSyIdlL7Nm/5doDtV695f4CdYhu5Hp0vNTOhfi9jxoKMnsf+ze2vvmxGfDAXUYDxvSgOKb+y+qhc18n8OL3z1P28rsq7Kn+nz9PkbRzqs8rPhRudRTljxsy0avWaQfOI8nPZebr4uaxeEsY++XRd4T0nTzzF13iUcL9x41eNsStbxLx0HfvJtoy2KWun47kuI5mz8vrEz+7Dsjp04p7sEuuXX1cxGuuqPKLN47ORXut75bP1nzfmTfGmcwjzFwuNtBzSj858ix2xIwzAAAzAAAzAQBUDCHMIc4gfNV5mVQOn1fs+s+2VJUuSzgdqNT3xmcRHiwGJoBJYJDJYaGkm7yjiKW0UUSQAVYkPuWDVTJlDCVZ1eZSJUaqvxSeFZYKKBRRv6W7GJsRhXMIADMAADMAADMAADMAADIyUAYQ5hDlEojYIc9q+qrOKdu3+DnuHt7+OdAIjPV+COQNVHnMS8yQeWqDL0+mznn340VrGKGMUBmAABmAABmAABmAABmCgbQwgzCHMtQ22soVwt9yTV0+ZF81o1M/nMfl8uNHIkzwQpGAABmAABmAABmAABmAABmAABmCg9xlAmEOYQ5gbY485ecnJWy5/6QMTaO9PoPQhfQgDMAADMAADMAADMAADMAADMDASBhDmEOYQ5nDRhQEYgAEYgAEYgAEYgAEYgAEYgAEYgIEOMIAwhzDHwOvAwBuJmk5afo2BARiAARiAARiAARiAARiAARiAgf5gAGEOYQ5hDmEOBmAABmAABmAABmAABmAABmAABmAABjrAAMIcwhwDrwMDj182+uOXDfqRfoQBGIABGIABGIABGIABGIABGBgJAwhzCHMIcwhzMAADMAADMAADMAADMAADMAADMAADMNABBhDmEOYYeB0YeCNR00nLrzEwAAMwAAMwAAMwAAMwAAMwAAMw0B8MIMwhzCHMIczBAAzAAAzAAAzAAAzAAAzAAAzAAAzAQAcYQJhDmGPgdWDg8ctGf/yyQT/SjzAAAzAAAzAAAzAAAzAAAzAAAyNhAGEOYQ5hDmEOBmAABmAABmAABmAABmAABmAABmAABjrAAMIcwhwDrwMDbyRqOmn5NQYGYAAGYAAGYAAGYAAGYAAGYAAG+oMBhDmEOYQ5hDkYgAEYgAEYgAEYgAEYgAEYgAEYgAEY6AADCHMIcwy8Dgw8ftnoj1826Ef6EQZgAAZgAAZgAAZgAAZgAAZgYCQMIMwhzCHMIczBAAzAAAzAAAzAAAzAAAzAAAzAAAzAQAcYQJhDmGPgdWDgjURNJy2/xsAADMAADMAADMAADMAADMAADMBAfzCAMIcwhzCHMAcDMNBg4MqPP6Vnnnk2rf34k8Y9vvD74wuffqQfYQAGYAAGYAAGYAAGYKD7GECYQ5hj8Y0oAwMw0GBguMLcufMX0tRp09L2HTsbeZV96S997fWkv7JnrdxTOSpP5ebplP9Q9cjT8Ln7/kGhT+gTGIABGIABGIABGICB8cAAwhzC3KBF7XgAnzYywcNAOQPDFebqhLJo67EW5lT/DV98mX53zTUNAVB10+eh/kZDMIxt5bqcMeyCXWAABmAABmAABmAABmDgXwwgzCHMIcx12FtKYsBQgoGfa3uhPZOqvIWY4P41wWGLwbb4+ZerhaeZmRpuGD3SLOY1I2yVCXMHDx1Od9xx56BxoC21yrusH4cSAjVOHpszJynvsvT5vbJ65XHqPmts5ra88aab0owZM9Oq1WvSmbPnauvxy9Vf0ytLlhR5TJv2cDp77nwjfpV98vL02fNCM2Kk4rQ6/5Tl6zJlHz+/9tpr0+YtWxptiLb7ft/+dMsttxZtjVumPbeVtcv3mmEslsX14DkAm2ATGIABGIABGIABGOguBhDmEOZKF04M1PYN1FYXxl68xsUw/dW+/up3W1tki4LJUG2WcDR16rSmRLAyAawsvcpvVZjz2JA4NFSd8+dl9crj1H0uE+YsJimUSLf+8w3p6q+/ldbt1OkzacpDD6U777wr5aJWLwpzN9xwQ3py7tx08dLlAe2NAqTsEjlz/0W75dcIc8x1deOQZ/ABAzAAAzAAAzDQiwwgzCHMDVg09SLE/VZnL07rRIl+azPt6Z4v0OEIcxJLJBSfOHmqENNyMaXqs7zkJDrVCXPyNqtKH+9L4PHY6aQwF8v+6edf0uEjR9PSpa+l6667vhDctM22jPdvNm1OErM+37ChEOjkPScRqyyu7lkIjOXFuLov+0ThKz6vurYNh5p/lK/7L+blcle8szLddvvt6ZtNmwa0Yf8PB9Jdd9+dli17c1D9mi07lsd198wd9AV9AQMwAAMwAAMwAAPDYwBhDmFuwKJpvA4kLzL37N2b3n1vVZo06Z5i0Tj9kRlp567dA7xcTp8+k56dP7/wbLEwoPhKd/nKjw17ahvXhAkTSrdznb9wMc2a9Ze04G/Ppx9/+rmRRvYfanFq4SQunJ1myatL05Zvt6aZs2YVIoC8dN5cvjxdunwlHThwMD3/wsLCc0ceOY/Onp0OHT4yoGyVf+HipfTW2ysa7Zs4cWJ6Z+XKyi2F45WZfm23+WpW0LEQ06wHZ5lnWp0wp/qU2Vrl5mV6HOiZ0vizx2keRu+rsnqVlVt1T/ZS/i47j/fdnr3FvCKvOHnHxeeaAzQXPPro7KLOEuXuvfe+dOz4iQHxYpqhynO/NNuPzts2i/OLn8VQ+dYJc99u3ZZeXrx4gNecveXU1s1bvkWY6/AxCrE/uR7eP9HYDbvBAAzAAAzAAAyMBgMIcwhzlQu/0QCsV/LQIlNilYS0fPEucSsutuu2lS1c+GJDaNMZUTorqkx8qxPthloYWziJC2enyevuz5MnP1i0z58dSpyTSOh+On3mbJoxc+YgGyj+cwsWIM710UK6jmPzkYdRyBIzZlHxcpHMTOVhmQA21sJcHL+uT16P/LPjNRsOJZRpC+vqNf/w/pN3XMz36LHjhWj33qrVxX3VV/ORtr7GePF6qPI6LcypfJ0lF73m7C23a/d3jbPo1A63y/NYnNv8jJB/emEABmAABmAABmAABvqVAYQ5hLnGoqhfIW+mXRbmJD7Ji0yLaB2S/8WXGwsPM3maaVtaVV4SKLSo1hYtbV1TPOUhzzMdcq4FqdPaO0Yec1EU8/OhFqcWQ+Li1Wm0Xe7tFSuKfFW+Fsb2/tN5T26bPOjk9aetc/LkUdn2ZpEQuXbtxw3vP50Rtfyttws7aEHtehL2xxejBJQyz6fYv1Uij8aNBDltz4zCnOLnIp7zKxPAqkRCM65y8vxURixT+Xsc6FnZZ9dBYV6P/HOM28y16iiB0mWXpdF4/NPNNxdjND5X2jhP1HnUOt1Q5akeubCafy6rq21o27u8PFT5Zdy4XIWaQ+01pza9sWxZ44cKx1M+zttl5/WMn3MOnJawP+Yj+pF+hAEYgAEYgAEYGI8MIMwhzDUWReNxALjNVYtMiVUvvby4OPMpvlVRYtW6z9anuU/NK55JzNLiMQpdyluCnBbcEugklMV7a97/oNT2XpxWLYzrhLl80er6a2urtqi6vQq3bts+QEg4eep0kmddrKvjq+3agifRz/cI++NL0zzl7Lh//TznUfdfXLSoOB9OIksUyeQRJtFG952PwzIBbCiPubL88jKVv8eOy/XnKOzE69jmsnq5zs2EQwllysMCZCxX2981j+jPW+GrRP1Yj6HKkw1iW8uubaeYr22W93eMo+uqOdPlOm97zb311tvpnnvuTRb3HU/5OG+XXVZX34u2czrC/piL6Ef6EQZgAAZgAAZgYLwygDCHMNdYFI3XQaB2Vy0y9ezDj9YO8AzZsXNX8dkLxTz0glRp7R3nc6W84JYXm7avldnci9OqhXGZUOI0ZYtW3Yuiicv0wtj1tWiQtyd+Lsvf+RH27hep+94sxL4cSgBSXKXLGVO6/J7iiqGco6GEOaXL8ysr0+PA7cg/x3bl9cg/x7jNXDdjJ3vMecuq8vU9pY/lyJNVQn+VgD9UebKBxm6ebyyj7No2q5p/nEb5DuUx9/+zd+7fUhRn2/7+zDc/upZZLteXvHlDYmISjwTlVSAqSZSoiIoYNGgAJYiIB0RU0Bg5eVZQlPNBAcFjfd/d5p48u3Z1T8/s2Xtm9lw/zKru6qqnTldVV91d3aOw3jWnvMTX+kv5a5u284A7vmMObUfbwQAMwAAMwAAMwMB/GECYQ5ibshic1M5Rt8hUfcRXVL27RTvk9L0o/QuldqJJcPNC06KA61Lfk/P3ovTRd4l0Tf+42G1xijD3nwHMdYw78zpRH8iFNDPdTdxRuDyuOc7jlgSwNsKcuXf/akrTYZwHn0dO8nzk5zFsm2OVU+JTKS3Hl8imsUBjgvws1EfxOz/WH0Lku10Vt1t6yods5fXvvNS5rrNBCXNKR+KjHka89/4HnftNKX9t067LO/4zHweoQ+oQBmAABmAABmAABuaeAYQ5hLnOQmmSO6AWr6XdHxYDvDj2wlH/fqpFdawzLzTzhbm/F6VX1Z5//oVqF4xf54rxfew06hbGzlO87jgSF2zHrvxy0UTX8vz6Vda4m8c2cOd+cB5GnasfmBXzUWIqz5vCOl68Jv/Iqa6VBLA2wly0q+NSmu4HuqYw+Xm0kecjP49h2xx3E8oOHfq4EqfityU9NuRiXDzXrrnSeNEtPdXBqAhzpfor5c/tlTNTio/fZIxJtDPtDAMwAAMwAAMwMAkMIMwhzE0TciYB/LyMWuTqo+zayeI/efCfHmiHy6Z/bK6EOC2kb7nl1uqfS4+fOFHVncIfeOvttHz5H4s7ZrwrRnb0r6/xW1J5PnTebXE6W8Kc//xhwYIF1Z8/eJeO8i/R7oXt29Pu3a/Byzz6Z9YSfxZ8JOq0EeVkoySSlWzLrySAzbYwF4WueBzLV8pXXRlK/q43i4IKo7FBr6yvX78h6Y9ZtNN23/4DnT6ksBoX6vqV6kUPDErffSylF/NVEr7i9brjbuOP4yn90sMMpxvrwXGi63CyY/+2aTs8LhN1GIABGIABGIABGICB+cAAwhzCXGdRNB+A7rcMXuTGRbuPlyxdmk6fOVvVk0QqiXS+Ft3rrru+KMwpT/4TCIV/5dVdjXXebXE6W8Kc8qlyqryxXPE4LqL7rWvijebNM/YB/amDRJeS8FJqP4kspR1zpbASwHKOLEBF1nTctHOqlKb7jkWh/LyUH/sNSpjLy+BzCd6v7trV2WlrIVx/uCLh2/mIrvu6v1EZr7m9XNZ4Tcfyd9p1bimu66yu7kt2Y9v7esl2zKPDRRacdl1+5R/F1GiP49EcV2gX2gUGYAAGYAAGYAAGujOAMIcwV1wQTlrn0eJQO+a06Fu06KZqQauFtHa6aLEY60N/6KDXPXVdu130j6d79+1PB7J/Oc3jrLxvVfV9OX1nLl7Lj704rVsYe7EerztOadEqv7hwdnpeGOcLaH1Hb8vTW9ONCxdW9eAy7nhpZ9IuQsfH7T7AjnodRUGsJMKZKwkikbe8XGKoxFgezuxGMUZh+tkxJxt5ms5vznSej9K5+kmp/5TClvyUn1xQ0g65JUuWpq3PbJs2jvjV8abvTSodCfnqg/4undN2enVllX+en/y8FNd1WNfeJbuxHXy9ZNt5l+twkQWnneczns+kjWL6HI//+EUb0oYwAAMwAAMwAAPzhQGEOYQ5hJYu/8o6iM7e5k8fBpEONrg5dWNAuz4lukjsqBNfSjaiiKe4UVCRyBLFmRjfApLFlV7SjHYs5NiO3Fz8sbCT+0c7dcczFebq7OJPn4QBGIABGIABGIABGIABGGhiAGEOYQ5hbg6EOe16qfuIe1MH5RoDOAy0Z6AXYS4XDOuEReq/ff1TV9QVDMAADMAADMAADMAADPTOAMIcwhzC3CwLc3o1VH/40O1PHxjAeh/AqDPqDAZgAAZgAAZgAAZgAAZgAAZgYJwZQJhDmEOYm2Vh7t333q92y3X704dxHkjIOzdCGIABGIABGIABGIABGIABGIABGOidAYQ5hDmEue977zgMNtQZDMAADMAADMAADMAADMAADMAADMDATBlAmEOYQ5hDmIMBGIABGIABGIABGIABGIABGIABGICBITCAMIcwR8cbQsebqaJOfJ7KwAAMwAAMwAAMwAAMwAAMwAAMwMD4M4AwhzCHMIcwBwMwAAMwAAMwAAMwAAMwAAMwAAMwAANDYABhDmGOjjeEjsdTjfF/qkEb0oYwAAMwAAMwAAMwAAMwAAMwAAMzZQBhDmEOYQ5hDgZgAAZgAAZgAAZgAAZgAAZgAAZgAAaGwADCHMIcHW8IHW+mijrxeSoDAzAAAzAAAzAAAzAAAzAAAzAAA+PPAMIcwhzCHMIcDMAADMAADMAADMAADMAADMAADMAADAyBAYQ5hDk63hA6Hk81xv+pBm1IG8IADMAADMAADMAADMAADMAADMyUAYQ5hDmEOYQ5GIABGIABGIABGIABGIABGIABGIABGBgCAwhzCHN0vCF0vJkq6sTnqQwMwAAMwAAMwAAMwAAMwAAMwAAMjD8DCHMIcwhzCHMwAAMwAAMwAAMwAAMwAAMwAAMwAAMwMAQGEOYQ5uh4Q+h4PNUY/6catCFtCAMwAAMwAAMwAAMwAAMwAAMwMFMGEOYQ5hDmEOZgAAZgAAZgAAZgAAZgAAZgAAZgAAZgYAgMIMwhzNHxhtDxZqqoE5+nMjAAAzAAAzAAAzAAAzAAAzAAAzAw/gwgzCHMIcwhzMEADHQYuHjpq3TPPfem7S/u6Phxsx//mz1tSBvCAAzAAAzAAAzAAAzAwGgygDCHMMfiG1EGBmCgw0C/wtznX5xLNy9enN56+52OrdKNf91jjyf9Stfk12RHYqFEQ+WxLn6Tv9JFcBzNyUhTu3GNNoMBGIABGIABGIABGJjPDCDMIcz1tcCdz52CsjHoTzID/QpzEuQkzElYa6q/QQlzvYps/ZarqSxcY6yAARiAARiAARiAARiAARiYKQMIcwhzjYvomQI2n+J7J0/Tbp825ZWA8V8/+lHXnUVtbBGGm0CvDHz9zbeVgCYGZ/KLO+MserXpG4MQ5k6cPJWe2batyn/bHXTuv7O1Y052f/3rq9PhTz+bNqaqzHPV52eaFuMTY0ocU7797vv00cGD6a4VK9Lll/84XXbZZWnpsmVp3/4DSddiWI5hBwZgAAZgAAZgAAb6YwBhDmGOiXXL1xi9sG8jPjQNSCx8+xusmuqUa4OrU4tsvQhYEqNuvnlxUZTK26YkzKlPWNRyP4vCn20oT1GIy8MqH7LTr+CoHX/nL3zZ15iIMDc4Bt3euMOvU/XDn/z0p9P6lES63a+93ldfoV2H3660AW0AAzAAAzAAA6PFAMIcwhwTa4Q5GGjJwCTcwPoR5iS2SdTSTjYJZ22FsVyMk51cbIt1ngtz8Vq34yqPNy9Odyxf3vV12262StebhLlS+FH148HBaE3ShsnJlxcvpTvvWlEJcxLhtNtWu+QOHHirEsCXLftD+uLcee4f3D9gAAZgAAZgAAZgYIYMIMwhzNGJvk/p0ldfp5dfeTUtWnRTJSpoN8Cf/nxn2rd/f7UYqduJY2Hhq6+/SVu2PJ1uuOHG6lUfCRPaZfDAg6vT0WPHO3WsxXtJtPAuoLrFvcUKh/Ni7czZz9P69RvSggULKrty1z7yaDpy9BivGc1wcHQdT5rbqzBnIafN9+VUl6Udc/I3+7InW7t2v9b6lVv3w7q2kk2H6WV3X5293F9lKvVr+ceyKW3HdXk/+PDDtOXpremaa66tbGgMevvtdzr999DHn6Rf/OKXaduzz3Xi2obGrVX3P5CiQGK7TsvtqbHj408OV2OSxiaNcffeuzKdPn2mY1dxS+XIxx2njzu/RTzf9x559NH0zbffdTiROPfEk5vSlVdemd7/4MOOPzzMbx5oX9oXBmAABmAABmaPAYQ5hLmJn1RrwbFh4xPFBWlczOs4X7T6uhe/+XWdX4stlSQAACAASURBVH/9DR1xrtvCN19Ue/ArCXMS5bQgL6XJQnr2Bk23ybi7XnSX+Knzs9DkskfuZyrMmfEnN22qBDmJaU7HrtJvm47jRFHOfk4rL4+v9+rKTqnObL/Ur+Wn73X9989+Ni2uxxXlw3UcxTfnryTa5Wk5vkQU/fJ8xrFCcfPrOo9hnDbu/B9j1HfU/i/t3DmtLzZdg435zwZtTBvDAAzAAAzAwGAZQJhDmJs24Z60Tnby1Om0cOHv0+rVDyW9uqPyawfcRwcPpb+uXZs+/exI5dfrYl67Ct5+591qp05c2HhBIzev63xR7etOOy6Q//XmnmrRpJ1FesVIYc+dv5D++cYb1a4kLcgdH3ewA+d8qk9xGIWgUtnMrPiM13Ued7eJU11XeItSMbyO5V93TdfNet4/LDB1y6vTc3jlT2KfBIY8/y5X7FeO36tb13dlp3RNfsrTLbcuSe+9/0HVh9WPn39heyXYyXUeXnl1V+W3Z+/ejp93LWmnXb4rN9aR60Ei4JqHH04nT52qduPpFcR7V65MV/3qV+mTw5927LpO8vp3XnAnZywxoyUWtFNOQq/CwMTkMEFb09YwAAMwAAMwMDsMIMwhzE38pFo7zxbddFP1LR0d1w02FgzqRAUtqrWAefiva6sP4V999W+qhbcW3xIGbLdp4VtawCue044Cwv4Db1X2tz6zrXoV1/ZxZ2ewnK/1auGmjmtfj+ypLuT/0Jo11R8+iOm4k02iscSh0oK+X2HOfaAksMW2cX4VLqbv+CUhwbsHlefjJ052+mq02+24ru8qXulayU9h/aAgtsep02eqMUqvrer1VYWzX/6aYW7X9ZG3n2xY3I/1pOO87hSW3+TVgViqY8F9RmFgY/LYoM1pcxiAARiAARgYLAMIcwhzEz+p1s6TF3f88FqZdpXoO3ES1/R9OS1qPeh4YR8XzL4mQU/fpNMipvSLcZoWvvmi2vaddlxca3ffypX3Venpm1FLlixNmzb9I33yyeHO96kcH3ewA+d8q08vsqNA4zI2Lc4dRvGiMCd/xcv95N8kzFlEKokByqP++VVCdOwHzoNtx91i8dpsH9f1XaVbulbyU1j39ThmeHecvjWn11cVTrvotGPp3ffe74xRpbRcp6U6K41FJT/Z5Td5dSBGS31RLLBjbvJ4YAygzWEABmAABmBg9hhAmEOYY8H1faqELO2U0QfW9S90/jOFO+5YnryLrrRg9uCkeFrA6M8eDh36uPqnOu2gK8VpWvh2W6zni2ulodfgNmzcWL0Spw+6S1zUh7njx7qdT9zZG0zHvW7FXi6kmVVdayqfwuVxzX4et06Ys4DkP32QzZim7Ih//fOr/llVQl283u1Y8aPY5fDKp+zKtV8/ruzXiYKlayU/pet6y/Pq78mpb1/48mI1Tmms8uv3znNu1/Wajx0K7/aNdV3ys23cyRo/zMLu3a9N6xvesR0/0wAfk8UH7U17wwAMwAAMwMDgGECYQ5ibNuGmg/0g1D3//AuV2OZFiRfMj/5t3bQdaVpE63VYi3iuQ8eJi2wvdrSwcTi7WuRoF0z+T3e2U1pcO65cLdj/cvfd6brrrk/Hjp+YZj+G5XhwA+l8qUuJOhbYzGlkt66cCut4MYz8c2ZlL7dpvhU+HtuW/ZQ/+ZVslMLGfEnIU17yfMq2XsnN/W2vrau85d9rc9xcLJN/yU/+LmteR/4HVo0zr+76Ybecds05Dbu53X6FudL45DRwJ2Ps8E7a/HVp7+As3atgYzLYoJ1pZxiAARiAARgYLAMIcwhz0xZ2k9bJ9OcO+pMH/dmD/vRB5ddOtDf+9WYlklmY08fSb7nl1uqXi15/X78+6XXSN/fsrUQ7LVyOHD2W1q17LGkXW1xkv/Pue9WuNl3TojnWt68pP9oJIzvK332rVlVxosjx8iuvps2bn6q+SaVwsqM4soswN9iBMrbRfD+WsOPXsSO3TeWOAlhTOF3LRTULR0pX1y1MyaZt6VoUzvxaa2nXXAxbypfSV5g8XfkrjfMXvuyk6/TbuBLVVW/PPf9C589YHE/p5bvpSn4K7/KX6l5CnNKQICKBTt+Zcxp2c7suZxw7HFb1I3uxrj0GlcYnx8OdjPFF9xPtytS9bfdrr3f+oGTf/gMVz6V/CoaNyWCDdqadYQAGYAAGYGCwDCDMIcxNW9hNWifzrgCLEdHVwsO74PRqqHYOxOtebOt1Ui1e4jUd67r84yLbH22PYb1olvh32+23T7Pzf3/yk0rgczi1kRbg0UY83rDxCV5l5btYPfXtyJN2kIld891tTCgJYHVxLIzVXbcwZbEoP3c82Yn9Qf4Oq7LovClfDut0LGBJXHcavbh+1TT2Q/f7XCyT3ZKf/J0vx415iGOHXmm1IB/D5HZdrryuFEdlV35dB/KLabgspbgxTY4HOzEbpfoUG6V7mz6ZoNfORymv5GX+ckjb0rYwAAMwAAPznQGEOYS5iZ9Ya3ec/ujhzjvv6ixA9I+q69dv6IhyHgi0aF679pEqnBYmt912e/Uvjlogv/32O2nRopuqhe4111ybtjy9NR0/caLahZMvsj/86GAlwMmGhTvv1tO37u5asaLaIadv3Skf+kMH7eaJC2Tt7NG37RYv/t8qrGzpWDvp/M+NzjcuN7MSA1GULolwFokk0ET2cltavMcdbfl1n1sksnBm/+g6Tdl0+Lz/KLzDRVsKF/MhG6VyKX7TrruYn7bHGgP27N3XGQPUd5/Z9mw1vuZimWyW/OTvcpXKrDT0Pcn4JxB5/nK7rsNS+6l+cmFO9prGpzw9zuf32CLmPvjww7R8+R+rh0O6zyxdtixp15yu0f7zu/1pX9oXBmAABmAABuaGAYQ5hDkm1uysgoEJYkCLaYk03cS2/CYcRTzFjYJYkzCncArvX0kgimlZmPrXm3uqfDaFd55iXqIti1JOO3dL4leMP2rHfrWw9KcPo5ZX8jM3kzjqmXqGARiAARiAARiAgfFnAGEOYQ5RZoJEGQbt8R+053sbWpiTiBZ3v9WVu27XV134cfZ/9733q+/Llf70YZzLRd4Zl2AABmAABmAABmAABiaZAYQ5hDmEOYQ5GIABGBhxBvyNy7o/fZjkiQxlZyIPAzAAAzAAAzAAAzAwzgwgzCHMsSAf8QX5OA8w5J0bJAwMhoGjx44nfbuy7k8fqOfB1DP1SD3CAAzAAAzAAAzAAAzMNQMIcwhzCHMIczAAAzAAAzAAAzAAAzAAAzAAAzAAAzAwBAYQ5hDm6HhD6HhzrcCTHk99YAAGYAAGYAAGYAAGYAAGYAAGYGD0GECYQ5hDmEOYgwEYgAEYgAEYgAEYgAEYgAEYgAEYgIEhMIAwhzBHxxtCx+Mpxeg9paBNaBMYgAEYgAEYgAEYgAEYgAEYgIG5ZgBhDmEOYQ5hDgZgAAZgAAZgAAZgAAZgAAZgAAZgAAaGwADCHMIcHW8IHW+uFXjS46kPDMAADMAADMAADMAADMAADMAADIweAwhzCHMIcwhzMAADMAADMAADMAADMAADMAADMAADMDAEBhDmEOboeEPoeDylGL2nFLQJbQIDMAADMAADMAADMAADMAADMDDXDCDMIcwhzCHMwQAMwAAMwAAMwAAMwAAMwAAMwAAMwMAQGECYQ5ij4w2h4821Ak96PPWBARiAARiAARiAARiAARiAARiAgdFjAGEOYQ5hDmEOBmAABmAABmAABmAABmAABmAABmAABobAAMIcwhwdbwgdj6cUo/eUgjahTWAABmAABmAABmAABmAABmAABuaaAYQ5hDmEOYQ5GIABGIABGIABGIABGIABGIABGIABGBgCAwhzCHN0vCF0vLlW4EmPpz4wAAMwAAMwAAMwAAMwAAMwAAMwMHoMIMwhzCHMIczBAAzAAAzAAAzAAAzAAAzAAAzAAAzAwBAYQJhDmKPjDaHj8ZRi9J5S0CY/tMlbb7+Tfv3rq9PhTz8bibHh8y/OpZsXL07K12y10VykMVt5xy5jCQzAAAzAAAzAAAzAAAyMNwMIcwhzs7bYZXAY78GB9pvM9rNIte6xx1uPDQr7Xz/6UU+/ktAmv3vuuTddvPRVJ23nJw8v/zuWL58iIDpsU14sOm5/cUcnLcfL06APTGYfoN1pdxiAARiAARiAARiAgblkAGEOYa6zAJ5L8EjrPwNdL6KGxATq7j91R13MTl2IM+1Sk2DVpo7FcFshr0kE27X7tSpdCWtmvRTefeahNWuKeczj5Ocq06CFOdmz6JfXmfM7F8LfTNNSHlX/c5HXvJ44n53+PKh6/ejgoXTjwoVTxPBB2cbOaLc97UP7wAAMwAAMwMDsMoAwhzDXauFNR5y9juiFdNMuH1+zWEF7zF57TELd9sKc2cvdKNzInn5t6q4kkuXxxLmFwTy80q0TwGwnj5OfKxzCXLkPIcyV68VsTaL77Xffp+MnTqa7776na9+bxPqhzPQZGIABGIABGICBmTKAMIcw12oxPVPQiN9+sLKIkL/SRx22r0Pqam7rqh+hLwp7Te3l/tA2vGzlcfJzhZlLYa6pfKN2DWFubvvOqLV/nh99a1JCuIX5bqJ4Hp9zeIIBGIABGIABGICB7gwgzCHMIcz9e5GuBccHH36Ytjy9NV1zzbXVQuSWW5ekd959L2nHgAeU06fPpHtXrkxXX/2bzmJF4RXvy4uXOuH27N2brrjiiiTXce1+ce58WrbsD2nV/Q+kS199PeW6RYQozH3z7XfpkUcfTYtuuimdOn1mSnjZfPe999OVV16ZXnl1V3XNNtateyx9dPBgumvFinT55T9OP/npT9OGjRvThS8vTrOhBdjd99xThdEibNGim9KevfumlN35x+0+uI5THembbnottPSHDxLduoliM90xJ5HMC/9+XO+uaysQqm9tfWbbwL4xV5eu/MWBypcLGvbLxxz1u7fffqfT7w59/En6xS9+mbY9+9y0PquxQ2OIxhKNKaW01LYqr34ff3I4PfDg6qqPazy4996VSeOZWa1rhzgWOSzu/BoD6toTYW4y2rmu/fGn/WEABmAABmBgbhhAmEOY6yzKJrnTaUF62WWXVUJaLgxIzIrCRL5QieFXr36oI7Sd/fyLtHjx/xbFtybRzqJavhhWHpRHi29ur5JoZxsSBhUn5lHH961aNeUD+/v2H+gIcjGs4u54aSeMzON/7rVwI+HoX2/umdLWuibudM0ik7mLrq41XY9hzWbsU/F6PJbNJzdt6vlfWdVHb755cUdoLKWpPu8+Vroe89HtWPmM/cbHrhOLcFH49Jjz3z/72bS4UcRz+0TxzfkpiXZ5Wo4v4V4/582u60A2Fdf+0Y1hnDbu3EzSRqmec7ZGKW/kZfJ4pM1pcxiAARiAgfnEAMIcwtyUhfh8gruXsniRLMHq08+OVLtVvv7m27T7tdcrwUq7TL76+pvautLi9+mtz6Tf/Pa36bMjR6tw2mX3xJObqt0uWkA7P6VdLr4m1yJBvhj2Lrs771oxZWfe0WPHqx1+Sss7+2zjd7+7Ju18+ZVOeO2203eCtEB//4MPqzzJTzvxJGS89/4HSeWWnSNHj6Xly/84ZTdOzCfH438zNCc5a7Ft1TfEhsSiunB1wlQUd/LjJmHO9hTGebzjjuWVaFSXh5hnxY/hbKMuzW7Xo+264ybRonRNfqoT7cp1v1Pfe/6F7ZWYLtdpSYyXSB5333p80W5djQEOm6dlYU7x1zz8cDp56lTVvzWeaOfvVb/6Vfrk8Ked+Koj5auurpwO7vj3/17bMGer1/iEnzxmaHPaHAZgAAZgAAbaMYAwhzDXWZBNcqepW3BoN9rDf11bCVdnzn7eqavzF76sBC+JZBK1tKtOi9koeKk+vaMlimb2K72apjgWCaKw4LZRHKWhV1ejn151i+KfbXjHjsPK1T/r/c/Pf14JADrXLqncpsPvP/DWtDL5Gm67QXZU68k7P8WIeBFvcmN+Ler4mly/NhrD+Vi2mq4rnNnMhR/nR/1I/dE2HV5+sq/r8ZczXurLtpGn6TScdt11h2tyS+k6fOlayU/hT546nRYu/P2UHYgWz+Or7/bTK+4ap+rSim2oY4eTq76vuozl1nHuF+NwPN79fibtV8fsTGwSd3J5ou1pexiAARiAARj4DwMIcwhzUxZqk9o5mhYc2rkSXy17+513q/MoDsTjuMj17jh/G65ul0usd4sIJWHOu+O8GPcuurhgly3byEULXZPAqPz4msoe8186jmWKeeX4P4PpONWF+VDbK98nTp5KdyxfPkUQk7/aPbJvkcfsxDKbo9K1GC4/tk1x1ytnFtScR5+3seM6MO+l/pbntem8aQwpXSv5yb7zFevR40YU4LWLriSo53Zdv6XyqZ7yei/5NZWba+M5BvTTbjlb/dggzuTwQlvT1jAAAzAAAzDQngGEOYQ5hLmaj7N7IImvqOrPHbRLTjvkntm2rRI0zp2/UL0aVreg1etneo1MC+m6XS5OS64X5qWFtL8n59fX6r5VZxtxce80vCPn7+vXV22vxZbFiTq3jdBh+7jtB+BRqiu1sQUu5atJ0Mnz3YahnK2YVm4vnpvlmTLo8iiv0f6gjptEi9K1kp/y4vLmfdc7bbX7Vn/eonEof61d8XO7LndpPCmNWSW/QdURdsZzbHC75WzZH3e825X2o/1gAAZgAAZgYPgMIMwhzM3KInXcOnfdgsOL2ttuuz1JgPOi+dG/ret8z81lrVvQelebFtHPP/9CcZeLbch1GqWFtK77H1if2rJl2j8y2o5t5It7Xffrqbt3v1a1vV5n06utesXV8XGHPzgPow3UD/wqqnhuI56JMYlukTXtXGv68wXxqR16CqdyKt1cuOvlPObTu+Z6ia+wLne/9a4y5N9rs63S+FLyU/i6vht3376664fdcvkfwbguY314DCuNJ6Uxy34aJ5x/3MkcD/J2r2M2D8c5vMAADMAADMAADMBAbwwgzCHMsfj6tzAgcUo70PwnD/qO3MYnnqx2u236x+bOB9NvueXWtGTp0nT8xImq7hT+wFtvV3+UoAW+FrZxIPJraNo1p39JLe1yieG9MC8tpBXOQp//cbX0rTrb0J9Z6Fh50E8fmZdgcv31N3Q+GO9dfPoIvUQ/l1/uoUMfV39g4T+0iPnkuLfBdlzqy0KbWNZCvCnfCpsLWhaColAnO5HnXLjrlsYghDPnq1uZmvLSdO2lnTsrcfG551+o/kAlhi0JGiU/xXHfjfVnWxLiVBd6hdWvx/ua3dyuyx3r32EtwsUx651336vGvHXrHpvyz82Ogzs/+32bds3ZahOHMJPLC21P28MADMAADMBAewYQ5hDmGhfek9KZtODQgrf0kwh3+szZqp4kbkmkK4W77rrrK/+4yHX9+TU0xSvtcnE4uV6YlxbSDicxTrb8Sqv97dpGKZ8SCF/csWPKjr99+w90/sAijxN339g+bvtBdpzqKnKTC25ty5GLdbapPmYbbYW5KBzJbkmsss1urgWqmI9ucXq5Hvu4+5DzWxI0Sn5Kz/XluDEPFtFlP/6hTAyT23W5S+NJrF/biGm4HKW4Do87P8cCt2vTDlS4mN9tbwZwaWcYgAEYgAEYmH0GEOYQ5jqL5UnucFrMasecFsOLFt1UiV4LFixI69dvqBbKsW70Spm+O6frErmWLluW9u7bnw4ceKtWmFOclfetqt3lEu17Yd606NEOtt/89rfJfwIR4+vYNv705zvTAw+urkQ351UinATGPI7+WOLB1aurcmlBru/orVp1f7UD8Otvvp0WPo/P+ewP2LNVxxZv1O4W5CzalASiUj7MnOM7jOLnLGuxr1dZFcfhcteCgNN3Hn2eh+927vjq693C9nNdfWrP3n1Txo9ntj1bpZWLZbJf8pO/67FUTqWxYePGFP8EIs9rbtflzttA8dzGcqOdDz86mG67/fZqfNM4oLx4J20Mx/H49vm2bed+aJE2uiWm2tol3PxnhzamjWEABmAABmCgPQMIcwhzUxZkk9p58sXsoOvBu1DqhLRe06v70wfbaVrcOwxu+4FyvtaVhRkttusW2Q7TtHNSwo1sRDGpmyCUC3ixjtUfc3u6bpt1eXE+onjQ6/Gbe/aO7JjoP5/p9jp8rEuO6ecwAAMwAAMwAAMwAAMwMNoMIMwhzI3sInQuB4/ZFub0+qq+C6VvuM20XP4I/LJlf6i+N1eyhzA32gNvqc3m0s/CV5M4lufHopiELgtj3k2Ti3r2j0Kd7dlOfs3+0b7j5K7FQoXNd3vlYefTuf/4pdvr8POpzJSFsQwGYAAGYAAGYAAGYGC+M4AwhzA3Y6FoPnSS2RTmBr3Lxd+yKv3pg9sCYY6bl1mYazfvS1Fw8+61KOTF69G/Tb7Nuewq3TZxxjXMN99+V726XvenD+NaLvLNWAUDMAADMAADMAADMDDpDCDMIczN68Vs2w6eiwlt47UJN8hdLvrGlD76XvenD86PBYt8V5Kv43Lzg4HxYkDfgFS/r/vTB9pzvNqT9qK9YAAGYAAGYAAGYAAGzADCHMIcwtz3DAgeEHBhAQZgAAZgAAZgAAZgAAZgAAZgAAbmjgGEOYQ5hDmEORiAARiAARiAARiAARiAARiAARiAARgYAgMIcwhzdLwhdDyePszd0wfqmrqGARiAARiAARiAARiAARiAARgYVQYQ5hDmEOYQ5mAABmAABmAABmAABmAABmAABmAABmBgCAwgzCHM0fGG0PFGVaknXzxFggEYgAEYgAEYgAEYgAEYgAEYgIG5YwBhDmEOYQ5hDgZgAAZgAAZgAAZgAAZgAAZgAAZgAAaGwADCHMIcHW8IHY+nD3P39IG6pq5hAAZgAAZgAAZgAAZgAAZgAAZGlQGEOYQ5hDmEORiAARiAARiAARiAARiAARiAARiAARgYAgMIcwhzdLwhdLxRVerJF0+RYAAGYAAGYAAGYAAGYAAGYAAGYGDuGECYQ5hDmEOYgwEYgAEYgAEYgAEYgAEYgAEYgAEYgIEhMIAwhzBHxxtCx+Ppw9w9faCuqWsYgAEYgAEYgAEYgAEYgAEYgIFRZQBhDmEOYQ5hDgZgAAZgAAZgAAZgAAZgAAZgAAZgAAaGwADCHMIcHW8IHW9UlXryxVMkGIABGIABGIABGIABGIABGIABGJg7BhDmEOYQ5hDmYAAGYAAGYAAGYAAGYAAGYAAGYAAGYGAIDCDMIczR8YbQ8Xj6MHdPH6hr6hoGYAAGYAAGYAAGYAAGYAAGYGBUGUCYQ5hDmEOYgwEYgAEYgAEYgAEYgAEYgAEYgAEYgIEhMIAwhzBHxxtCxxtVpZ588RSpXwbeevuddPPixenzL861GlMOf/pZumP58tbh83w1pbfusceTrudxOIdvGIABGIABGIABGIABGICBUWMAYQ5hjsXrkIQ5iQe9CBmjNniQn/G9oUkU+/Wvr07/9aMf9fUrcXvx0lfpnnvuTeK6iQ1dV7olG03x8mt1wpzysWv3a1UazovCtimrw+dpcT6+rNN2tB0MwAAMwAAMwAAMwMCoM4AwhzDXuIgedYDHOX8SAfoVJyyCSAjRcS/1oB1NSreNUCHxRiLO9hd3VOHl9pIWYcfzJig224hU3QQv8Xni5KkpvJV2stUJhU181wlzZk6ca0eebNuvyW1b5job7iOxX/3kpz9NS5YsTVuf2ZbOnP28MR/ffPtdeuTRR6t+tnjx/6azn3/RCV9XPzEtH3tM6dY2Cq8wKrfjdnNVxpJdp6m68fXLLrss7dm7t1OGWG8fHTyUfvGLX04bU9qMTW24jGlxPPMx6Nvvvk+ffHI4Pbh6dbr66t9U7ab2XbToprRh48Z09NjxpDCqa7WP7xulujcf8V5iv8jf5Zf/ON1y65L0zzfeSF9/8+0Ujnz/i+F1rLz9de3adPLU6SnhlY9SGnl8hVHYaF+cite8LLYnt5/+mdurOy+NK3m+fa66d77sJ3eY/fPLi5fSlqe3phsXLuyMMwsWLEh33rUi7Xz5lXT+wpfVrule5ySur0Mff1IcS3xdbhxXNMZqrI3Xdax8/PnOO6s8xvtOZCHWqcqz+akt6dz5C9Ns5bbjufKieK4P9SON99uefS6prmJYHcf2f2bbtk4/cziXrc246LCxfLZjt9R/Yx5cB2pDjQfx/lpXV+qXau9/vflm1/nqoO+Dpby7DHKbxirXSXSPnziRHnv88XTttdd1eNbx2kceTYcOfdxpH6frMSXa0LHHjNhubp+YPx3L/hNPbiqy5nRiHM07/vinP6W333m3kx+nX5dGjB/zFO234U9xo62mY9l2vrq5rq8me76mseTTz45MmXf6mtsj1sOgxgSnITfvY5e++jq9/MqrVV9Xn1cYtdPtt99R9X3PD/utP40d6mOltF23sX8qbGm80b1W91DZifcN2Ygs6Lp+pXHA6eH2N/dCmEOYaz0w0sn662R19aYBOB/46sLm/h5g88E/D1c6jzckD651rictHpB7uZGW0sZvsAzNVn2KTf3a2NdEJw+rSdRDa9ZUk3Dz5glRyabC33zz4imTfLHWxLfs5f2nTVql9OXXS5lLNtxH6vqSJmGvvLpr2kTZtk6dPpMW3XRTJS7kolavk1LVg+qnLi/2d9v5vJurMpbsxnbw9SuvvLJa6GrB6zLKjQsvpRfHFLdfUz5y1qJtjgc/vmhBIfHNi4lS2/g+ofpX+8TzvE3MR2x3+5Vsy2/9ho1TxDnf/+rCX3PNtZWQGNPuloZsKYzi2P51112frvrVr9Lq1Q8l1UPJnuL00z+jraZj1VNdOXN/1X2pnMPqn0eOHqvG9Tyf8Vx5btPvHSdnS4KWxhqLfaXFpu1fccUVVXuWhFY9RDDj8b5jFpx+7i5ZujSdPnN2Cht17bn/wFtVPnMbPr/++hum3ANlR+3/Pz//eSXk6bpE8GjfZWszLjpsLF+0peNS/21iUPe1ffsPTOk3Lk/JfTRUZAAAIABJREFU1X1eokmers8HfR9syrvyl/PkfOSuHjy8uGNH0gODUrns5zHE6fo8t+cxI7ab28e2crfEmtPJw+pcPCvPfmiiPHRLQ/FinmS/F/4Ut5SXkp9s5/VSd+76KtnJ/TTetRXmZmNMUH5iH1Od33nnXY314vD91p8fUEgE18Mkned16bFMZdZPQnkexnZUhnjfULgm1uI4kNvkvLd5GcIcwty0jkkn6q0T9VtfGoDzga+tLQ+wHszbxqsL58l8LzfKOlv4zw0/M61nM5RParqd54x4omd/231y06aBCHPabdYtT7qu9J2XuslwU52pP+rXFKbpmtJXPmLaX339TfrsyNG0bt1j1YReE2W9Zluy868391QLzFd37aoEurqnuI5bSs/X5Pbbp12H3cYWpV9a1DjdTf/YXC2C88mfJn6/+e1v0/r1G6r6kh3nu23aDo87u2ONFnTaJSGuf/e7a9Lrr/+z85Rd1744dz7t278/3bdqVWexrT5U4sJtZT5iu5f89OT+vfc/qISd3J7HmPz+qfxsfOLJakGqXS1xQVpKw3nKXdtXH9D4o0WH8hLD2Z7c6O/jbv3T4Xp1nbe87LmdYfdPC/ASMp7eurVixXlUGbQDU2OEdgLZP7qu38hJvK7jC19eTH/6851p1f0PpKe2bKldkHpcUTjtitOOkLgL07tNJMDq4Ugc+0r1La5OnjqVVj+0puobutflecvPJRRIMNY9QELz6dNnKj5lSwKmbOnasmV/mLK72u2o+4b6geoscu2ytbl3OWwsX57PUv8tsaw62779xapv3Hbb7dVurlJduZ0OvPV2Wr78j1V9lQRG52PQ98FS3p1WL67uY2ofCcDPPvf8FJ7F4bvvvZ/uf+CB9M6771UsdEvXQlNst1L75KzJbsx3KR3NO954418VL/nu+1Ia0V5+LPvirl/+ek0vT7/pvFT2PLzrOa8352tQY0KebjzXwwOx8+ijf+v0e11XO0lof/75F9LatY8Ud5M6n019Vrae3vpMNb6onSTMKc2YBx27f2q33KpV9097cOoxW9f/9Kc/T1ufluq7NA7k6XLe2zwNYQ5hblrnncROpJtjaaLrQb1089Ri+6ODB9NdK1ZUi25N3rWzQDfpWIe6sb65Z2/12o8WOAr3wIOrqwllnuZLO1+u8uGncnJlX+l4MuaBWrbyX1wkKO9333NPlZ7C6bWjPXv3dezEPHabBPt6tG8/TVj0qoomnUrnhhturBZw2mGgycHSZcuqm5LK/bd16zoLu5h+L3mN8TjubcCP9eWbdD5hURjxHpmXX1N4seCJg+L5WPHMa2Qn5kPHav/Z2DHntPN+4vNYxlKZ83w2nZcmLTH8+x98WPURLfy0KyBeU1/RBFELHOVZopx26xw7fmJKuBinW3run6X2jXbyY9dZbMM8jM5lNxdM5O90tYtCC2AthL1rzhM/lVVjkdoh5q9t2qX84Nf/WFBXd1o0aFzXmC6BuS5c9Fc/KnHhMOYjtnvJz+Gff2F7xYnC2M9jUX7/1HW9EpSLK/JvSsN27dq++oDqQK+j5/3B9mK+HF+uyie+667HsL0cO2+lskc7w+6fzqfmL6VdbDGvpWPXb+QkDycxRLvldu9+rdohogVpSSTzuCI2NV/RLsi4a0675TTeVkLw4sVT2trlKNW3XpleuPD3U8LnedS55m4SILU4z3cwObyEQgl2YkY7q+3vdvz4k8Pp7+vXT+tbsWyOU+c6bM5yDF/qv3Usazx/+K9rO3lqqiuloTJapCg9eJqN+2Bd3mOZux1L8JdgKr70emi38LreLd2mtUWpfT45/GnFrdonpl+Xjph79G/rOm3jOG0YcFiXQ+N5v/z1ml5Mu9txXdljPNezwkZ/52vQY0JMw8dKQ+uvtjtrHU+u81liwuHMp9aVOpawZrHcYeS6f8qWBGSNg/HBqR+a6mGbwuRjXl195+NATJPj3udlCHMIc1MGq0ntRBo480FIdeFBPd4MPVBqK7AmWl7k29XuAQ2Aiq+boyZipXAKn6epdGwnuvGJvdOP133sRYAWxYpjf7vKx46Xdk5r826TYF+3fZXNfrYdXaUdv8ERr+VPfHvN66QyOuhy+yadT1iUjjiMzMsvD9/EYWxvPcET55GdvCyzLcyV0s7LmJ/neex2XjdpcTyNBd59pF0B9pdrAURPPXWu/KqvxgVaDK/jbum5f5baN7cVz92uTRNBp18SYJyuXC1+4+TPEz8tqB0u5q9t2jG/HPc+8WtbZxI81JdLT9/rbKgflbhw+FK7l/wU3oKGXqWKQorHovz+qTjuSxIMtGBoStfXctf23Qc0hul+H7+Z6DzLzePrvFv/LMVp4+e8lcoe4yv9UjvEfM9m/5TIsnLlfVUeDh76uFhHMb/5sfMZx4cYxmxIGJNA5nqRgKLFaQzrcUVs+lty3jXn3XISzvRdT9Wr2102bLdU32ZNC2LtfolpxmN9h04L5VLeYjjbU72p/nQttqOua7dZFLVi2aKt0rHDxvLl4Ur9t45lC2l+iNRUV07H9e92s79cl3+Q98G6vMd0ux3roZoE4Fjv3eJ0S7dpbVFqH4vQrhunX5eO2yav5zYM2LZc2fc40g9/vaYX0+52XFf2GM/1rLDR3/ka9JgQ0/CxBHXxow0aGrfs38Z1PktMOL7Z8LxSZVV68ncYue6fsqV+GB+cxoemGj8VJh/z6urbrHkciGly3Pv8DGEOYW5Kx53UTqTBOR+EVBce1HXddeOBUq/26OPFfhqsXTB3331PNSDqRq7wfl9fu4H0NFaDsn56jeHee1cW03Q6chW2Ei0WL66elvpaHGB1bH+5/kaH09RTStnR6xJ6laA0Oew2CfZ1uU7LfqoHPXXRxFRpaYeDRAXt9tPTa0+S9WFc7b6IT3L6yavTx+19wI91ZoaiiNbmOJ/g2Kbt5dfdX+psq2+5n+VhPBmRzdgHlab4y/us0zKn+bnzKlf2os38PIZtc1w3aYlxtRCWyJDv6lDc+F0Q9Rn1U+0s8wIt2tFxt/TcP/M6jeeup2jbdea6j9fisdL3hD36O125Gg88+VOZNEF1mRxOdhzfacc85sexzRwPd2ZjQV39qb1yUawurP3VPiUufL3U7iU/3U92v/Z68dthHmti/9c9Tq8XStTQ/SeKaErbaeQ8xXOFUVjbdx8Qu7fdfvuU3Z+25zgun91u/dPhenWdt1j2ko1R6J9+6Ka5gF45lcCreZDqU+1Vyrf9XL9xfPA1uRLR9JpeFEv0IKO0IPW44rEj7prTd9/0RwwSHRzO7a50SvXt+dSKFX+phOumByiyod2men1fO5iayn3x0qX0l7vvnnJfi+2ouHqwqXuFhWrn2WWLdZQfO2wsXx6m1H9LLKsN9fqw+prH9FJd5fZ1LnFJ7eR5ssMonUHfB5332M/jcdNY5Xy9tHNn1c4WPuzf5DrduvHBc57YbqX2UZsrrOYDsW6cdikdrUmefe65ag4e+4fiOI1YB/lxzJPsu4764c/pNTHnsvTqlsqe23A9K2y85ny5rP2MCXm9xfNYXr2279fY9QbR5s1PpQMH3qp2dzeNB8qv8xntxXIovj7bEN/EsMCthw3RvvunbcUHM6onbaaQmOdw+T2mVN+lcSDmj+Pe52YIcwhzUwarSe1EGpzzQUh14UHdg7f8PFBGP9ebF94Sp+TnCUj+5ELXSmlqEJWApWu33HLrlF1n8amsB04PsE5frr/RUUpTk9DShKjbJNjX4ySj5Kf0/XqHvvUT86WyaWIa67mfvEabHPc+6LvOzFA+YenVv5s99xezoz6Vv7Za8lO+zLc40eTQNpSmjiNL8svT8nmcMMXj2Id1HM9drrZuadKSxy2NJ96xEf8lS31Fk6rSRNw2u6Xn/hnLmx/H+rRd15nr3v65q/Q9YY/XnK5te/L3xP8fDzzxU3iHkx3Hd9p5PuP5TNrI6eC2GzdU16U2bqq/bnFK7W6/2M4+Ln0Q32OUw0RXQsGGjU9M+YaY8tuUhuMrjMLafuwDWrhp15x2z0V7jpPXSbf+mYdve+685WNfHn8U+qfGsfi5D9ezXO2k3bHjpdoHD26vOD7EMkp4zXcxekFaJ0Z47PCuLX1nSeOuF7Aef2K7u75j3uOxhGA/nI35i8elcT9e97HTim2bt6PE54W//33nD0mcZ5fNtkquw8by5eFK/dcsx3L7WIKDhAfZKeU/t69z24t9Z7bug07L+c3dNuObbcT8lsoV/brFKTHh9snzqHOJ23rbRX2qlE4pjh4m5K9PNqVhG5EllSPWUa/8Ob0m5mJ5ejnuVsey5XpW2Gjb+XJZBzkmqB7z8mps0houf5NJ53pQWzeGOJ+5PZfFmxvimOcdbFGsU3j3T9vyg9M7li+vxpNuArvr25xEN44Dzhtuu3lWXk8IcwhzUwarHJBJOdfgHCdDLrcHdQ/e8vdAGf0c3t+38bU6uwqfX9PArN0lcbCLxx5MFTcfYJ2+3KbB0/byCUa3SbCvx3glP6XfVD95mfvJaywrx/0N/Ko3M5RPWHrx79Z+YvbEyVNV3zI76lO9CnPKr9KKfVT24rnCmD2nlZ9HXsSifvbLz+3f1nVdOO1SPAv38XUU++Xt4Ndn6l4j7Jae8qH+ntst5Sv6uc7ieBOv+1h244Td/k7X9eDJn/LiiZ/COlzMX9u0nRZu//2/Td3N9Y4535/s6vuEeg0wz6vHKIezK6Hmn2+8MW3xqvgl3nK7Prf92Afsp8WudgnYnjl3XLvd+qfD9eo6H/nYl9sZtf6pcUC73PRto02b/lF9t1DtJhE1vnLscrh+4/jga/6mUf5he+2y1OI3X5B6XInjvYRWibhaUGrRLNsOV2p3MyZX8ZT2y6+8WissOq9yB7VjzjZVJ1rQa/eh8xzL5nC567CxfHkY2cnHdbMc60D//qg/8NGc1zbasqn7X74Td7bug857XT913pvcud4xF+tZx7+86qr04UcHO/Uc8+ry5XHWPvJokc02DOT2Szy05a/X9GLa3Y5d9qa29RpOYaM95yv2m17HhG5jcEzPxxJWdf9Qe6of3HLrkmqeFj+B5LBync+6PquH1hqP8jrQZyjkH3eOu39GW+p3egAcdxo7XF4+13dkrTQOxPxz3PscDWEOYW7KYDWpnUiDcz4IqS48qMfB2wNl9HO9ebeYFjTyq7NbuqYBVAOpXjfVbjelo4mmB8k4mJb8nIfS4BkHUh3ng7jO5Z/fvGzT12O8kp/CN9VPXh/95NV5wu19wI91ZoZyNrqd1zFie/n1XIjLz5Wnkp/slJg3g3LzPmv2HCY/j+UXi7EP5+cxbJtjs+y0S3H84WtPlrwzrqnO46vf0Wa39JSPpj4dbcVj11ms+3jdx0o/n7DrmtON9aDJnxbAWkg6vsPJjv3apu3wuDMbA7rVXz/fmNNiQ7uh9LHykn3t2haXsu3rOQsScfQhfN0P9c+P+S4RjzWx//t1oSVLl1avtNq23TwN+5dc28/7gHeci1nbk1uy0a1/luK08XPeYtlL8Ua9f6qv67WuunK4fuP44HJ6Z1zTuBn58rgSx3vvkInfvHW42O5t69t5K7mD+sacbUsM8x+S+MFXLJvD5a7+mEyvFOt1Wb02m19XP9NbDfm3otqy3KauvDMuiqezeR9sm/e8LuK5H5LFXUnxeulYgon41JhRuu4/c4iftSjx59fB7125ctofy8luXj7Vr3ZxSjgr/dlbKY1S/uwn+/l9vhf+ek3P6bZx87KX4ngNp7DxuvMV+81cjgnOi/qMRLm8jn3d+Yxjkq95Z1zTONjtTSs/ONU/UvuzKXX9uE19O2+4/c/NEOYQ5qYMVpPamSSk5ZMR1YUH9Th4e6CMfq43T9w9KdRNt27AVfw4KdWgV1rQeJCMA7P9ShMsTQjyp5HOX53bNAlWHF+Pi5CSn8I21U9e5n7yWlcG/Hu/EYi5yFVsv9jW8jdz+QRHbSobane5W5/Zlh5as6bqO4onO5HzkghX8ivlLbZxbreUd7OYl0VhlW/9bDM/t39bV/nVBKmUlmz4G4vxG496cqrzpolVfJIZ89ItPeVDdvP2ijZKx66znIs8rOyWxjanW1cPtuNwMX9t07YN3N77fC91ZgGkl9dUmsQ87XTSvTb/nEKJBS8wJc7l/2TpsSiOKyqXF7ES5/JXuEpp1NWF7ed9QAsXLWAkKugf1Jv6e7f+WZd2N3/nLS97Hm/U+6d3vdWVo6m99E23pjFT1+LuXI8rcbzP60vnDhfbvW19l+zZz8JTiWWHsRitvMdv1tW1o/+QRK83qg67lU3peEdh3ScSLLjkD4PastytrlQPEtpVD359WPmazftg27y7HUqu8yexS2NMKUzu103Mc768VlD8En+qM/+BXOm1adtRf3EeNPZpDCzlt5SG45Vc2S/d59vy12t6pTzU+ZXKnof1Gk5h4zXnq1u/cbhBjwkxL3qYVapjhSml77i+PzeNhXFHsPtnLIttRdfh8rG5TX1HOxz3Nz9DmEOYmzJYTWpH8lZ1iQqafGuSpBurdq9p0IuDtwdKPeXQsW6c+mk3iF7R0zdx/GqEd8HpTyH0LQDVr27yzz73fPVR6zjwKQ+asOj7dEpfNvUnEfpQ6IIFC6YIKMqjbtIazPUNF4V12/mbA9oirZ13mozpmlyJA5oQ6dUKh5fbNAmO1+PN33Gin8K6fmKdOS35xTL3k1fbwu1v0M/rTW0SJwW6+Xa7cdtGZMA3c8WXv9tZ9iMLJRGu5NctHzEN58fsmUmf101cYr7yfNpmW7c0aVGf01igV370jZh8oqx8qs/HyXlMz5PKuIjx9VJ6viZXtlVuhYv+3Y5dZ90YkN3Ije06XbeB/XPX4WL+2qad2+J8MGNBXo+6r2hHkTjSn/y8/vo/O9/C0TXdy/bt35/WrHk4ffrZkYozLxZ0z9KfN/j+I6HNHySP4rTSLLEgf4tzeb/xWOMxJubb4ly+iK1LI8b1se2X+oBf/dE3YFUvdZx3659Oq1fXeSuVPdoadv9UX9YcSaKCdnWZA3Gja2JB7RoFtJj/uvZy+XPxyHFlXx9DjwtSjytxvHf46DpcbHen162+o53SsfqH8qTxXrtBNbdTXvXTH3OtfmhNdU19I74eWteO3t1zww03Vq+idSub82RRU+no/uI8+I9TxHR+v2nLcl1daaee5qJ6NV32c+FcbT1b98G2eXf91LkSopRHjWuav2vsc1iXT5+i0ava8reYp/u+WNdYJn/1A/+pTWRU10r8yV9tZHFO7Gh9IH/96spncU5p+BuATWnYXu7OlL+6MuXp9HNeV/Zoy3MohY3+zle3fuNw/Y4J6hNr1z6Stjy9tZoL6tz50E5asaB5VH5PdJhS+r6mMuUPuXxNrvuVhX73z1iWGN7HDpePeW3q2zZw+5+TIcwhzHUGiUnuSFpMSFDTpCH+/vtnP6tuxnHw9kAZw/lYN+74dN8LC1+3q5v1//3JTzriheq+Lg/a/aZvTOSDqV6Lsz27XiR4cWL/6DYtpvObl5nwJNn25V/yk7/rJ9aZ7cgvH+x7zatt4fY/8Od158mLOYntnIf1uW/eZiY/V1trx6jaO9pTWqVvzIlLp283Z95py5XNnCWz5/Ty8xg/P1Z+S8zm4erOPWlx3nNXE/pXd+2qJtmyoR0jejVm4cLfV3+YUrLrOo2v/Tic03NZ7W9X/nke8vNSXNdZXd2X7MZ28PWSbedNrsOZH/k57Tyf8XwmbRTT57jd+KF7WNO3T9U28Z4SF5Gx3Xyci2x1LLh94gJTD5bk734RuXP4mL525+khVkzD+Si5Ztb2S31Ai+JYH47j9O12658O16vrvJXKLlvuV7F8Mayv1+Xb+XG4fvtnm75c+mOPpvR1zf90r10mDpu7yrvmYv4+p/PSbexwuNju3eo7T7vpXG9U6D4Q2yYel+pD9R/7V7Tvb2LJRreyOV7dnNT5yEUzxWvLsuvKtkquHhhbxJft2b4POu+lvMivrm5dX3bV7zc/9cO/0NbZkn/sV01z23ytoHRK/MX0S6/3u3wxXccpvd7vNJrKEFmaKX9OL/Yp52+mblPZnW5eTteTr8eylvLjcDH/bTh3+DZhNSbUvfJcSl/5VD/WH9fo1XQJw6W8+5+r/cdizovzVoojP4eL9w35N9V3nS38282zYj0hzCHMFTt0hGRSjvUxTj210ECup0x6wvHBhx9WN+44eHug1IDof9nRTVbfS9GNWAuDWGcKrycmWpBIkLtrxYpql9u6dY9NExb03Ql9XFr2NFhrp82x4ycqUS4fTDV4/mPz5s5E78aFC5Oe5jttCX0Prl7duV49nV51fzVxiE/cFF43K5VbA6/jR9fXfVOLcaKf/F0/sc5sS375YK9rveTVtnB7H/BLdZaLcnEiU8dDyY5v5jGO2jvntk6Yy8U62cnjxnR1PWfJ7OVMxnh1x8pridm68Lm/8hPrTsfqc/oWkHbiKm8xjr9H2e27NXraqfHA36WzDadXV1b55/nJz0txXYd1dV+yG9vB10u2nXe5Dqdy2N9p5/mM5zNpI6eD29vYoXva2++8W+1usrCge5kW2bpPardNrFOF107uFX/5S9UH1H6Kp/uRxvoYVsclFmIYLzC9+8NjTeQuhtf9TYtYpesdJk4jspQfm1nbr+sDccx0nJi+jrv1zzx823Pnra7spXLGsL5el2/nw+H67Z9i4PiJkxUfGgM1Fqq+NZbpjxMkmmlx6fRyt5S+wkiQq3sV0za8W8kLUo8r3cYOh4vt3q2+nWZbV7vh9A/Vmq+1qQ/Vf5145LzJTreyxfxJrNYfV6gd1B6Kr/yoL5fapC3LMT+y6Z8+EK+20KdLLJQ7P7N9H3TenZfcratb5y+6Ylpjkf5YQWWSLdXfokU3pQ0bN3Z2IMY4pbmtxsX8TRfFKfEXbVlUVZreAODy1fVni4MWXJ1GXg/xPLI0U/6cXuxTsUwzOW4qu9ON5dKx68nXY1lLeXG4mP86zmNaMbz6vNpL/37q+6fCqs9pLIg7ZPM8lNJXGK31tGnDDx/yeDoXr9r96vHS+Y55K8VzuHjfULim+i7Zwa+3eZbrC2EOYa52YmRIcKd2Lg+U3QZ06m1qvVEfo1MfYteTiKabdAzn8HZ1k1abegEl/3gjLwlwCl/n342PmI7z4EmW47pv5v6+3uSqrPTp0WG0qa24RjvBAAzAAAzAAAzAAAzMJwYQ5hDmEOb+/a2Gth3bi38W8dwM2jJDuLlhxX2zjTDnp38W+aKoSHvNTXtRz9QzDMAADMAADMAADMAADKSEMIcwhzCHMAcDPTLAzYMJBAzAAAzAQK8M+OGBHwh0c70zudd0CA+bMAADo8xA0xsZ+bjY9GbHKJeRvNEHe2UAYQ5hDlGmR1HGE2t2zDHg9jrgEh5mYAAGYAAGYAAGYAAGYAAGYAAGIgMIcwhzCHM9CnOxA3HMgAoDMAADMAADMAADMAADMAADMAADMNAvAwhzCHMIcwhzMAADMAADMAADMAADMAADMAADMAADMDAEBhDmEOboeEPoeP0q6cTjKQwMwAAMwAAMwAAMwAAMwAAMwAAMzB8GEOYQ5hDmEOZgAAZgAAZgAAZgAAZgAAZgAAZgAAZgYAgMIMwhzNHxhtDxeLoxf55u0Ja0JQzAAAzAAAzAAAzAAAzAAAzAQL8MIMwhzCHMIczBAAzAAAzAAAzAAAzAAAzAAAzAAAzAwBAYQJhDmKPjDaHj9aukE4+nMDAAAzAAAzAAAzAAAzAAAzAAAzAwfxhAmEOYQ5hDmIMBGIABGIABGIABGIABGIABGIABGICBITCAMIcwR8cbQsfj6cb8ebpBW9KWMAADMAADMAADMAADMAADMAAD/TKAMIcwhzCHMAcDMAADMAADMAADMAADMAADMAADMAADQ2AAYQ5hjo43hI7Xr5JOPJ7CwAAMwAAMwAAMwAAMwAAMwAAMwMD8YQBhDmEOYQ5hDgZgAAZgAAZgAAZgAAZgAAZgAAZgAAaGwADCHMIcHW8IHY+nG/Pn6QZtSVvCAAzAAAzAAAzAAAzAAAzAAAz0ywDCHMIcwhzCHAzAAAzAAAzAAAzAAAzAAAzAAAzAAAwMgQGEOYQ5Ot4QOl6/SjrxeAoDAzAAAzAAAzAAAzAAAzAAAzAAA/OHAYQ5hDmEOYQ5GJhwBj7/4ly6efHidM8996aLl76q5cHh3nr7ndow+QRB9mR3+4s7WsfJbZTOlQflWXnKr6977PHUSx7z+JzPn0kObUlbwgAMwAAMwAAMwAAMjDoDCHMIc9MWtaMOLfljYIWBwTIgIeu/fvSj6lcndqnOx0GYkxC4a/drVVlULuVbIp3L1+Q6PHwNli/qk/qEARiAARiAARiAARiAgXoGEOYQ5hDmRni3lIWQfgQDx20SInzt17++Oh3+9LNqV5P8Br27iUG4fhAedt2ord3+3t0WxTmxZ/7MlHejyd8M2ZWfbPq8zrVNlV/sKQ952KYdfE075mRTeb1j+fLKdps6Vn5intrEiWFKZf7JT3+alixZmrY+sy2dOft541j7zbffpUcefbSqg8WL/zed/fyLTvi6+snrS+duuzZipMKozCU7JT+VsWTXaao+fP2yyy5Le/bu7ZQh1tVHBw+lX/zil1W6sulr5quUtv1m0kZOB7e38ejb775Pn3xyOD24enW6+urfVO2m9l206Ka0YePGdPTY8aQwqle1j8eTUj2bj9ju9nMby7388h+nW25dkv75xhvp62++7TAimx6nYngdK29/Xbs2nTx1ekp4xSmlkcdXmNy+OBWveVlsT24//TO3V3deGlfyfPtcde982U/uMPvnlxcvpS1Pb003LlzYGWcWLFiQ7rxrRdr58ivp/IUvOw98Yp7rjnO2Dn38SXEsifUZxxWNsRpr43UdKx9/vvPOKo/xvlPHmsqz+akt6dz5C9Ns5bY57228ob6oLxjsl7fmAAAgAElEQVSAgUllAGEOYY5JBcJcZyHlRUBcNE3q4DgJ5fYiLm/vuLjWsX6qDy9wFC+vH9nIF00K44VNTCPaVBgtbG++efEUEU3h4wIpT095iAtOXW/KXx4/P8/zlF/vdq781i0m5S+R7pVXd3UEjNzeqdNn0qKbbqrEhVzU6mfh77ZtypPCqNxNYeI1lbFkN7aDr1955ZXVQlcL3ljWKEDKduTC7RfTzI/NYrTJ8exN4i999XUlvonJvC18Hvu92iee521jPmK728/2cnf9ho1TxDmPKXk4n19zzbWVkBjT7paG4iqM4tj+ddddn6761a/S6tUPJdVDyZ7i9NM/o62m427jisssV3VfKuew+ueRo8eqcT3mMT9Wntv0e8fL2dr27HNJY43FPgmBeX3a/hVXXFG1Z0lo1UMEMx7vO2bB6efukqVL0+kzZ6elmeeB89kbo6hb6hYGYGC+MIAwhzDHhGKeCnOlQcqT9rgoKoXDb/7f5LqxIEa0QHlozZquwpxtyfVxvoCpO1c6TcKcdpvVxY3+suMFmPLQK8NaIOrXazyHV/rKT0z7q6+/SZ8dOZrWrXus2gGkhZ9es3Wc6P7rzT3VAvPVXbsqga5uZ4fjlNLzNbluB4WL/t2OXYdxcVqKI7v5Ijmmu+kfm6tF8L/efHNK+trh8pvf/jatX7+hqq+Yv7Zpl/KD3+DHLO2Ce2bbD/3vd7+7Jr3++j+ThQ9d++Lc+bRv//5036pV6dPPjlTtrD5U4sLtU+Ky5Kddcu+9/0El7OT2LJZEwUn2lZ+NTzxZCSyPPf74FBG8lIbzlLu2rz6g8UeiuvISw9me3Ojv42790+F6dZ23vOy5nWH3Twvw2vn49NatVds4jyqDdmBqjHjiyU3F+nP9xvHB8e1e+PJi+tOf70yr7n8gPbVlS7VzTuOLr9v1uKJw2hWnXZVxF6aY1g4+CbB6OBLHvlJ9i/2Tp06l1Q+tqcawJzeVy+D0cQc/NlGn1CkMwMB8ZABhDmFu2iRmPoLepkx61UyLRb+qI1fn2smi+J7caeGhV3fuf+CBarGtRaYW3wqj1xo00bQNPcX9x+bN1RP4mIeXdr5c7fbRpFWLebl3rViRPjp4sLOYqHsKny9SFO7ue+6pFg+ypdeL9uzd17ET0+022fX1uNiwnxbYeiVFuxGUzg033Fgt1LST4I03/pWWLltWLYi0iPnbunWdBVxMv5e8xngcD/YG7EVj06LHdR4FK/eByIc5rbPlhU28Hm0qHdmYjR1zzq94Lf2Uj1I57deL6zqNdRPjv//Bh1Xf0cLPY4qvqw9p0XjbbbdX44xEOe3WOXb8RCd/Dmu3W3rut7HeHbfJdZ3FxWkpvOzmY5HCOd19+w9UC2AthL1rzot1lVVjlNok5q9t2qX84DfYMUL1qfucxnuN9b7Hdatn9akSF45nPmK7l/wc/vkXtlecKIz9PKaUxCndx3NxRfGa0rBdu7avPqA60OvoeX+wvZgvx5er8onvuusxbC/Hzlup7NHOsPun86l5jcXcmL9ux67fyEke59333q8eZuze/VryK60lkczjitjUPEa7IOOuOe2W03hbCcHZnyC5HKX61ivTCxf+fhobeT45H/zYRJ1SpzAAA/ORAYQ5hLnOZHc+At62THoVQa8kNC3ePbmT6CbBzWG9CGmyoR0FmuA5P5ogOn5045N5Cx7xuo6dnmxp8as4eRjtzNnx0s5Oek6322TX1+Niwn55GjpX2tdee9209HVNT8P93aF+8uo84w7+5qvFjhaaWmyU2lV+XhCJVf3UDu4D5sPnvu62Utw6u/aPcWZbmHN+nT+5sVyl8xi2zbHLXEpL8ePuI+2OizYtgDy99ZnKXzbUh/XqawwXj7ulJxuxHWPcpmO3aS5E5HGUfhyLfN3pytXiV4tg75rzbjktqB1Odhy3bdoOjzv4sSHWqQQPMaTXBaN/07H6VYkLxym1e8lP4dVn9KDrf37+8ylCSpNY4r708F/XTvmWWF0azld0bd99QLtc9Rpk/Gai7cmNcX3crX86XK+u81YSiqKtYfdPPWxYufK+ioWDhz4u1lHMb37s+o3jQwxjNiSMSSBzvSxb9ocpu/MUx+OK2PS35LxrzrvlxJm+66l6dbsrru2W6tusPfDg6qTd0TF/HM/u2ET9Ur8wAAPzkQGEOYS5iZ9MeBeHFsJ6Dca7OzRh06s7EpjU+T250+42PZXVazMeFGxDQtX27S92nhDLlmzKX4tRh89dTTIrcWLx4vT39es74ZxmFDEc19+k0k4jPenVqxmyo++6LF/+x1SaoHab7Pp6XGzYT68yaYGtCajS0k4G1VleH4cOfVztstDuH38YuZ+8upy4s3PzNVuxrVXXuX8UsPJrZsNim9ycVS9s4gIr2lSadSK0F0iKm9tV2vliKc9ffh5ZyvOQn8ewbY6VR5U/r88YV0KVRIZ8V4fi6iPzfg1LY4v6r3aWaYEbbfi4W3qltontVJdX15nr3unlrtIvCTBOV67GCS2AtWtOZdLY5jI5nOzYttPO8xnPcw4cF3fw44TaKxfFutWz2qfEheOV2r3kp/vM7tdeL347zGNK7P+69+n1QolBui9FEU1pO43IUn6sMApr++4DYve222+f8s1E23Mcl89ut/7pcL26zlsse8nGKPRPPzjUHEGvnErg1VxF9an2KuXbfq7fOD74mlyJaPqTnPjKvx5k6Htz+VzL44rHjrhrbv+Bt6o/ppDI5nBud6VTqm/Ps1as+Es15jc9QIl55njwYxR1Sp3CAAzMJwYQ5hDmGidH8wn2urL4dQQvGOvCedL26N/WTZtU2oaeuuYTTr9aExfjCiMBSxPFW265dcqus/j01Wl6Qhnz5m9S5ZNQhdFkUxNUvT4X43Sb7Pp6XGyU/GTTZZbwGNNQ2VRHceHQT16jTY4Hf+M1W7GtVc+5v9gzf/m12C5ewOQLqTr/GLfbjjnxo8V+zKuOI2OlvDu/+QLc5y6X4sZyxry1PW6zELcAGdP1jg1948ivfKkPaSyJYl2ej27pud+6rCU31qftu87i4tTXoqv0SwKM07Vt75p74v+PE9pd6/HK4SIvTruUV/vFuov54XjwY4TqutTGTXXdLU6p3e3nNo7u9dffUAn3MU2PKTGcjyXKbdj4xJRviCluUxqOqzAKa/uxD0jM0a45fyPS9hwn5k/H3fpnHr7tufOWj315/FHonxrH9HkOvc4qcc71LFc7aXfseKn2wYPrN44PsYwSXvNdjN7BFsU6xfG44rHDu+ZWrbq/+rac520OF9vd9R3zHo8lBHvcjvnjePDjEXVKncIADMx3BhDmEOamiCrzHfhS+bxY1g6w0nX7edLmyZ395dpGnLDlx46nSZx2keTXfR4nhU1peuLveCU3XzR0m+z6eoxX8lOZm/KmssaFQz95jfXL8eBvxm6/2NaxXe2vtjS7eZy6a/Iv8Rj9Ih/dhDnlSwzFOMpfPC/lPc9v5CjmXf75eQzb5tiMu95Kcbxjzq+sKoz9FD/Gkagucb3uNcJu6Skfqu/cbkyjdOw6i+NQKZzslkQbp+t68K455SU+/HC4mL+2aZfyg9/gx4i53jEXxwcda6eld13H9q0TSyTU/PONN6Y9HFPcEm/RZjy2/dgH7Kedc9rxZXvmPMbXcbf+mYdve+585GNfHn/U+qfGAe1ye+fd99KmTf+ovluoNpaIqjcO8vy7fuP44DAKr1eVtWNONu2vXZZ6sJl/x9PjisZ4h5XQKhFX31CUoCd/hyu1e2RT8ZT2y6+8WissOh3cwY9L1Cl1CgMwMF8ZQJhDmOtMVOYr5N3KZVFtroQ5PenVxE6vm2r3iCaDmlB6wh0nhZ4oxgmly+OJf5ww5sf5oqFpsiu7vh7jlfwUtilvym9cOPSTV5cTd3ZuwG6/2NZmIAouUbDK46jv3LF8ecVCSVyTPXNdWmC5bUtxFT72BdtxfuVGxmQrz19+7vTkxnKVzmPYNsdm3PkrxZHIpr7v1+y8My7vt/E8vhIebXZLT/mQnaZ6j/Z87DqLde9r0ZXdyImvOd1YDxIftQCO/2zpcDF/bdN2WrizMza4Xvv5xpxEZ+2G+uTwp8W5hXZzi0vZdjo5CxJx1m/YWPUVfRpC/cRh5XosiP1f//IpxvStWL3SGsPrOE8jvx7PbT/vA96JLmZtT26M62OFUTnrrjtcr67zFstesjHq/VN9XX8YVVcO128cH1xO74yL42R+HPnyuBLnUd41F7+F63Cx3dvWt/OGO7tjEvVL/cIADMxnBhDmEOaKk8r5DH1eNv3zof6RK+7myMPo3JO2OLlzOL/WGXfC+FruaqJZWrh4AhgnhU6z9PqsXu/r9fs/TZNd5dPX42Ki5KewzlupPuQXJ9z95DWvN84HezN2+6l9vYj04iYuhtSWbuMYR+1hZhVeP7Grtradbq5ZbyPM5e2vfEfGdD3PX34ebcRyyT8/j2HbHLsOY9+J8fztxfjtR+280XlTPZW+mSS73dJzv1W4mI9ux64zt01deNltK8yVbJTy1zbtkj38Bjs+qD4tgEjwkvDVpo6bxDztdNIuvPwzCyUWtLPc34t7cceOKeKcx528//ubZhLn9GdMMb+lNOL1eGz7eR/Q9x5Xr36o2pGlf1ZXv5XdGNfH3fqnw/XqOm952XM7o94/veutrhxN7aVvujWNmboW53MeV3wfy+vK5w4X271tfdsG7uDHIeqUOoUBGJgUBhDmEOaKk8pJ6QAqpyfb2snS5s8fSpM7TTL1XRP9W6ue8Pv1Gz3pl2j3wvbtnR0CL+3cWe0E0A497QxQmNOnz6TNm5+q4sdJoRbu+gadfhIQY7v4DxVuuXVJtfNOu+50Xa5EAH035bMjR6fEaZrsKq6vx8VGyU9hPYkt1Yf84oS7n7zGsnI8+Juy2y+2dame1ZZu41Ic81G3SPXCpkkgmm1hrm4R53Kp3LGcpXro5ldaiKsvStxYv35D9Y0l/QmMxAPbUt1p3Im7O3xNrupF4pe/gRSvldKL190uTfUew/vYbRzHIV+LruwizA2+X8Y6Hvax7k3aUaT+oz//0Z8h+Xtauqb70779+9OaNQ+nTz87UnFtMU/3Qv15g+9Livfsc89V/SCK0ypjHasW5/J+4zEl3mNcVxbn8m9/1aXheNG1/VIf0O5PfftR9+S6MU+2uvXPmF4vx85bqezRzrD7p8YR/Ru9RNUTJ091OBA3uiYW1K5RQIv5r2svl79uJ7HsP/b448VXVON4H9PycWnsc3rd6ts2cOf3mEj70r4wAAOzyQDCHMJcZ5E4m6CNum2/BlNawHsy50mbz/My6Qm9ntSXbMjPC2QtXPRB6zycdr/98qqrpry+Z8Evho2LYS9C4nUfx3DOa91kN7+ucE1+utZUH6qjfCLba16dPu7s3ATdfrGtXddejJhZ+9fFUXuXeFO8Olu2KdcClNm1W1oYO57ynTOW5y8/d9ySqzLU9e1S+NzPC3HnPXclVLy6a1dn54/79sKFv6/E+9yezl13+TeTdM3pldpP1+Wf5yE/L8V1ndXVfclubAdfL9mOZXS4yJjTzvMZz2fSRjF9jtuNKxLHmr6JqraJfV/CiMQYCc6x3Xyci2yR1ciC28f3Ve3a0wMn+btfRO4cPqav3Xn+V2Pz5nyUXDNr+6U+EL+ZKBuO4/TtduufDter67yVyi5bpXLGsL5el2/nx+Fim/TSP9uELf2xR1P6uqZ/rpYw2vR2gvIu/vx9Tuel29jhcLHdu9W384vbbjyhnqgnGIABGKhnAGEOYa4jwEx6R9G/p2pnixbQmnBrIbD5qS2VAKW68aStaXKnRcyWp7emGxcurGxocqjvqOx4aWfSN01cx/r+jj4iretKT+lqR5wmhHFS6HTXrn2kerqs8HpSfPzEyY4tCX0Prl7dyXf1FHrV/dUEXYsIpym3NNkuXY+TdseJfs6XJvyl+pBfXAw4jV7y6ji49QP4TOrGPOftKpt110r+iq+F+UNr1nQW4iWbTXntZ8ecFow5Y6X8NaUbr4nZEssxTNOxF+Jxwa++uGTJ0rT1mW2dccQ2/Pp7/g+Cvm5Xr22p3/u7dPZ3enV1Lf+Yl9JxKa7rMB+HnG7JbmwHXy/Ztg25Dtfvwj/a4nh2xgjXq8Sut995t9rd5Puj/mVTu7V1v8u/6abw+jfOFX/5S3XfEnuKp/uU7gG2a7fEgq/J9YMzv1LbTSzxN+qUrr5Vp3OnUeoH9jOztl/XB+KDBMeJ+dVxt/6Zh2977rzFPhfjlsoZw/p6Xb5ty+H67Z9iQPMU8aExUGOh6lljmf44QaKZ5ktOL3dL6SuMBLmmf6tWGH8iwP907TGt2/jucLHdu9V3nm/OZ3cson6pXxiAgfnMAMIcwlztxGg+g0/ZGNgnnQEvOOLCy3WiRVHcBWN/L1y8qPMCNdrwgtSL3W5ujOt0Sq4XatGe8+Hwef7s38adqTDXJg3CMO7AAAzAAAzAAAzAAAzAAAzkDCDMIcwhzH3PwJAPDJxPBhMlscvClwWzXGiLuwkkZjncKDDTizCXlyvuKhmFspCHyeiDtDPtDAMwAAMwAAMwAAMwgDCHMIcwhzAHAzAAAzAAAzAAA7PMgB8e+AFIN3eUHnywaGTRCAMwAAMwAAOzxwDCHMIcE/FZnogzgM3eAEbdUrcwAAMwAAMwAAMwAAMwAAMwAAPjzADCHMIcwhzCHAzAAAzAAAzAAAzAAAzAAAzAAAzAAAwMgQGEOYQ5Ot4QOt44q/nknadRMAADMAADMAADMAADMAADMAADMDAYBhDmEOYQ5hDmYAAGYAAGYAAGYAAGYAAGYAAGYAAGYGAIDCDMIczR8YbQ8XiyMJgnC9Qj9QgDMAADMAADMAADMAADMAADMDDODCDMIcwhzCHMwQAMwAAMwAAMwAAMwAAMwAAMwAAMwMAQGECYQ5ij4w2h442zmk/eeRoFAzAAAzAAAzAAAzAAAzAAAzAAA4NhAGEOYQ5hDmEOBmAABmAABmAABmAABmAABmAABmAABobAAMIcwhwdbwgdjycLg3myQD1SjzAAAzAAAzAAAzAAAzAAAzAAA+PMAMIcwhzCHMIcDMAADMAADMAADMAADMAADMAADMAADAyBAYQ5hDk63hA63jir+eSdp1EwAAMwAAMwAAMwAAMwAAMwAAMwMBgGEOYQ5hDmEOZgAAZgAAZgAAZgAAZgAAZgAAZgAAZgYAgMIMwhzNHxhtDxeLIwmCcL1CP1CAMwAAMwAAMwAAMwAAMwAAMwMM4MIMwhzCHMIczBAAzAAAzAAAzAAAzAAAzAAAzAAAzAwBAYQJhDmKPjDaHjjbOaT955GgUDMAADMAADMAADMAADMAADMAADg2EAYQ5hDmEOYQ4GYAAGYAAGYAAGYAAGYAAGYAAGYAAGhsAAwhzCHB1vCB2PJwuDebJAPVKPMAADMAADMAADMAADMAADMAAD48wAwhzCHMIcwhwMwEBrBtY99njSr5cb31tvv5P+60c/SnKb4h3+9LN0882Lk9ymcE3XlLdu6TTF5xqTOhiAARiAARiAARiAARiAgblkAGEOYa7vBfBcgjqstCQQ/PrXV6ftL+7oq54UT/FnIjTMVdkvXvoq3XPPvdVPx3OVLukM56YnNiWW+afzz784l25evLjjp2P5xTaKwlweXrbyODGM+GpiqyTMKT3nsc61UCjbT27aVIW3OOc+XBc3+jtOLC/Hw+GTeqfeYQAGYAAGYAAGYAAGJoUBCXNHTpxJX1z4QaCaVPf/jFrBjxw/O2UxPClAjlo5vagfhjBnQcOiQ791YztRgMiPVT6Eucm68anNzZZcC3N3LF9eCcliX8fiR4KVBTeFdTyzZUFLNnLxTWHld+LkqcqGwtSxXBLm6sI2+SvNXgTxvBxNtuuuqVx1aSo/6nOupzobg/CfaVrK41zldRDlxcbsjlvffvd9+ujgwXTXihXp8st/nC677LK0dNmytG//gaRr1P/s1j/1S/3CAAzAAAzAwGQwgDDHjjkm1g2vMSLMTcZAOIk3PAlJEnFUdrk6l0DVrzBnYTcKb7IbhTr3pyhQOV4uFuvc+eu1fWwz5qXJBsLcf/o5wtx/6qKJmUm5Jh5+8tOfTtu1KpFu92uvM39omD9MCiOUkzEDBmAABmAABmbOAMIcwhwT64aJtYWEtgv8fFBSvLpdNHnY/NxiQb/ihO3ZThRIfC26FjO6hYtxOJ75IDysOhSbZkuuzmcizKmveIedyhTtxzI2CT+61m9/iWn0euw+ovR7jevwM+nrtjEKblP7jEL+yMPcjTlfXryU7rxrRSXMSYT7+ptvq11yBw68VfXTZcv+kL44d77vPkNbzl1bUtfUNQzAAAzAAAyMNgMIcwhzTKr/LcydOft5Wrv2kc7ugEWLbqqEi//5+c8rkSEOZhKxnn/+hXTjwoXVTgLtKFBcLfBjuLrF+rnzF9ITT25KV1/9myr+ggUL0j82b+58f8uCYL6LKBctFO7ue+6Zkuc9e/dNecXIokM3wa1OmHtp58vVK4jaIaH8yNVrTXq9KX+VSed79+2vXnXSK0+ql4f/urYK71chY/1wPLwbRBTOBiHM5fbuuGP5tF02Oc+KExlQPnLG4/XZOnYf6VeYU77zsulc/spzaRyw3wcffpi2PL01XXPNtZUNjTtvv/1Op28d+viT9Itf/DJte/a5KXUlu5e++jqtuv+BFAUS29XYoDCxX3/8yeH0wIOrq36pfnzvvSvT6dNnOnYVt1SObmPHbLULdoc3PqjufR965NFH0zffftfhROO87l9XXnllev+DDzv+tNdw24v6p/5hAAZgAAZgYHwZQJhDmGNS/X1Kp8+cTUuWLi0uSrVQ1YLVA512EaxceV8xrBbIEvgcNl8ky78prftWraoW0l4Q5YvkKFroGz+lV4wkiO14aWcnDxYdui2u4wJexy5DneigtN97/4NOOC3WXtyxo/oGUZ5vnSPMjdaNQmxaOJKrc7HSz6us/3pzT/XKqoStaNcMmcEofJk358FhIuOyVWKp5Lfl6acrxnzNdp2HJtdpx/w1hc+vKS2nG13nQeWI5VJ8+amv/vfPfjYtbgzreorim9MviXZ5Wo4vEUW/mD8dx3Ghrr5jGKeNO1r9eTbaQ/1BjLy08z/3E6fTdM1hcOc/I7QxbQwDMAADMAADg2EAYQ5hriOsTGqn0k4A7QjQInnjE0+m8xe+rOrkq6+/Sa+//s+U75jTzhWH9Ws8Wvxu3/5iJZS98uquTp3mi2SnJVFL4SXyqd6VptKW/7vvvV/5WSzw4j62z6nTZ9Kim25KN9+8uBLH/IrRkaPH0vLlf5yyg8Z28gW5z5VH2fYCvtsiXAKchEMJbX9fv75TVosEzpPC6Xfy1OlqZw7C3GAG7cjBTI7V7mZLrs7FSj/C3K7dr1U82F6eLzPYJHx5oS9RSgyZy9yW0qhLx2HzMHVCt/uA3ab82Xadq/xGQS2GK12Tn9K95dYlnT6sfvz8C9ur8UWubWhM0ZizZ+/ejp/6lnYtaafd0WPHO/55Wu7Xir/m4YfTyVOnqn6psevelSvTVb/6Vfrk8Ked+G6HmdSF8407Wn2+1/YwoyUWtFNOQq/C9GqX8OPNBe1H+8EADMAADMDA4BlAmEOYm/hJtYSjhQt/X70SplfD4kDjBb0XHxe+vJj+9Oc7i2EvXrqU/nL33dWrYhL1ZCdfJDstLai1sI5paaedxLYnN22q/C1mlEQI7VDSosgiXrSz/8BbU14xsh2LD7nrsnkBnwtzyuehQx9XYsgtt9yarr32us6uG70W57I+vfWZ2jypDAhzgx/AY7u3PZb4o7bIOWg6j+0XRS+zpYW7fnXCVAxXl0/ZfWjNmsrG1me2VW5JEIjpN9lSOF+vhOSbF1eCsv2i2yZ/MXzpOO/rMUzpWslPcTxGxPxbiNdrqx6j7Je/ZpjbrevXSkvjiNo91rOOc79YFo5Hox/PRTuIpToW8nvjXOSHNCaHPdqatoYBGIABGJg0BhDmEOY6i9dJg9/lbVpg5Ne8gG8SMaKwlS+Sba8pvhfkTsvnzq9cL5ia7HixbTsxX9GWj0sLeO3o++vatbUiTrSpfNaJb03XnD7u3N6AxZDZkqtzsdLPjjmxZn5kS78mNn3N/KhfKF3Z0W45nTt/7jPm2fbNtf0jPw5jP9mwXfsN2lV+64TJ0rWSn/LkcqkMzqN3x+lbc9qZKn/toiuJ87ldt4vr2jblqu7UFrEOS34xDsdz20+HWd9iKefD+WHH3ORw4DbHpc1hAAZgAAZgYPYYQJhDmOss/ia1o3nhr0VIXgf5NS+aLSyU3LgAzhfJtleKZz8vyJ2Wz2PevGBynJLrxbbtxHxFWz4uLeD16pxegdPrsdqdJ1vaIVcKq3wizM3eYO12GpQrhsyWXJ2rffsV5pQv2ShxZgbNZF4Gp18S0GQzcqWwMd+l9GIYpVWym+dhpufK52wJc8qbXxXXblvt3NW/Zern1+Gd/zwfpb7qsCURruTn8Ljj078H0VZmYffu16bdG7UzW/ed0vfnBpE2NiaLNdqb9oYBGIABGJh0BhDmEOamTbgnrVMcO34iXXfd9emxxx+f9nqphTQtdlUvfpVV/zQa/6Wurs7yRbJfU9Nrn3Vx7G8x49G/rZuWL72Cpm/ffXTwUGs7JQHDacktLeCV//wbVHVh9b25OmFCQkkUV2K6HA/nRqy2NddqHx2LOXEiV+xLpNOxFuhuvyh6mVFdVzvKhjlTfL2aKq5iOPn7dW2zJJtOM+5sczznU+Fj+u6fTt8sxTDyU7ho1+EG6SqPpb6iNHQt7xslP4V1mVWGmD//A6ted3911w+75eL3LB02t1vq1w5r4SXWn/0kvDgc7nD66LDr3f0rf13aOzi1Y5N/ZZ1MNobNJunDHQzAAAzAwHxjAGEOYW7iF1/acaKdJ/rjhd2vvZmSlOYAACAASURBVJ70DS79Dh76OP35zjurXQFa7Lrz688fLr/8x5W4oEW0Fin66Vg7C57Ztq0TNl8k+88fFixYUP35w7nzF6qwii/R7oXt2ysbSksfZ9c33fSTeOj05fr7UvpwvHay+TtvcvU9OO2q+ezI0SqOF/oWTKKdeFxawGs3hHbM6UP0qhPl8/TpM2nz5qeSyhBtenfd6tUPVXUh2yrfzpdfSb/73TUdYSemyfHwbqoSfsy1j7UQtxgXjyXWtBHmoiBmm2pjMyg7Xuw77ciArkUBTTacrsPFNOSn88ih/eTvOLld+0fXeXxzz3/+YCFe73asvqIdRM89/0LVV2L4fBzQtZKf/J2PmH/bkhCnNCSISKDTOOBrdnO7pX7tsBbh5NrvnXffq/r8unWPVaKq/XGH11eHVfd190b9I7iE5tI/BQ8rr6Q7eXzS5rQ5DMAADMDAfGIAYQ5hrrMgm09g91oWLTQkzOWvhP73z35WLVKjiKDFysqV900L67hxQZ0vkpWv02fOpiVLl9bGd1oW8WxXbtx1U5fnPJwX+rl4kddRaQGvf3u8/vobpuVVu/V+edVVUwSRunqRsHfFFVdME1jy9Dmfu5ur29qCjJgVdzo3J1GYi22jsGbcbJlR8yk7UVBzOKdncc7nth8FNIdxf3CYmL78HC7aimEklFf5afjzB9lxHvsV5vyqqetCruupNA6U/GI+HNfllmtBXrZLfyCjMLldt7XbNdpTvchWrLuYhstSihvtcDx3fXeu61pslO6NGtf1b8xznR/Sm7+s0ba0LQzAAAzAwCQzgDCHMMfE+vtU7QTbs3dfWrTopmqhes0116YtT29NH3z4YSWG5eKAXit7+ZVX0+LF/1sJd1rAKq7+TVL/rupBJV8k218iluzfuHBhlZ4WOUuXLUs7XtqZzl/4shNfYsHatY9UCyOFue2229PxEyc71yWcPbh6dbV7TXnQAmrVqvurhbZ2uCk9Cw7dFtd1C/hPDn+abrv99qqc2iW3fv2Gagef7OU28/yqTBIQtfsmCjWuB9zh3ICjAKY2kAgkVvWzIKQw3j0X20nXHcZsRWGnJJSVwimtnImYL13P+XJenb7OzW3007Feo1V82Yl2Y1niscPE/hWvdzvWbtI4hqivPLPt2aoPKg8WLW2n5KdrrqtYHsdRGhs2bkzxTyB8zW5u1/VTqsuSMCc7H350sNPnNaYoL96V63Rwh9N357rexZzug/rOqHaK+16lcV3X5jo/pDcZ3NHOtDMMwAAMwMCkMYAwhzDHxPp7Br7ZHPguXrqU/nL33UWRZTbTxXY91xJvJNToW4USdCUaSaSRUGaRTUJVP8KcbOsX61+2nEb0l+Dj9ORvcUxuDOdji0y5fV+3K7sql23Xpe/wchVH5Y/CeLw+Csd+tbD0pw+jkD/yUN/nqBvqBgZgAAZgAAZgAAZgoI4BhDmEueICuA4Y/BlMemFAQoJeJdQui/jB/15sEHawzGmXi0Q5i1auX53L/8TJU5VAJWFLYpWuSwjTuX+O691dPrctuxbIFK+0Y8vh7JaEOYtxTjvfZee4dpUnCYq5uJeXwfbs5jvabG+UXH1PUt+XK/3pwyjlk7wMts9Sn9QnDMAADMAADMAADMxvBhDmEOYQ5tgxNzAGohBjwUOuvqmnb+txQ5nfNxTad/ba19+crPvTB+p+9uqeuqVuYQAGYAAGYAAGYAAGZpMBhDmEOcQShLmBMbB9+4vphhtu7Hx3z9+ki9/dm80BDdvcMOcrA/qepL59WfenD/O13JSLPg0DMAADMAADMAADMDDfGUCYQ5gbmCgz3zsL5eOGAAMwAAMwAAMwAAMwAAMwAAMwAAMwMEgGEOYQ5hDm2DEHAzAAAzAAAzAAAzAAAzAAAzAAAzAAA0NgAGEOYY6ON4SON0h1HVs8rYEBGIABGIABGIABGIABGIABGICB8WQAYQ5hDmEOYQ4GYAAGYAAGYAAGYAAGYAAGYAAGYAAGhsAAwhzCHB1vCB2PJxnj+SSDdqPdYAAGYAAGYAAGYAAGYAAGYAAGBskAwhzCHMIcwhwMwAAMwAAMwAAMwAAMwAAMwAAMwAAMDIEBCXNHT36evrjwg0A1qe7/GbWCf3b0LB1iCB1ikKo3tniKAgMwAAMwAAMwAAMwAAMwAAMwAAMw0MTA+S+/SsdPIcyNnDB3+Ojp9O133yPOIc7BAAzAAAzAAAzAAAzAAAzAAAzAAAzAwDxl4NTZC+nk2S/YMTdqO+aOSS09f5GON087XpNazjWepsAADMAADMAADMAADMAADMAADMDAZDBw+NiZiRflpMmN3I65z89/mQ4f43VWBqLJGIhoZ9oZBmAABmAABmAABmAABmAABmBg0hj4/NzFdJTXWCthcuSEOamFJ86cS8dPn2fXHLvmYAAGYAAGYAAGYAAGYAAGYAAGYAAGYGAeMXDh4tfp8NEz6ez5yf7TB7/BOpLCnHbNHTv9RTp26lz65tvv6IDzqANO2lMAysuTLxiAARiAARiAARiAARiAARiAARj4gYFz5y+lj4+cSWfOXUCY+/e/0Y6sMCdx7uTZ85WKqg8CfnnpG/4UAoEOkRYGYAAGYAAGYAAGYAAGYAAGYAAGYGCMGPj6m++SBLkjJ75IR06cTdJ79GPH3A87BkdSmPN2Prunzp6rGk//2MqPOoABGIABGIABGIABGIABGIABGIABGICB8WDgs2Nn0vFTn6ez5y7wZw//3iVnvUvuWAhzMcMc8w42DMAADMAADMDAfGPgn0cuJf3mW7koD30VBmAABmAABmAABpoZQJgrqJVA0wwN9UP9wAAMwAAMwMBgGVj37rcIc8zJEGZhAAZgAAZgAAYmkAGEuQlsdBZTg11MUZ/UJwzAAAzAwEwZQJiDoZkyRHwYggEYgAEYgIHxZABhDmEORR4GYAAGYAAGYGDIDCDMjedEmgUQ7QYDMAADMAADMDBTBhDmhjwRn2kDEp9BAAZgAAZgAAbGnwGEufFvQ/ohbQgDMAADMAADMNAPAwhzCHPskoABGIABGIABGBgyAwhzTOT7mcgTB25gAAZgAAZgYPwZQJgb8kScTjT+nYg2pA1hAAZgAAZmygDCHAzNlCHiwxAMwAAMwAAMjCcDCHMIc+ySgAEYgAEYgAEYGDIDCHPjOZFmAUS7wQAMwAAMwAAMzJQBhLkhT8Rn2oDEZxCAARiAARiAgfFnAGFu/NuQfkgbwgAMwAAMwAAM9MMAwhzCHLskYAAGYAAGYAAGhswAwhwT+X4m8sSBGxiAARiAARgYfwYQ5oY8EacTjX8nog1pQxiAARiAgZkygDAHQzNliPgwBAMwAAMwAAPjyQDCHMIcuyRgAAZgAAZgAAaGzADC3HhOpFkA0W4wAAMwAAMwAAMzZQBhbsgT8Zk2IPEZBGAABmAABmBg/BlAmBv/NqQf0oYwAAMwAAMwAAP9MIAwhzDHLgkYgAEYgAEYgIFZZuDgqYvp2UPf1P4kzD35Yf11xe1nokccFggwAAMwAAMwAAMwMNoMIMzN8kScDjDaHYD2oX1gAAZgAAbmggGEOTibC85IA85gAAZgAAZgYPwYQJhDmOMJPAzAAAzAAAzAwJAZ4FXW8ZtEs/ChzWAABmAABmAABgbBAMLckCfig2hEbDAYwAAMwAAMwMB4M4AwN97tR/+j/WAABmAABmAABvplAGEOYY5dEjAAAzAAAzAAA0NmAGGOyXy/k3niwQ4MwAAMwAAMjDcDCHNDnojTgca7A9F+tB8MwAAMwMAgGECYg6NBcIQNOIIBGIABGICB8WMAYQ5hjl0SMAADMAADMAADQ2YAYW78JtEsfGgzGIABGIABGICBQTCAMDfkifggGhEbDAYwAAMwAAMwMN4MIMyNd/vR/2g/GIABGIABGICBfhlAmEOYY5cEDMAADMAADMDAkBlAmGMy3+9knniwAwP/j703YZai2vZ9v9j5Ci/ivIgb8bZnx333ea77er1bz95ih4od0tghyFZkq6iIyAIBaUVEVFoRFJTGjkb6btFKK6jzxX+6RzlqrsxataqyKitX/VbEiszKnDmbMX5zVo5/zZkJAzAAAzBQbQYQ5kq+EacDVbsD4T/8BwMwAAMwUAQDCHNwVARH5AFHMAADMAADMFA9BhDmEOaYJQEDMAADMAADMFAyAwhz1buJJvDBZzAAAzAAAzAAA0UwgDBX8o14EU4kDwYDGIABGIABGKg2Awhz1fYf/Q//wQAMwAAMwAAMtMoAwhzCHLMkYAAGYAAGYAAGSmYAYY6b+VZv5rkOdmAABmAABmCg2gwgzJV8I04HqnYHwn/4DwZgAAZgoAgGEObgqAiOyAOOYAAGYAAGYKB6DCDMIcwxSwIGYAAGYAAGYKBkBhDmqncTTeCDz2AABmAABmAABopgAGGu5BvxIpxIHgwGMAADMAADMFBtBhDmqu0/+h/+gwEYgAEYgAEYaJUBhDmEOWZJwAAMwAAMwAAMlMwAwhw3863ezHMd7MAADMAADMBAtRlAmCv5RpwOVO0OhP/wHwzAAAzAQBEMIMzBUREckQccwQAMwAAMwED1GECYQ5hjlgQMwAAMwAAMwEDJDCDMVe8mmsAHn8EADMAADMAADBTBAMJcyTfiRTiRPBgMYAAGYAAGYKDaDCDMVdt/9D/8BwMwAAMwAAMw0CoDCHMIc8ySgAEYgAEYgAEYKJkBhDlu5lu9mec62IEBGIABGICBajOAMFfyjTgdqNodCP/hPxiAARiAgSIYQJiDoyI4Ig84ggEYgAEYgIHqMYAwhzDHLAkYgAEYgAEYgIGSGUCYq95NNIEPPoMBGIABGIABGCiCAYS5km/Ei3AieTAYwAAMwAAMwEC1GUCYq7b/6H/4DwZgAAZgAAZgoFUGEOYQ5pglAQMwAAMwAAMwUDIDCHPczLd6M891sAMDMAADMAAD1WYAYa7kG3E6ULU7EP7DfzAAAzAAA0UwgDAHR0VwRB5wBAMwAAMwAAPVYwBhDmGOWRIwAAMwAAMwAAMlM4AwV72baAIffAYDMAADMAADMFAEAwhzJd+IF+FE8mAwgAEYgAEYgIFqM4AwV23/0f/wHwzAAAzAAAzAQKsMIMwhzDFLAgZgAAZgAAZgoGQGEOa4mW/1Zp7rYAcGYAAGYAAGqs0AwlzJN+J0oGp3IPyH/2AABmAABopgAGEOjorgiDzgCAZgAAZgAAaqxwDCHMIcsyRgAAZgAAZgAAZKZgBhrno30QQ++AwGYAAGYAAGYKAIBhDmSr4RL8KJ5MFgAAMwAAMwAAPVZgBhrtr+o//hPxiAARiAARiAgVYZQJhDmGOWBAzAAAzAAAzAQMkMIMxxM9/qzTzXwQ4MwAAMwAAMVJsBhLmSb8TpQNXuQPgP/8EADMAADBTBAMIcHBXBEXnAEQzAAAzAAAxUjwGEOYQ5ZknAAAzAAAzAAAyUzADCXPVuogl88BkMwAAMwAAMwEARDCDMlXwjXoQTyYPBAAZgAAZgAAaqzQDCXLX9R//DfzAAAzAAAzAAA60ygDCHMMcsCRiAARiAARiAgZIZQJjjZr7Vm3mugx0YgAEYgAEYqDYDCHMl34jTgardgfAf/oMBGIABGCiCAYQ5OCqCI/KAIxiAARiAARioHgMIcwhzzJKAARiAARiAARgomQGEuerdRBP44DMYgAEYgAEYgIEiGECYK/lGvAgnkgeDAQzAAAzAAAxUmwGEuWr7j/6H/2AABmAABmAABlplAGEOYY5ZEjAAAzAAAzAAAyUzgDDHzXyrN/NcBzswAAMwAAMwUG0GEOZKvhGnA1W7A+E//AcDMAADMFAEAwhzcFQER+QBRzAAAzAAAzBQPQYQ5hDmmCUBAzAAAzAAAzBQMgMIc9W7iSbwwWcwAAMwAAMwAANFMIAwV/KNeBFOJA8GAxiAARiAARioNgMIc9X2H/0P/8EADMAADMAADLTKAMIcwhyzJGAABmAABmAABkpmAGGOm/lWb+a5DnZgAAZgAAZgoNoMIMyVfCNOB6p2B8J/+A8GYAAGYKAIBhDm4KgIjsgDjmAABmAABmCgegwgzCHMMUsCBmAABmAABmCgZAYQ5qp3E03gg89gAAZgAAZgAAaKYABhruQb8SKcSB4MBjAAAzAAAzBQbQYQ5qrtP/of/oMBGIABGIABGGiVAYQ5hDlmScAADMAADMAADJTMAMIcN/Ot3sxzHezAAAzAAAzAQLUZQJgr+UacDlTtDoT/8B8MwAAMwEARDCDMwVERHJEHHMEADMAADMBA9RhAmEOYY5YEDMAADMAADMBAyQwgzFXvJprAB5/BAAzAAAzAAAwUwQDCXMk34kU4kTwYDGAABmAABmCg2gwgzFXbf/Q//AcDMAADMAADMNAqAwhzCHPMkoABGIABGIABGCiZAYQ5buZbvZnnOtiBARiAARiAgWozgDBX8o04HajaHQj/4T8YgAEYgIEiGECYg6MiOCIPOIIBGIABGICB6jGAMIcwxywJGIABGIABGICBkhlAmKveTTSBDz6DARiAARiAARgoggGEuZJvxItwInkwGMAADMAADMBAtRlAmKu2/+h/+A8GYAAGYAAGYKBVBhDmEOaYJQEDMAADMAADMFAyAwhz3My3ejPPdbADAzAAAzAAA9VmAGGu5BtxOlC1OxD+w38wAAMwAANFMIAwB0dFcEQecAQDMAADMAAD1WMAYQ5hjlkSMAADMAADMAADJTOAMFe9m2gCH3wGAzAAAzAAAzBQBAMIcyXfiBfhRPJgMIABGIABGICBajOAMFdt/9H/8B8MwAAMwAAMwECrDCDMIcwxSwIGYAAGYAAGYKBkBhDmuJlv9Wae62AHBmAABmAABqrNAMJcyTfidKBqdyD8h/9gAAZgAAaKYABhDo6K4Ig84AgGYAAGYAAGqscAwhzCHLMkYAAGYAAGYAAGSmYAYa56N9EEPvgMBmAABmAABmCgCAYQ5kq+ES/CieTBYAADMAADMAAD1WYAYa7a/qP/4T8YgAEYgAEYgIFWGUCYQ5hjlgQMwAAMwAAMwEDJDCDMcTPf6s0818EODMAADMAADFSbAYS5km/E6UDV7kD4D//BAAzAAAwUwQDCHBwVwRF5wBEMwAAMwAAMVI8BhDmEOWZJwAAMwAAMwAAMlMwAwlz1bqIJfPAZDMAADMAADMBAEQwgzJV8I16EE8mDwQAGYAAGYAAGqs0Awly1/Uf/w38wAAMwAAMwAAOtMoAwhzDHLAkYgAEYgAEYgIGSGUCY42a+1Zt5roMdGIABGIABGKg2AwhzJd+I04Gq3YHwH/6DARiAARgoggGEOTgqgiPygCMYgAEYgAEYqB4DCHMIc8ySgAEYgAEYgAEYKJkBhLnq3UQT+OAzGIABGIABGICBIhhAmCv5RrwIJ5IHgwEMwAAMwAAMVJsBhLlq+4/+h/9gAAZgAAZgAAZaZQBhDmGOWRIwAAMwAAMwAAMlM4Awx818qzfzXAc7MAADMAADMFBtBhDmSr4RpwNVuwPhP/wHAzAAAzBQBAMIc3BUBEfkAUcwAAMwAAMwUD0GEOYQ5pglAQMwAAMwAAMwUDIDCHPVu4km8MFnMAADMAADMAADRTCAMFfyjXgRTiQPBgMYgAEYgAEYqDYDCHPV9h/9D//BAAzAAAzAAAy0ygDCHMIcsyRgAAZgAAZgAAZKZgBhjpv5Vm/muQ52YAAGYAAGYKDaDCDMlXwjTgeqdgfCf/gPBmAABmCgCAYQ5uCoCI7IA45gAAZgAAZgoHoMIMwhzDFLAgZgAAZgAAZgoGQGEOaqdxNN4IPPYAAGYAAGYAAGimAAYa7kG/EinEgeDAYwAAMwAAMwUG0GEOaq7T/6H/6DARiAARiAARholQGEOYQ5ZknAAAzAAAzAAAyUzADCHDfzrd7Mcx3swAAMwAAMwEC1GUCYK/lGnA5U7Q6E//AfDMAADMBAEQwgzMFRERyRBxzBAAzAAAzAQPUYQJhDmGOWBAzAAAzAAAzAQMkMIMxV7yaawAefwQAMwAAMwAAMFMEAwlzJN+JFOJE8GAxgAAZgAAZgoNoMIMxV23/0P/wHAzAAAzAAAzDQKgMIcwhzzJKAARiAARiAARgomQGEOW7mW72Z5zrYgQEYgAEYgIFqM4AwV/KNOB2o2h0I/+E/GIABGICBIhhAmIOjIjgiDziCARiAARiAgeoxgDCHMMcsCRiAARiAARiAgZIZQJir3k00gQ8+gwEYgAEYgAEYKIIBhLmSb8SLcCJ5MBjAAAzAAAzAQLUZQJirtv/of/gPBmAABmAABmCgVQYQ5hDmmCUBAzAAAzAAAzBQMgMIc9zMt3ozz3WwAwMwAAMwAAPVZgBhruQbcTpQtTsQ/sN/MAADMAADRTAgYU7/Zy5dQyTl3gwGYAAGYAAGYAAG+ogBhLk+cnYRgQN5EIDCAAzAAAzAQPEM/HDmehTmDp5FmIOv4vnCptgUBmAABmAABnqXAYQ5hDmUeBiAARiAARiAgZIZ2P8vYU5bbpx798YZ3+AbGIABGIABGICBohlAmCv5Rrxoh5IfgwQMwAAMwAAMVIeB7SeuhxUHbsbZcracVZ+/OolAB8fV4Rhf4SsYgAEYgAEYaJ0BhDmEOX6ZhwEYgAEYgAEY6DID5y5fCx/+eCMKcttO/hr2nv8tnL76W9xuPvZrPK7zSseNbus3utgO28EADMAADMAADPQ6AwhzXb4R73UgqB+DFgzAAAzAAAx0noHVP94IS/f9Eo5d+i1k/em4zkucwx+d9wc2xsYwAAMwAAMwAANlMYAwhzDHDT8MwAAMwAAMwEAXGdDyVS1bzRPlTKjTeaVT+rJuFCmXIAUGYAAGYAAGYAAGOssAwlwXb8SBubMwY1/sCwMwAAMwUAUGVu6/GbR8tZk/LWvVM+eq0C7qSP+DARiAARiAARiAgZEzgDCHMMfNPgzAAAzAAAzAQJcY0DPjNAtOz5Rr5k/plJ5nzY38JpfAAJvBAAzAAAzAAAxUgQGEuS7diFcBBurIoAUDMAADMAADnWXg4LnfhTm96KGZP6WTMKfr8E1nfYN9sS8MwAAMwAAMwEAZDCDMIcxxow8DMAADMAADMNAlBpgxxw1/GTf8lAl3MAADMAADMNC7DCDMdelGnE7Qu50A3+AbGIABGICBbjKgZ8xtPt78M+aUvpv1oyz6AwzAAAzAAAzAAAx0jwGEOYQ5bvZhAAZgAAZgAAa6yABvZe3ejS5BBbaGARiAARiAARjodQYQ5rp4I97rMFA/BiwYgAEYgAEY6A4Dq3+8EZbu+yUcu5T9rDkd13mlwyfd8Ql2xs4wAAMwAAMwAANlMIAwhzDHDT8MwAAMwAAMwECXGNBLHPS/78z1sGTvzfhiBy1r1dtXB6/+Frf6rBc+6LzS2TVl3ChSJgEKDMAADMAADMAADHSWAYS5Lt2IA3JnQca+2BcGYAAGYKAKDEhwa/W/Cu2jjvRDGIABGIABGIABGBgZAwhzCHPMkoABGIABGIABGOgSAzb7Ld0u2/f77Lnl+27WZsilabjJHdlNLvbCXjAAAzAAAzAAA1VgAGGuSzfiVYCBOjJowQAMwAAMwED3GZAA52fRHb1wDaGU+zMYgAEYgAEYgAEY6BMGEOb6xNEEWt0PtLA5NocBGIABGGiGgc1Hb4TFe39f4qqtPjdzHWngCwZgAAZgAAZgAAaqzwDCHMIcN/8wAAMwAAMwAAMlMXD64u+z5TYfuRFnzW3411bHudGu/o02PsSHMAADMAADMAADwzGAMFfSjfhwjuE8nRcGYAAGYAAGRj8DW4//HAW57wev1223n7iOMMc9GgzAAAzAAAzAAAz0AQMIc33gZAK70R/Y4WN8DAMwAAPVY+Dc5Wthyd6bcenqwbO/z5zTVktZdVzn8Wv1/IrP8BkMwAAMwAAMwMBIGECYQ5jjph8GYAAGYAAGYKAEBnaf+n22nF724IU5exnEd4PMmhvJTS1pCYJgAAZgAAZgAAaqyADCXAk34lUEhTozwMEADMAADMBAsQys2H8zrD10M4qiXpiTnXV8xYHfz2H3Yu2OPbEnDMAADMAADMBALzGAMIcwxywJGIABGIABGICBLjOg2XALf/gl7Dvz+6y4VJhLz/fSzSN1IZiBARiAARiAARiAgeIYQJjr8o048BYHL7bEljAAAzAAA1VlIM6I2//HjLhUmFO7NKPu43/NqKtqO6k3fRQGYAAGYAAGYAAGGjOAMIcwxywJGIABGIABGICBLjKQ9Qy5LGHOP4OOG9rGN7TYB/vAAAzAAAzAAAxUlQGEuS7eiFcVEurNAAcDMAADMAADxTGQ9dbVLGHOv7UV+xdnf2yJLWEABmAABmAABnqJAYQ5hDlmScAADMAADMAADHSJARPbtp+of+NqljCnG8atx38OS/beDLqul24gqQsBDQzAAAzAAAzAAAwUw0DhwtzFy1fCuYuXw9kLl/jHBjAAAzAAAzAAAzCQMHD6/OWg/2bulUaStpn8SMP9KQzAAAzAAAzAwGhh4MKlK6Pih8vChDk59vjp8+HYqYvh1Jmr4fS5a/xjAxiAARiAARiAARiAARiAARiAARiAARiAgcIZkPZ0cvBSOHXmQqUFukKEuRODF8Lx09fC4VMh7D/GPzaAARiAARiAARiAARiAARiAARiAARiAARjoPAOHT4ZwYvBaXI1QxeW1bQtzmiV3fPAmghyCJAzAAAzAAAzAAAzAAAzAAAzAAAzAAAzAQCkMSJvSas6qiXNtCXODZ38KxwdvlGJwVOfOq87YGBvDAAzAAAzAAAzAAAzAAAzAAAzAAAxUhYHjZ270jzCnlzwcO3UJUQ4lHAZgAAZgAAZgAAZgAAZgAAZgAAZgAAZgoCcYOH2umLeldmvmXcsz5gbPa7YcS1irohpTT37hgAEYgAEYgAEYgAEYgAEYgAEYgAEYGO0MSKvqlqhWRDktC3N6thwvhH18EQAAIABJREFUe6BDj/YOTftgHAZgAAZgAAZgAAZgAAZgAAZgAAaqw4BeBnHh0pXKiHMtC3PHTp4PB5im2RPTNBkgqjNA4Ct8BQMwAAMwAAMwAAMwAAMwAAMwAAOdY0BaVZVeAtGyMHf05DlEKYRJGIABGIABGIABGIABGIABGIABGIABGICBnmIAYQ4gewpIlPjOKfHYFtvCAAzAAAzAAAzAAAzAAAzAAAzAQG8xgDCHMIcwBwMwAAMwAAMwAAMwAAMwAAMwAAMwAAMwUAIDCHMlGB11urfUafyBP2AABmAABmAABmAABmAABmAABmAABspgAGEOYQ5FHAZgAAZgAAZgAAZgoAsM/HDoZtj5w6WW/787+PMQP814bXH4v/79lrBgyca6cypr6otzw30PTg4fb9pbd66ZoGPf0d/Cnn1XGtZVZfi83nt/axg/eUYsb++RX8OuvZcbXm+2yGqXz1fnJz/3Wmyn2uvPsU8QDQMwAAMwUHUGEOa6cBNWdUioPwMdDMAADHSXAQWrCqYVbP/vv44Nn20/TiDK93XfMPDRhu8j+1Xj3/db1d3+JSiZ8OTbZudHspX4tvXrU+HR8S/EMULjxP+8fUws6467Hqwd+8fMBeHLPWfD/Q89Ff7zf90dNmw9lMnPp58dqF2jvOxf1+/64VJNDMuro9pj3w8S4R4ZPy38tz/dGpas+iIKcjaO5V1vx01UXLtxb3jljWVD/l+etTj8bczjsZ0PPPz0kPN2ja5XfbyQZ2Voy3ja3e8yY4MtdocBGICBxgwgzHGjX7uhorM07izYB/vAAAwUxYAP4LMCxeHOF1UP8oHpdhnoBKtevPL9IxVbvCjUbjuKuN7bwotBRQtzEuplF19Guq8y16z7Nvz5f9wRbvvf94aXXllYJ2a9NbAmfHPgWvC29nnoerVHW3883fc+WPXxrijKacbcnv1XWxLmJNClZYzkswl8KSuWh+epCJ+TB2MoDMAADMBAEQwgzCHMIczBAAzAAAx0mQEfwGcFisOdL+IGgDy4kSyCgW6ymootXhQqoi3t5uFt4cU4n68JYVn93qfz+z5fE578+bylrHPmf5Qrcmkmm/K1+kx4embYvudseHvB2nhNKszpuNLrX+mUXmKX+UBCnAQ5zZZ7/6Ov4xLWr7+/GGfgWVu9/+y6tO5f7BoMqz/dM+RfeT702JRY5qRnXx1y3q7R9d42tm/lWF3sOFvGQRiAARiAgV5gAGGuy8FYLzidOjD4wAAMwEC5DPhAOytQHO48/ivXf9j/D/t3k1Uv7HhRqFf84W3RrDCnNum6vH87b0tCJcx9d/BG0FJTW3aaLmXVMlctXX3yqd/Fs2emvlGbLad92W78pBnhm/1/zJiz+tqMtVSY84Kg94MJbO8u2xxFOeWvpbb3jp0Y7r5vfPgf/3lXbflo1nUmmPn8N395dIjw1owwp+vyWLByssbbvGs4/kc/xxbYAgZgAAY6ywDCHMJc7k0Mna+znQ/7Yl8Y6E8GbIaKLa3yWwsafYCvY+u2HAhaenbn3x+JQfU9D0wMq9buCno4e7scffvj9fjQeD2LSrNdVB+V8+Y7q+OD333+Ftwqzfz3NoQNWw/WZslYYO3TaMaOr7cEhDfmrqo9b0t5+2V5Eho04+X1t1fF52apPpqFs2XHidhWlaeZOv/Pf/wlnk/z8nVtdt+XLzFBdrUyVL6embX+84N1dtZzrJ5+/vXw93ufqNlMaeUXtVc2Vfl6+P2L/1wQbSqbzXprZZ3Ptn9zLtx935M1m2/deToKNCbCyPcbtx0O7y7dVPP92HHPBpUv32/beTpMmT4nih8SQP4xc358LljadtlUz+jSM8hUD9VVs49Wrvk67D3yS61tKXdp2eLivZVba21ohuW0Ls189j6RLVQvf0xtSP9NIFL+7TCtvmbPSbv9/9wf3ln4Sfj+0I2Yp7Gcx4W3nwldaXvNZtbXTQhL22Ofdd7nq89e4LJ0fqu8Fy7bHJ8tJ6Z3fHO+5mMdV1otbRVDVh+rr9UnFeaemPRSTdzzz3vT9eJLIpzy1XU2m04CoZixtvp6m79svFC5Zis75tvUzL6uszzSreVpdUnP87k/v4/xO36HARjoFQYQ5hDmcm9iegVS6sGACQMwMJoYsEA4K9C0oNEH4hIB/r/b/jZEiNBxPWC9Hdt89d2FKEJk1UXHHnr0uaA0VoYFtzonUUoCmV1rgbVPY+fS7fP/eDuKHcrXCy7K7/+99c5annadxBmJTr48Ozf33U9q9bN6jmTry7c8061Er08/218rx8SLNJ19lrCjB+GrHvK3fKVzDz/2fO24zr2/dmetrS+8PBCFvGZ8L05kZ5spZeVqKyFQgqDZ4MN132ams2v00HwT55opW23R7CVrm+WTbo1lq8dItt4nIxXm2mFa/cx85dsj9iSI+mPaT0Uvbz8TutJ2W/83+wzHks77fK2fpfmmnyUiqo7iYdaclXF23eIVnwdxpuNL/zV2WH30YgUJbhLgdD4V5nQs61/X7/z+p/iSCX9e7dM5+c/a2qwwt3z19poIaC918GJg3ssfdF1qB/ts45LVxY6z5f4CBmAABmCgFxhAmEOYy72J6QVAqQMDJQzAwGhkwAfaWYGiP6+Ht0uAk3iiwHbGq4tqAfIjT0wbMqutWXtpFpAEMgXTKkNL0VSGZhtN/1fwrnNe+LLgVsdfm70is2yfRvno2VOamaOgWQKXlae3QaquXoSRLfSsKKXXGyUfGPdMra0vzJgXBQqdm7doXe24Lclrtt1purT8tRt/iOXr+Vh6lpXqq3/NTPvh0M1YZ9lKftCSPdVHdtN1NqNR6SWIqSwJdBLkdEyij8QKHVdeytOO68H5Op76ftHyLVHE1LLDSc+8UquP2q2ZSipfs/zkQ+WlGXiaiae8NKPO3mQ55v4n4+w7pf/8q5NRMFF6vRhg0xdHcssWc2LF+9Xbwtc3i2XVY6T/3icmzCkPL+yo7mZLy79dpvMYa8SlxFUr39tipMKcb6fPJ0+Y8/6QLfy/+UFLO8WopV3x4Y7YD5+aMivYsk/Z0F9r+6kw12jGnJjSiybEoWbJKQ/NepVgp3aJzWkvvROFP+PRltdKZFN6tVP5qL+o/em/f66dxpX0vH3W9crHfGJbs4HZxo6zHXn/xGbYDAZgAAaKZwBhroUbRkAsHkRsik1hAAb6iQEFkQpYFZBmBYqNzuvZUf/5v+6O12qp3ebtx4YEoc3YUuLM//mvh2I+qbgl0cyEHi8wWHBrgXRWOXlpJCypHF2r/4HF62O980QYBddabmfp/UyhvGuy6jPcsUZ5+Rltmh0lsS4vv0b1lbhp7bAZbRLV/mvMY/G4n0nXyPeymeUjO1td8q6xZYu6RsuKLb22mkVleZlt8/JRegmNlt4z0egaX95I9vN8MpwwVyTT6lfqX2qzF83UjjzGvS28jXzbTQizfi/bp2X4fHQ+/az83pz7QayX6pb+SxyTIKd03mZeRLQ6WX2GmzFnjKR5enF09affRPFdPKuv+HobO3nbtJ156YY7nvrK2mk+M7vbcbbce8AADMAADPQCAwhzCHN1N+q9ACV1YHCEARgY7Qz4gDUrUGx03j+XTEGqD4xHYjcLyEcS6Fpwq2t8oO7LzUuTCldKp+vyRBidy8ur0TW+Ls3sN8rLizPeT2qLrnv97ffjs9r8s+bMnt4+mpGmmWk6ZzPatJTQ0vpZiY18rzztGrOf2ph3jbefXZe1tbzy8lEZnhcvOjW6phn7Z6XJ84kXmdSOlH1fx6x22jEv3ngbeZ/l1UH1zbvG28LbyLfR6mg8mU99nXw+Op9+1gzNvJllSqt/mzm2Z9+VoJm1arvEWF8X7Vt9rL5WH31WPtrq2vnvrY+fdczPXjMfaAmxlr5L0P/g491x1tqOb89H0VA/JChf/wIHLbXV7Fiblarz3xy4Fp/RaMtXtZWt/UxU1cVEREs38/Ul4dEnp8e0ylf5pO00n5nd0/N85r4DBmAABmCgTAYQ5hDmhty8lAkkZTMgwgAM9AMDCm4ViCvIzAoUG533M620NFIvAmjFZhaQqw6N/r1gYMGt0iuQzio3L41fuqnr//n6knh9KwJIo2uy6tToWKO8/MxBzS7UjCyJIq/OXp75LDJvR28fLbF8dtrsmp0XLf+s9jn1fyPfK08rQ3a2duVd431h12VtLa+8fFSO58VEHB1vdI3Vb6TbPJ+MZmFOz0/UcmP1N23teYryubexPnv7ZPlTx6zf+rTpzFjvV/OpMabPX393sW6Wa1ZZ4kLL303AU71NhLZn2xnj3n8m6BmjKjflROn1bDl77t+Djz5Xe9GJZucpvWbiamnrf/z322vLYdN89NnKsbpkpeEY9x8wAAMwAANlMYAwhzA35EaoLBgpl4EQBmCgXxjwgXZWoNjo/Ceb9tWWmWoppIS6VuzmA3a/lLJRXhbcKkDPCqR1bV4azeCxZ63penv4vK+HiQlWh7y8Gl1j1za7bZSX3kBqYoQ9z8+LdRIgVqz5qjY7Ka++qotfFqsZPyZeSLCTcGf1beR7E01UJ5U13DU+ffpGWLvWbxuVXQVhzvuyXaZ9Xs1y6e1nQpe3r/bNjtbvvY+MNb/VeZ+vPmsmmmZr2owxe2GDuBIX+reZY55hzVxbt+XHGje+PnqTqmbCvb1gbWRe9ddzHtV2X590X+3RDFIJaOk5vWxC11tbRyLM6fmIj034Ry1P5W9CncrRLLrZ8z4Mf/3buFoaPbfO3oic2t36ptUlPc9n7j9gAAZgAAbKZABhDmGu7gatTBgpm8EQBmCgXxjwy8sUZOplBgpurf0+ENdzrjZuOxzPKVD2z2nzbze1a5vd+gflqw5686QCftVD/9rXEsupL86NAbHyteBW6SUQZJXl01i7FFAr4LeZL5oRJBFA17cigDS6JqtOjY75vO55YGJ8C63av2XHibqXT6j+Om7Cimygl1PIJ8pfwqOEAR3Pss+Ob87Ht3jaeW1lD3vpg9XR+z4VEbyIIzsPd41/+YNevLF4xZaacKGZf5u+OBofyq+XWSivRmX7dnvRaTiWrY4j2XqfeFEsnXUpG3hRs0im8+qgdnjGfT/w9vM28m03O5pvJaxrSWfev877fK085aNZnHp2oL0MRWODZqLe/9BTkV8Tw8WZiXfpmGH18VxqX/WXCK3xJ/0BIEtg07Lv997fGl8qYctord7W1qzrzJbWLglrmmlnMwatXnbelszacW31xly9NVn909va71s5Vhd/jn3uPWAABmAABspmAGEOYS73JqZsOCmfARIGYGC0MqAAUm8t9MGl9i1otIA2Pe8/S7CwB7y3aicFuY+M//35Uz5vv+8FBgtudd4C5bRsn8bnY/sKuPWmUbuuFQGk0TWWb7Nbn5fVMd3q+VX24gdt/cy/NK19Tu0jn2vWmp3XNmtWl/e98WBtUZ52vexsxxtdo5c2/M/bx9Sus+v91uraKB8v4HgmhmPZ6jiSrfeJF+aUh95QbAKvb4Pqp/NFMd2oDp5xs53K9vbzNvJtNzumvvVp0n2fr5VnL++QMGdcPPnUzCiwyy4q/8VX3o1+F2cS2TSjTrZTehOxrD4SbvWCE9lb//+YuSC8+c7qeH26BNaLsWZ3q7PEU/WRTzbvj29qVV7W1uGEOb0p9o67Hqyx+pc77ovXqj3WbgnKy1Zvj0tXdVzt0RtfJXxbHbK25jOrS1YajnHPAQMwAAMwUBYDCHMIcw1vZMoCk3IZFGEABkY7AwpS35i7qi4Q1QwsiW0+ENfD1B9+/Pn4bCUFogqgNbvNhKJ27aRZRprpojc5Km+Vof+77n40Buda+mZBvAW3Om+Bclq+T/PcC28FLZGTGKcAWiLgui0Havnp2lYEkEbXpPUZ7rPPS8vjZry6qPaweQlaElDT5XFf7j4TH1pvs3pkNy0dfOHlgZr9suzj36grG2Y9jN/7PhURlKf5R3a2tjW6RmnEymtvrQiaEWiiluqumUaqt8QspWuUjwk4Kj8VnRqxbHUcydb7JBXmJMxoht/d942v2UJijoQnK6MIphvVwTPu/eztl9rI6mZ2VL+WoGTLURtt9XZiW/qs8uwNx8pD7TYuVKZ8rTe2zpz1XvS1/C0xU33YlqnK95plJ1tafdL6asasxiPjVIKb2qd/LUO3sULXa8xS37Zjxqg9Y84+N9r6dqnOem6c6jDpmVdiHZ6aMivOFrY+J3v52cO65qHHpkQ20v4q25vP0j5lfmHLPQcMwAAMwECZDCDMIczVbmTLBJGyGQhhAAZgYHQwYAGwgnAvWvSqfxsJMEXX2b+dVUKLPhddBvmV149GIsw1EqkanVOfkhCm2W0SqfSWXxPETFyT0G4CrJZXSzgVF3v2Xw3jJ8+IQpdENwlfWbzsPfJrePGfC2I64zQVlVVHE7kkBqo+vt4SSyUESlj1x/P2bazQsxjVPgmJvm+m1ym9BNh3l26Ky23tvAQ7CY5pu2xcsjqn5/lcXr/B9tgeBmAABkJAmEOYG3LzQsdgcIQBGICB6jDQKHi1YDXdprOQivS3BcAq04LtIvPPy8uXm7Y377Pq5+3XSbuo3npmn9UlfelDXruqfLxVn1S1zV6YMz9ra4KZ2mUz1PQiBvGX92w5f3zZB1/WZnFan5JwpecTmgCnrT0rUDPGnn7+9TijLJ1Zq9mRWtqqWXSN7KyZeJpBqpcuSOja+f1P8dl11i6JgXq7sOqh2XSaRbdm3bdx9qU+K2+zh55Tp6Wt+pz+a2ac8rR2+Tr5ZwZq9qqW18p+Wkrr00l4XPHhjrh0V+KjzumY7G71tS3CXHW+27yP2cdvMAADo50BhDmEubqbm9EOPO1jUIcBGBhtDHhhyYLP4badFKC8GJMVbHfK/r7c4dpv51U/b79O2sUexG9la2ZQp2zRK/m26pNeqf9I62FClPnYtl6YsyWh4iFrZldWmRK/lF752+w3pdOS1jXrv4svXJBYpXR2vQS4XT9cqn2249pKuJPo5Y9l7W//5lwtD+WtMlqpd6NrvjlwbUi7fF0kLGpmn2+bP5+3jzDHd30eGxyHDRiAgV5kAGEOYW7YG7NeBJc6MaDCAAzAQG8y4MWYbgpzrfLQLWHOz27Ssr/hHlbfanu4rjf7BX7BLzAAAzAAAzAAA3kMIMwhzCHMwQAMwAAMwAAMwAAMwAAMwAAMwAAMwAAMlMAAwlwJRs9TSTmOgg4DMAADMAADMAADMAADMAADMAADMAAD/cMAwhzCHIo4DMAADMAADMAADMAADMAADMAADMAADMBACQwgzJVgdJTv/lG+8TW+hgEYgAEYgAEYgAEYgAEYgAEYgAEYyGMAYQ5hDkUcBmAABmAABmAABmAABmAABmAABmAABmCgBAYQ5kowep5KynEUdBiAARiAARiAARiAARiAARiAARiAARjoHwYQ5hDmUMRhAAZgAAZgAAZgAAZgAAZgAAZgAAZgAAZKYABhrgSjo3z3j/KNr/E1DMAADMAADMAADMAADMAADMAADMBAHgMIcwhzKOIwAAMwAAMwAAMwAAMwAAMwAAMwAAMwAAMlMNA/wtzRG2E//9gABmAABmAABmAABmAABmAABmAABmAABmCgRxjoG2Hupys3Av/YAAZgAAZgAAZgAAZgAAZgAAZgAAZgAAZgoFcY6Bth7tffQuAfG8AADMAADMAADMAADMAADMAADMAADMAADPQKAwhzCHYIljAAAzAAAzAAAzAAAzAAAzAAAzAAAzAAAyUwgDBXgtF7RZWlHvxCAAMwAAMwAAMwAAMwAAMwAAMwAAMwAAPlMYAwhzCHIg4DMAADMAADMAADMAADMAADMAADMAADMFACAwhzJRgdJbo8JRrbY3sYgAEYgAEYgAEYgAEYgAEYgAEYgIFeYQBhDmEORRwGYAAGYAAGYAAGYAAGYAAGYAAGYAAGYKAEBhDmSjB6r6iy1INfCGAABmAABmAABmAABmAABmAABmAABmCgPAYQ5hDmUMRhAAZgAAZgAAZgAAZgAAZgAAZgAAZgAAZKYABhrgSjo0SXp0Rje2zfSwwsXLQ4rN+wsekvv6PHjodJkyYHbRu149vvvg+TJk8OF3+61DBdozw4R1+BARiAARiAARiAARiAARiAgc4zgDCHMFdq4C7hQAKCBAo6fOc7PDbuHRtfu/5zkID2wANj47YZ30jEe/XV14KubZQeYa57fpYv5JNm/NLIZ5zrns+wNbaGARiAARiAARiAARjoJQYQ5roszCmw/tMtt9T9jxkzJrw1Z07dLBgL9vJmvRw7fiLOnHn2uefCufMXGgbpvQRcWheEOQbElIl++9ys2GZjgp9hJ0HbxpM1H62N4pB99tu8caTfbN2J9ppfmhXmzGcST1upT7vXM+Y2N+aeHhwMS5ctC0+MHx/72K233homT34qbPl8a7hx85chvrv+843w2ZbPw4QJE2P6O++6K8x+a044PXhmSNpW/M41zfkNO2EnGIABGIABGICBKjKAMNdBYe7qtevh0uUrdTflWcKcBdC6kd+955uY3oK9rIBaQpwEOf2fOXu2Lv8zZ89lBg29CidBIgNnr7JZVL0kwFgfb2VrAo6Wr2p2neVhQpD1IUunemvfxg6/X1SbyOePfmtjtfljONu0K6y1e73xonyGq2u/njefWl9Lt0uXLQ83f/m1Zj/t61iaTp/Hj38ynDo9WEvbrzal3X+MGdgCW8AADMAADMAADKQMIMx1QJi7fOVq+GD16qCZcD5YlvFNmPPHJeCtX78hSJibOnVaFPMsMLDg2hxnopyeM6VZc3bctgq2Hn/8ifDll9uDfsG34726JUhkUOpVNrtRLxPb/HiQV67GjiwxRcclCmnGXJYwYMck6g33bLq8sjme309trG5WmCvbloy5+b4038inAwPzw+dbt8bnNP7y62/xB6+vvv46iuOPPvpYndh26PCRcM8994ann34mfi8rvfJY+f6qoJl2y1esDDpm+bMd3gfYCBvBAAzAAAzAAAz0EwMIcwUKcwp4li9fEQW2++6/P6z+cE2Q6OaByhLmdF6/uL8zbyDe9Ct4tmDPC3PK/5VXXg2PPfZ4boCt5TcLFy4Kt932l/Dww+PC5s+2DPs8Kl+/IvYlMkgM2Llrd93SHgmG2774si5AyQsSNcNAQU6eAFlEPcmDwb5sBpoV5qyfpAKers96GYTS2djh98tu72gs38ZqCXOHjxyNY7TGX/3PmfN2OHfu/JDvgCyR9PyFi2HJkqXxBx2Nn1oSuWz5ivD3u++ue0GIvkPS6+3Y/gMH4vfOuHGPxDFYeXz33fe1Mdd4M7HWtml+o9FPRbRJ4tqCdxdm2l8C3M5du+p8/dOly2HKlOdrP7gVUQfy4HsLBmAABmAABmAABkYfAwhzBQhzZ8+dD4sWL25KDMsT5jS77Y03Zwf7Jd6CPQuuJfDNmvV6UMB15MjRupv/rI6ZioSffrpuiEiYdV0Rx0yYu+OOO4bM4FHwsnHT5lr9TXDwM4G0PFfLdBHlRt+AUwRfoykPE0pSwS1to6UzIUVb9Rn7T9N7Mc7vp+n43H4fs7H69ttvj7OjvI+0P3XatCCBxmxtIpp8asdsJnR6rX3WNZY263od09j6X3/725Ax14tuWRypDJ/GymE7lA0T5iZMnBj0vW82Uj988KGHwvETJ2vHmjlnadgOtTU2wSYwAAMwAAMwAAP9xADCXBvCnGanzX3nnSjINbt8VAGUAiEfiCto09JXBVYS5yTSWbAnYU7ljESU8wD7ZbVaWqtydMynKXpfbVMbp0//R9i3/0BcAqSA5vsf9kZh0ZbrqtxUmLMAFVGOgbhoLnsxPxNK/HjQqJ5eZLMxwsQbXv5QTp8xP9j4aiKcxlnNrpJ/tm37ojbmpsKaZkvPX7Agjv+aIWfjs/LVIwmanTGncp5+5tmwd9/+OObqBQWfrlsf89XWuErHXDvOdnh+9PgI/TimJaq2NNX8bz+ipXZcsXIlwmcb91mpPfk8PKfYCBvBAAzAAAzAQPUYQJhr4Ybx5xs345IjCWkKhLR8JestbVkdwoQ5C6b91s+Gs5t9HXvl1VdjcNfOG1g1406z5rTEVs+y27Hjq1qgllXPdo6ZMJclNny45qNYhyNHj8XyfZAoUU6zSxDlqjeQtMNLP1yrGTW+rze7r+u8fbww548rncYWO+bT+X07z7a4PmZjddYz5vQyHj38XwKdCTmpMGdp7EcZ7xsTbr1v0+uVPuuYjlveniM/5vqy2G/MhP1opB/J/CMqzP95wlyeb7B3Y3tjH+wDAzAAAzAAAzDQTwwgzPWAMDd27INR6NMzhgw+u9lXAC9BTjMpJASmQYGlH27bK8Lcnm++jQKFiXYWJP7zlVfCiy/NiKLdoUOHa3YYrl2cZ8CuMgMmvFh/yGuLpfOCni0/tLHC54EY171+YfbPEuauXb8eNLb5c6lQY77V8dT/WefS63VN1jEdt/EVYa49HuyZp3rGq2zq/WT+zxPmmDHXnu29rdnHljAAAzAAAzAAA6OVAYS5FoQ5g6GopayWn9/azb6Cbz1TTjPy1n78SRTn3l24sOkXOpS5lNULBda2r77eGdugZa06ZoGjBIdHHnk0zuabNzBQNyPBrmXLQDzaGDDhJauvZLXVC2669oXp08PgmbPh7blz4/J4iQNevLP9PNEgqwyOjayf2VjtxTez4ZWr1+IPDvpBxd6SnYpoxgDC3Mjsbjbu9FYv1NALl96ZNy/In1nlSfi058P68/ZMurznz/m07Pem//ELfoEBGIABGIABGOgGAwhzbQhz5qAiXv5gednWgj0fUEucW7J0WQy8tW20fFaCl39DbBkvf0jFBj1L6b0lS+oCGBPmNBNBQc+Gjb8/xHy49pmd2DJQVpkBE2XSvpLXJi/M2RghUU4CnZ/J49Pl5cXxYvqO+SFLmDt56nR8JplmTZm9U2FOLwyQcKP8pNVkAAAgAElEQVQXCNlyV0trfHjRLr1eabOO6biNr1kz5vzyWiuP7R9M6PtV35t6idGqVR/UhNUsG8n+mtHOW1n/sF+WnTiGfWAABmAABmAABmAgmwGEuQKEOYMrFcNWf7hmyMwv3cBrFstwgbgFe16YUzn2dlYFARKx0kBOs/gWLlzU1Btird5Fb9U2tVFvX1U7lL+269dviDPi5sx5uxbkpIGjzQzUGw5XfbC6ofhYdL3JL3uQwC6ds4sJL8ONB+YDE9w0S27rti/iOKK+JuHF+p3Nkku3zZZhZbFtzu82Vj83ZUrQywE0Juv/xMlT8QU4eqanXshg9kxFNI3pM16eGe65596we8+eOOZpHBQbr7/xRhR8dE3e9Tqe5mlp0/FVx/Vyiqeffib+a4mmpWX7h7/l09mz3wp6oYeex5p+z6a2OnT4SPSf7GoMyK96SYS+q5evWDlsHmmefP7DH9gCW8AADMAADMAADIx2BhDmChTmDBa/fDQNhtsV5lSGiXMK+Lbv2FF3w68Avdk3xFp9i942Egj8Cy5UblbgqKBUM+byxMei60t+DPRlMdCqMKcZWBpLrP+ks7XUB1NRv6w2jvZyTZhLhVD7nM7+zRLRdu/5Jv5oYdfYVj9QaBzUNWbHrOuzjim98eFnzNlbYK0Mbe15hVZGv2/Nbt5G6b7vc7Lp0mXLM5eRaxmsZk72u01pP9+zMAADMAADMAADMJDPAMJcB4Q5A04C2qXLV+puyBVA6QY/FezsGttasJcXXNsb4iTOKaiz6/QWPglb9rmMrQlzWiqlWSQKLFXP2W/NCacHz9TVzQIgHziqzrKdnjV3221/iTPvhpuxUEY7KTN/YME2zdmmFWFO44f1F40nEgi0nLWZcQW/NOeXkdjJxmotJ9bzPzXLSr7QDyRbPt86ZDzOEtE0vu3ctTtMmDAxXqs8lixZGr777vsomukaq1PW9VnHlD5vfNXxgYH5cVzW+Dx16rQhY7OV149bs5v8mPfvhTnZSM8Q3LhxU3hi/Ph4Td53Xj/akzYXP+5gU2wKAzAAAzAAA6OLAYS5EQpz7767MIy2/6I7tQlzJj4WYa+i60h+o2sg62V//vnPfw7/9m//1vK/rtfyb/Wje++9Lz7zat68gaDnMv7Hf/w5bnVOaRqV9e///n/HtL1sqyrWrd3xrVGb07dYt1tWo+t3fPVVTfxrVKd+ONfITu2c++TTddh4hPdc/cAbbeR+BAZgAAZgAAZgAGFuhDeJ7dyU9+q1RQ8ECHMMLEUzVeX8OtXvJdI9+eSEEf9QUGVb9mLd2/VvVps0g06zKfXMMv+2z3bLanQ9wtwf43YjO7VzDmHuDxtncc8x7AMDMAADMAADMNCvDCDMjVCY61dQRtLuVJgbybWkZTCGARjoNwZsSXO6bJLnbNIX+q0v0F6YhwEYgAEYgAEY6EcGEOYQ5gpfWoMwx2Daj4MpbYb7VhnQs0Fnzvxn7fl0EuT0fM5du/fUvdyn1fy5DjZhAAZgAAZgAAZgAAZgoHcZQJhDmCtcmKPD926Hxzf4BgZgAAZgAAZgAAZgAAZgAAZgAAZ6hwGEOYQ5hDkYgAEYgAEYgAEYgAEYgAEYgAEYgAEYgIESGECYK8HoKNO9o0zjC3wBAzAAAzAAAzAAAzAAAzAAAzAAAzBQFgMIcwhzKOIwAAMwAAMwAAMwAAMwAAMwAAMwAAMwAAMlMIAwV4LRy1JhKZdfAGAABmAABmAABmAABmAABmAABmAABmCgdxhAmEOYQxGHARiAARiAARiAARiAARiAARiAARiAARgogQGEuRKMjjLdO8o0vsAXMAADMAADMAADMAADMAADMAADMAADZTGAMIcwhyIOAzAAAzAAAzAAAzAAAzAAAzAAAzAAAzBQAgMIcyUYvSwVlnL5BQAGYAAGYAAGYAAGYAAGYAAGYAAGYAAGeocBhDmEORRxGIABGIABGIABGIABGIABGIABGIABGICBEhhAmCvB6CjTvaNM4wt8AQMwAAMwAAMwAAMwAAMwAAMwAAMwUBYDCHMIcyjiMAADMAADMAADMAADMAADMAADMAADMAADJTCAMFeC0ctSYSmXXwBgAAZgAAZgAAZgAAZgAAZgAAZgAAZgoHcYQJhDmEMRhwEYgAEYgAEYgAEYgAEYgAEYgAEYgAEYKIEBhLkSjI4y3TvKNL7AFzAAAzAAAzAAAzAAAzAAAzAAAzAAA2UxgDCHMIciDgMw0GUGvv3u+7Bw0eKa3ddv2BheffW1cO36z7VjZX0pUC43JDAAAzAAAzAAAzAAAzAAAzDQPQYQ5rockPcD3BId/nTLLUHbKrf34k+XwqTJk+sElE60RwKNylF5ncifPLs3oDZja+NqxcqVNSHu6LHj4YEHxo64z4gdL+g1k4+Vrz460v92OJX4qDaqjs3YiTS9xS3+wB8wAAMwAAMwAAMwAAMw0BkGEOYQ5goPkvtRmLM2e6GjWREDYa4zg1uvfmmkYprVc6QcmAgnwcvy0Iw7CXVerLNz7W7FuGfaBD5/rFEZo1WYGz/+yfDGm7PD9Z9v1PyQ2uGrr3eGW2+9NezctasuzdVr18OMl2dGgTTPZ+ZTP7Zof+zYB8O8gYFw5uy5ujx92arTjh1fhWnTXgh33nVXLEdbfd64aXO4fOVq7Vr5R/nm/aBivIlTX4btd7otVk63tuJ7zUdrw+TJT0XfyTZPjB8fVn+4Jqit3aoH5fTX9wP+xt8wAAMwAAMw0J8MIMwhzBUeYJhIlRfgVWWwMeEhLxD17bA2++C5WcFipIKML5f9ag3c4iRv1thIeDOxJkvMMQGl6P6n/DzTVl9/rBGPo1WYm79gQRg37pFw8tTpzLH05xs3w+y35oQJEyeGs+fO16U5dPhIuOeee6PIpq0+pzY0X/uxxe+r7CNHjg657szZs2HqtGkNZ0V6ftoV5jrZltQm3fiscdnb2e/PmvU64hz3TkP6XDe4pIxqfefjL/wFAzAAAzDQLAMIc9xcFn5zaSJV0cJAs1AXlc6Eh2aEOSuzFfEBYa4/Buxm+oWJauLImMraipk8gU/p85gypr3I0My+6q7/ZkW4rDq30jey8um1Y7KLZsPl+UyCncSz5StWhl9+/a3Orx+u+Sie27rtiyjQrf34k7rzaqsJc6ntf7p0OSxbviKWvWjx4rq8NRPupRkzorCk7cFDh8ONm7/EvLUdPHM2rFu/PgwMzK8tp1b9xYLak2VjYzNvPOxUW7Lq0o1jK99fFTZs3BgfMSC/6f/04GB4Yfr0cMcdd4R9+w9k2qkbdaOM/vjOwM/4GQZgAAZgAAb6hwGEOYS5woMLBXYK8Hbu2h02btwUA099fvzxJ8K2L76sCyBNKFCwpwD2zdmzw223/SU8+NBD4fiJk2HT5s+iGKBjykPbl2fODD8ePFiXjwWvmgFy+MjROENFS7aU/rXXZoVzyUwVDXLnL1wMS5YsjbNVlLeWhumzzWqp1W3holieylV+ynfBuwvDlavXhtiukfigwO7rnbvChAkTY1uUj2bSvPjSjLYEDwbs3h+wTdTIE2+8Dy1tngBiAkqjvHx/0L7Pv9X9VJjLK0Oc7z9wIM7WkmBlfXb27Lcaiomt1qvs6ySQTZnyfFySmrXEccvnW6OQ88PefXV+sOs0BmhfS1qnTp0WLl2+UpfO7JwKc2q3xjDNxPMz33RcZWpMe2vOnJrwNpydjKtWhLlOtmW4enf7/Kfr1iPMcd9U10e7zSDl9f53Pj7CRzAAAzAAAyNlAGGOG8zCbzBNmNOsAgWH/l+BumaHGKgmfkkUGzNmTC2tzQaSOOGvt32JWnv37a/lY8GryswqNw1cz52/EJ597rnMvE0Qsbr99c47o7hgZdv2vSVLws1ffq3VQW1ScGt1tzZqK7FCsy/Ufrveb7OCbn89+9Ud3K0/NBLSUv8aeylLJp4Yo+l1/rP1iZR9n2Yk+80Kc7v3fFN7nplnXPtpe0ZSfq+mVd/WbLispaj23LUswU1CncYqPX9ObZNv9TkV8MyPWWOEzcZ7Z95AbSyypbNZ9WlkQ2OrFWGuU21pVN9un9NMQ33nTJo0Obz+xhtNC57driflVfe7At/hOxiAARiAARjoXwYQ5hDm6oSlIgYDEyKmT/9HXO6jgEbB6/c/7I2z53yQagKEZtXoLZWaedGoDspHM4oUpEoYs7QWvEr4mvvOO0HPV1Ja5ffarFnhvvvvD0eOHovpJabpuVBKq6Vg9gB0BdFffrk9aAmT8s2rm5YzSdTTTBXNWLE6aKvgNkt8sOcvKahTcKe66V8z+TSjLyvo9vmyX91BWjzkiR3D+dWLJSZSp6Jc7A+TJme+7dT6RRaTw5Wdnm9GmNNsU/ULlffV11/Xlk+qHy5+b0lm30jLqeLnHw8eCn+/++6g5Zy+/tbv0yWq6vtafuqfO2ciW7rk1XzoxwhdrzFOzzrTOOZfKiFbP/30M3EmbtasXl8/v2+spWJq+jnlr5Nt8fUra9++B2SHhx8eFz7b8nnDF32UVU/Kre53BL7DdzAAAzAAAzAAAwhzCHN1gWQRg4IJc1lihAJXL5JZ0KOloQrw0vJ17NChw/GZWQo2H3nk0dqMMy0B0+wQXWPBa9bsIM1IUVBl9dFbDJt5k6LVLQ1EVZ7akSV25AlzSp81G0Z5KX8fdKc24HP1B2pjKRU58j6nHOv6t+fOzXyOmfhRPmIvj5WUS+ujeeXreFoHXeM5zepz1te0lDKtS1qH9HyVP+fNjFO/z5q5ZgKmfiCwWbd6g6re7urFOtnE7JzlK4lyS5ctrwmgSm+spf4bzr7yT1YZ6bF0POxkW4arczfOmz3NDk8/82z8kSnr+6ob9aGM6n8f4EN8CAMwAAMwAAMwkDKAMIcwNySATiEZ6WcL+k0I89fv+ebbOpHMgp402NM1CnbnDQzkBos+8LTg1R+zctP62DO89KwgS5O1bVS3PJEh73gj8a3Ruax6caz6A7l8nsW8fKvjWRxn+d1YFndZ5/OOpSJbmk75pXVIr8nqc3n8K/9G59Lyq/hZ7fPiu54Vp9nBEtskuvk2ScCUqJaOkdu2fTFkBpzZ2YQh295+++1h+44dQ37QaHfGXFonq7exlnLbybZY2b2wlRCnWYqvvPJqptjaC3WkDtX/bsCH+BAGYAAGYAAG+pMBhDmEubqAsYiBQIGdgsesAM+COC1rVVmNxC8tz1LwqiWxeoaR0mqGnAWqXjjIOmZtSetjASbCXH8OesZFmVuJGxJy0joYx6n4kaazz0rnZ7HZ8eG26hONrlPdfP9Sfuk1VlefrpH41ujccPWtwvl0Kao9dy2dPWgz40xgy9pmzQb2/jpy5Gh8LICW1Ess8vbp5jPmOt0W365e2bfvk6z+2yt1pB58t8EADMAADMAADMBAtRhAmEOYqwvqiujAFrho6/PTjAM9P+nRRx8Lp04PxnONhDkFPn7Zq+WVJQhkHbP0aX1UtuqQNZPFrtF2uLqNZCmrnp+XlV7ltCqu+LqyX52B17hK+4d8aBw3I8ylXBsD6jfDiQa61gs9dq1tdb0X3HQ8vcbq6tPZjK+stinPvD5g5VZ5ayLV5MlPxWdPpmOdtc0EvCxBzo6NG/dIfEu1rjE7p/6yl2xInNPLbCx/be2trHoGnWYe+3N5+/KPys/yna6xHzQ8m91oS159yzpus76H62Nl1Y9yq/NdgK/wFQzAAAzAAAzAgDGAMIcw11TQZsA0s1VgpwBPM9IsKFRwuX79hvi2xjlz3q4t7TKRwgd7VsamzZvjjDnlYy+Q0MsSVq36IL7B1QsCFrz6Y5aP1ccCTgXQqoNm4zXz8oesuuWJDHnHbfaflkHpmUyqm5acffzJp7EtadBtdWc7+gZrcZjnb+M4iznPQqN+o1mpEsAaCQfWJ0wIytqmfSmtt9XVp7OXHeh5kMeOn4jLLDUG6KUqenD+aBbm5B+bEaw3MEug88+QM//JL1ryum//gcyxV3bW2GQz7czOWcyYOJcKcBpbpk6bFsfhl2bMCAcPHa49h05j6eCZs/Et0eJM+atuqtdIhblutMXs1s2t+pdeIrR7z56gJckq27+V1S9Z7ma9KGv0fR/gU3wKAzAAAzAAAzAgBhDmEOYyg8N2BohGQb9mgmgZluXfSGDQbIzHHns8BoteONDbD++97766GT0WvHqRwMqw+mhrx2wpmM/X9k0UaVQ3BaReZLAyLA9tfSAtcULBsz+vfb2N9q933lmX1urIdvQN0saU+Mny73Dn7Rox6vmy47YdTmQRr42ut3z8Nr0mq89JvFiydNkQziU0/dff/lbXZ3zeo2XfXoSg57/p378tVW3UODDj5ZkN35h64eJPUdRTOqU3O2f5S7OQJQLKvnpLtX50MFtKGNVboNMxx3/24+VwzKQz5rrZFmtTt7bWD72t/L4YF+vdqg/ljL7vAnyKT2EABmAABmAABjwDCHMIc4UHFwrgNaNAwctzU6bEoFEC1JuzZ4fTg2fqyrMAyMQwD6f2jxw9Fmd+KPAcM2ZMWLJkaVwGq4DSB5UWvPpjlpeJZtraMW3PX7gY81O+CrokGq76YHVcwqrzjeo2UmHO8hsYmB9nDcoeL8+cGX48eDAsXLhoxCKJbwf71RjUGzFqPhxOHFG6ZtIonfqUF4+tjFa3zQhzylvtfH/Vqthf1W81BuzavSesW7++0Pq02o5OXqc3rGqWnMYTzZiTyObL+/HgoaAfFtZ+/EndcZ/Glvzb21yNmyxhTtd5MTQVjCSebdy0OY6hGnNUL413Ev00i1HnrezhuEqFuW63xerZja18oLeBD8xfUHsTuOynWYhiWee7UQ/KqMbYjp/wEwzAAAzAAAzAQLsMIMwhzBFgwAAMdJgBEzW8cGyCi5+Jo30JJHkDu4kn6TVZnyWkDTezLq8cHde1ab6N6tYoL85xswIDMAADMAADMAADMAADMAAD2QwgzHU4IAe8bPCwC3bpFwZM4EpnbHaj/Tbrs4yyu9E+ymAcgQEYgAEYgAEYgAEYgAEYqDoDCHMIc7mzc6oON/VngIYBGIABGIABGIABGIABGIABGIABGOhlBhDmEOYQ5mAABmAABmAABmAABmAABmAABmAABmAABkpgAGGuBKP3slJL3fglAQZgAAZgAAZgAAZgAAZgAAZgAAZgAAa6wwDCHMIcijgMwAAMwAAMwAAMwAAMwAAMwAAMwAAMwEAJDCDMlWB0VOfuqM7YGTvDAAzAAAzAAAzAAAzAAAzAAAzAAAz0MgMIcwhzKOIwAAMwAAMwAAMwAAMwAAMwAAMwAAMwAAMlMIAwV4LRe1mppW78kgADMAADMAADMAADMAADMAADMAADMAAD3WEAYQ5hDkUcBmAABmAABmAABmAABmAABmAABmAABmCgBAYQ5kowOqpzd1Rn7IydYQAGYAAGYAAGYAAGYAAGYAAGYAAGepkBhDmEORRxGIABGIABGIABGIABGIABGIABGIABGICBEhhAmCvB6L2s1FI3fkmAARiAARiAARiAARiAARiAARiAARiAge4wgDCHMIciDgMwAAMwAAMwAAMwAAMwAAMwAAMwAAMwUAIDCHMlGB3VuTuqM3bGzjAAAzAAAzAAAzAAAzAAAzAAAzAAA73MAMIcwhyKOAzAAAzAAAzAAAzAAAzAAAzAAAzAAAzAQAkMIMyVYPReVmqpG78kwAAMwAAMwAAMwAAMwAAMwAAMwAAMwEB3GECYQ5hDEYcBGIABGIABGIABGIABGIABGIABGIABGCiBAYS5EoyO6twd1Rk7Y2cYgAEYgAEYgAEYgAEYgAEYgAEYgIFeZgBhDmEORRwGYAAGYAAGYAAGYAAGYAAGYAAGYAAGYKAEBhDmSjB6Lyu11I1fEmCgewys37AxLFy0uO0vv6LyOXrseJg0aXLQFg66xwG2xtYwAAMwAAMwAAMwAAMw0L8MIMwhzBGAN2BAAsUDD4wNEj4YKPt3oOyU77/6emfkq11xTnz+6ZZbwrfffd8Wp0UJc1Yf1Snrv932dsof5EsfhwEYgAEYgAEYgAEYgAEY6DYDCHMNRJluO4Py2hsALv50KUyaPDlzBlKWUPDqq6+Fa9d/bihkIMy15xOYDlEsyxKnmj3WjCgsjsVzM0w38kmzwpyVl9WGRnWw65ppU6N69tK58eOfDG+8OTtc//lG7lgiAfbWW28NO3ftqktz9dr1MOPlmVG8zLOb2Sy19dixD4Z5AwPhzNlzdXl626hOO3Z8FaZNeyHcedddsRxt9Xnjps3h8pWrtWttjMwTd20szBNVO90W365u78vG8nOebdL6fLjmo7b7Yponn/kuggEYgAEYgAEYgIHRywDCHMJcLTCrekdHmBu9A1WV2VQwL8FYfKodJrTkCRzWVkvnRSxjPBVphvuclqXPw12Tdd7XxeppdUpFC5WRlpuX1vKq4nb+ggVh3LhHwslTpzPH0p9v3Ayz35oTJkycGM6eO1+X5tDhI+Gee+4NEtm01efUBsZBlj90TGUfOXJ0yHVnzp4NU6dNa+hnLwa2K8x1si2pTbr1+Zdff4v9dsG7C6MdU8bTesjX3333ffSJt22ajs98V8EADMAADMAADMAADHgGEOYQ5oYEdB6QKu1b0J+KAb4NOudFEn8ua99miWQJElnpOcYAmzLghTkvsgwX5Ftaz54xPty1vg5ZAlnWMV3j6+rzyKqLnc+6Ji99szPyLO8qbNV+zYbzfvL1lmAn8Wz5ipVBQo8/p5lVOrd12xdRmFv78Sd155XWbJmOWz9duhyWLV8Ry160eHFd3poJ99KMGVFM0vbgocPhxs1fYt7aDp45G9atXx8GBubXZg23K8x1qi3eXt3ct77mBdFG/c7sZ+kR5vgu6CavlAVvMAADMAADMFBtBhDmEOaGBIJFdGota1r94ZrwxPjxMTgcM2ZMeGvOnHDi5KkYQFrQkyWiWYDjgyAtyfpsy+dhwoSJMb/bbvtLePGlGWH3nj0x4DQBzYIi2+r5cDpnbWokzJ2/cDEGqrbkS2Up/d/vvjs36LZ82VZ7IOyG/0xgMTYbbVNurX7Wb3zfsHN52ywRLuuYrle+qQCk41b3VHyy48rPl2/H03rq82gTLCSQTZnyfFySqnHP20H7Wz7fGu64447ww959defsOs2m076WtE6dOi1cunylLp3ZMssvGrM0Ey+1qcoUXxpzdX1ap6zPWeOuT2djbOprpelkW3wdurlvfc3305RnXx+zn6VPfeLTss/3BQzAAAzAAAzAAAzAgGcAYQ5hrqmgzUMz3L6C01mzXo+BoQUptrVgxYKerCDPAhwLgm7+8mtYumx5Zn4mYFjQaOXY1s5bnVVeVoB77vyF8Oxzz2WWobxSQcLyY8uA2gwDKZ9ZDCofMd+IN+s31jeaKVvMp/0s65jyyjtu4lDaD1SPtI8pn7x65uXfTDt6NY1mwWk2XNZSVHvuWpbgJqFOgp2eP6e2ybZZAp7ZPosZm433zryBoHFS+djS2az6NLJhOu6maY3hlCWl61Rb0jqU9dn6ZTP9zvxl33Vl1Zly+W6CARiAARiAARiAgeowgDCHMFe4MKflWBIX5rw9t/ZMJQWLe775Nix+b0mcwWGBe1aQlwaI9uDtOXPeDjYjRfn9ePBQfPj5seMnYhsa5WmDkspLA1wFtHpOlJajaWmYPRBdZXz55XZmzNFH2uojWYKGMa6t2LQ0WSKXsautMd6MQGDXZYlhWccsb/XdtF+a2GD19XVRev+vuimvF6ZPr5utmpWH1bHqW41Fmlmr5Zy+LfbctXSJqsQ8LT/1z50zkS1d8mp28+OWrtcz5PQDSPpSCc1ee/rpZ+KM4itXr9XVx9ct3TcmvS+z9lM2OtmWtI5lfUaYq85NbVmMUC6MwAAMwAAMwAAMtMMAwhyiQ9OBWzOgKRDUElMt7VKAmHeNiQBpkKf0FiCa+GDLtbTUS/ut5GnXqDwf4Oq4CX9Zb1Y0wcQLEpYXWwbfdhiwPiDxYzhBzsrx12SJJnnH0n6mz1nH1DfEvLZ+xo+JQ74f6HqVZ+msbuq31m/y6qPjafnWxipu82bGSajLmrmml0BIlNMPAjbTTcv1NQZ5sU62MNtn2VKinGYT2/PjlN78YH5p1p427maV44+lfutkW5qte6fTIcwx1neaMfKHMRiAARiAARjobwYQ5hDmcoWuVgYHCwr1FjvNpMjLw9KlQZ7SW4Bowpzy2bBxY5wZokD08cefCFq6pefLKWi1MhrlaWlUXirMmYjgRQdL3+icpWHb34PoSPxvPJnQYcxZ4K/jKZ8+f10/adLv4pk/3mhfzKf9LD2menhx0MQgq4t9tvqqHpoRt2LlykxhrlF9LK+0To2uqcI52cYvRdWz4rSENUvw1/JVjWU2xln7tm37YsgMOLOXMWPb22+/PWzfsWPIONvujLm0TlY3Yzf1WyfbYmWXvbX+mWcbXz/z10iFUZ8H+3ynwAAMwAAMwAAMwEB/MYAwhzBXE7aK6PwmjhUpzKleEudOD54JWhKmmXN6mYQC1BdemF6bRWdlp4Gjb5fOmdhgxy3gNNHBjmvb6JxPx35/DZwj8bcJKdo2E6wbx3adF8zE40iFuay6qh/o38pK+4SuMYFB5/QWT9U97SP6bG2yvIYTLyzfNK+selbpWLoU1Z67phcx+HbYzDjzb9ZWL4TQUvrUD7Kxjh05cjS+zVXPxdSSVp+/rtP1WTP1fLp0X/5QXfL8Z2OhH1873Za0jmV9RphjfC+LPcqFPRiAARiAARjoDwYQ5hDm6oK6dju+zRIZbimrzerwAaiVPVyAqHQS6j79dF0MJDXLRMdMGGgkCmYJc6dOD4ZHH30sPvMpneVnwehoExHM1my7N9AbS1lCTNaxLIFEx7JEtJH6Uf3AyvRCS5qPiWhvz53btDC3ddsXsY6Wf7q186OtT5lINXnyU/HHAj0rTuOKxhdvVxPwUsxAFfIAACAASURBVLv4z+PGPRKUTteZD1K/797zTdAbpCXO6eU1vgx7K6ueQWfP5fTns/aHG3eNX89LN9qSVdduH0OY69442W3fUh6+hQEYgAEYgAEY6AUGEOYQ5uoCunahlLC18v1VMehv9PIHBbEKGjUb6Psf9kahTQHk5s+2hIcfHlc3c0Mvd5g3MBBf9mCzSPRMpR1ffR2XjpkwZ2KfHnyeBsPWrixhzp4PpSB32xdfxuc1Kf+Dhw6Hl2bMiHUZbSKC2YNt976IJGw0M9vNBOYsYU4c2gy1dnynfuAFluHyMnEo7Qe+Po3q7fO3dGlePk1V921Zp5beS6Dzz5CzNqndWvK6b/+BzLFXftcyV5tpZ7ZPhTnlZ+JcKsBpLJw6bVocuzSGaSyz59BpqxmQqqMYUP7KS/WSOJjFnc5nCXPdaIvZrcwtwlz3xsky/UzZ+BkGYAAGYAAGYKAsBhDmEOYyg8N2gNTsDc3i8DNAbN+LCpo5owDUzmmrz//1t7/VBYgWEPp0tq+ZefZCCHu7qp3T1pYBWtDpz/m6WIDrz2tfdVGddH07NuFaBvl2hTkTaIpgsReEuTwBqMp9xV6EoOe/6X/nrl1144b9CKAX5FzJeWPqhYs/RVFPS/aV3vyeJczphxB7/uZ7S5YE/eBh9tMPGhKC0zHNf/ZjoI2ReX6xcdgE3W62xdrUza0JyN5etp/lC7OfpfHbIvpsN9tOWXxfwQAMwAAMwAAMwEB3GUCYQ5irBXJFdj4Fbas/XBOfg6QARc+EW7R4cTg9+MeyLs3c2Lhpc7jv/vuj+PXclClh1+49Yd369XXCnNLpRQ8zZrwcl24pv7FjHwxLliytiXJWdwVTAwPzYzoJanr4up5NlxU0+aBUAe7OXbvDhAkTY9laSqb67z9wIIp7BFbdHZjMn6Np264w1+z1zdisSGHOCxDazxN2rF46b4K5HRstW//jgGbMSWTzbfvx4KHw97vvjs/K9Mf9vsYiLYO1Z8Q1EuZ0ncbHJUuXxXFLW322/DQOa4zV7LnbbvtLTKOxWKLfl19ur1vmamNknv9SYa7bbbE2dWuLMMeY3y3WKAfWYAAGYAAGYAAGEOYQ5mpBHAMCAwIMdI4BEzZSISvvsxdITJyx2Urt+qkZYc6EGqtf3iwhE7hNyPD1Vj3tuOWjbVHtaNcOXN853rEttoUBGIABGIABGIABGICB5hhAmEOYQ5iDARjoAgPNzngzIcsLXLr2henTo8jFl1tzX27YCTvBAAzAAAzAAAzAAAzAAAxUgQGEuS4E5FUAgToyYMEADMAADMAADMAADMAADMAADMAADMBAdxlAmEOYY7YUDMAADMAADMAADMAADMAADMAADMAADMBACQwgzJVgdNTn7qrP2Bt7wwAMwAAMwAAMwAAMwAAMwAAMwAAM9CIDCHMIcyjiMAADMAADMAADMAADMAADMAADMAADMAADJTCAMFeC0XtRoaVO/HIAAzAAAzAAAzAAAzAAAzAAAzAAAzAAA91lAGEOYQ5FHAZgAAZgAAZgAAZgAAZgAAZgAAZgAAZgoAQGEOZKMDrqc3fVZ+yNvWEABmAABmAABmAABmAABmAABmAABnqRAYQ5hDkUcRiAARiAARiAARiAARiAARiAARiAARiAgRIYQJgrwei9qNBSJ345gAEYgAEYgAEYgAEYgAEYgAEYgAEYgIHuMoAwhzCHIg4DMAADMAADMAADMAADMAADMAADMAADMFACAwhzJRgd9bm76jP2xt4wAAMwAAMwAAMwAAMwAAMwAAMwAAO9yADCHMIcijgMwAAMwAAMwAAMwAAMwAAMwAAMwAAMwEAJDCDMlWD0XlRoqRO/HMAADMAADMAADMAADMAADMAADMAADMBAdxlAmEOYQxGHARiAARiAARiAARiAARiAARiAARiAARgogQGEuRKMjvrcXfUZe2NvGIABGIABGIABGIABGIABGIABGICBXmQAYQ5hDkUcBmAABmAABmAABmAABmAABmAABmAABmCgBAYQ5kowei8qtNSJXw5gAAZgAAZgAAZgAAZgAAZgAAZgAAZgoLsMIMwhzKGIwwAMdJmB9Rs2hkmTJ4eLP12Ktr92/efw6quvhYWLFjftC6XVNbq2qC9O5am6jTS/vLocPXY8TJo0OWg70jxJ392bAeyNvWEABmAABmAABmAABmCgHAYQ5rockAN690GX+CERZCSiB37qvp/6yebtCnPffvd9+NMtt7QkouXZWQKf8n3ggbFxm5cuPW6iYpaghzBHP0p54TNMwAAMwAAMwAAMwAAMwEA9AwhzCHOVmcmiwF9ihP9vZsYQwlx9p2cQLN8e7QhzErsknvl+0Gh/pIK06tZMvzKOGolvjc7Z9VXfjh//ZHjjzdnh+s83csfSr77eGW699dawc9euujRXr10PM16eGX2ZZ3MTPlMfjx37YJg3MBDOnD1Xl6e3p+q0Y8dXYdq0F8Kdd90Vy9FWnzdu2hwuX7lau9bGV4mzPg/bN+7yeOp0W6we3dqa+J3a3T7LXr4usvVnWz4PEyZMrNl59ltzwunBM3Xp/DXslz8W4wN8AAMwAAMwAAMw0AsMIMwhzFUmaLDA0QIjbfOCWd+5EOYYbD0PvbAvlltZymosWx/IE1FMzJGAJ0HFt3k4wcHyztumZaoteWJNPwhz8xcsCOPGPRJOnjpdZ2ez+c83bgYJNBMmTgxnz52vS3Po8JFwzz33Bols2uqzXWdb82WeP1T2kSNHh1x35uzZMHXatIYCrh8/bXxN/Wv1GE6Y62RbrA7d3A7XT2Qvq8/NX34NS5ctz7S1hNtTpwdrae0atnwvwQAMwAAMwAAMwAAMGAMIcwhzlQsYJAJ4UcNgztuamJEnHuRdx3EGyiIYyBKnmhHmjFsTSkwYMTHFPnuBQPW14yPpI9ZOu9bKtON5W19HE3byBKT0uLUjL++qHJetNBsu9YPVX4KdxLPlK1aGX379rW68/XDNR/Hc1m1fRGFu7cef1J1XHibMpf786dLlsGz5ilj2osWL6/LWTLiXZsyIQpG2Bw8dDjdu/hLz1nbwzNmwbv36MDAwv/aMQvNfnu+NjbxxtFNtMTt2eys7iNk8e/j6mCj59NPPhGPHT0RfyG8r318V/ZPle389+3zXwAAMwAAMwAAMwEB/M4AwhzA3JBAsYlBQwL5kydIwZsyYGNwoMF394Zqg5U4+fwWDWbN6LODPCt4bCXPKX8GQL3fhwkUx+M0LKH192O/vAbET/jeWvXCjfS+0mPjiGZUgYH3Dzvs8VFfLW+mUXnlKTEjTNdsuE1+aESOUp9LliRexPpMmx5c/vPDC9CEz95qtU6+nk0A2ZcrzcUlqOr6p7ls+3xruuOOO8MPefXVjn12n2XTa15LWqVOnhUuXr9SlM997Xswm5y9cjDPx0nFSZcovb82ZUxPe7Jq8rZjJ86WuMTY8o5ZXJ9tiZXR724jttC6yXdZSZbNLll/TPPjMdw8MwAAMwAAMwAAM9C8DCHMIc3VBYBGDwbnzF8Kzzz0XgzwFev5/1qzX68Q5BTQmPviyTXBIA06lyRPmFBQrf1+e388KKH2Z7PfvQNhp34tzL6ykn0188YxqP4t/X1frJ55zX45P28y+iS/NCHNWZ5WdlV71X/PR2ijMaas2N1OHqqXRLDjNiMpaiqoxKU9wk1AnwU7Pn1ObZZ8sAc/snOVXm433zryBoOWUyseWzmbVp5FtVX6eL3WdseEZtfw61RbLv4ztSIQ52eTBhx4Kx0+cHMJ4o3NltIsy+Z6DARiAARiAARiAgd5jAGEOYW5IINFuR131weo4e0DLrOzh4nq20py358bAzy/XUjBYlDCnfBVYqhx7lpOWbe3dt58Zc3BeOOcj6ScmapiAJe690GLii4keaXpfVirGWZ6WxgQW9QVfhp1vtG1Ubnqdyp00aXLsv2kdlM8L06f/Potv0uS4lciouqf5jIbPPx48FP5+991Byzl9e2yJox/zdF5inpaf+ufOmciWLns0Nrwvdb2eIacfItKZWpqlpSWVL740I1y5eq2uPr5u6b7nRuzk/Rujdn0n22JllLEV06kNnhg/fsjM7yz/+PquWLky8zvOp2G/926O8Qk+gQEYgAEYgAEY6CYDCHMIFk0Hbs2AqUBQAaFmiaTLuiSWKRD1s4CKEuasXC0pU2Dq62pCRhpQ+jTsM/B2kgEL3o3B4YS59LwJZiMV27y44AVw1SMVHZr5bPVXn6oJb5N/F968/ZRObVC9Jd5pa8d8utGynzczTkJd1sw1Gwv14gib6aa3eurtrl6sk32MnSz/SJTTSwfs+XFKb+OdH2ebsbP8lVVGeswYsDw72RYro4yt7zupDbQ0W8uIVS/zjxdOfX1lV9/3/Dn2+d6BARiAARiAARiAARgQAwhzCHN1Ila7A4MFhWnwpnyzApi8oMXyyQoulXcaBFn6rHIbnWu3vVzPQNosA5517XuGrW+IX7/fTN7KK4v7Zq5N05gAmM6Ay0qnmUDWt3x67VvbvDCnfYl5uibNbzR8lh/8UlQ9K07PFpPYJtHNt1HLVyWqebvp/LZtXwyZAWc8pOLQ7bffHrbv2FH30gfl0e6MubROVm9jI2Wtk22xsnthK/FTNpg+/R9RwJSvVC/zjzGf1pUZc3xHpEzwGSZgAAZgAAZgAAZSBhDmEObqAsYUkJF+tkA9Dd6UT1YA48UKX5blgzDHoOW5qPK+MS3m9e8Deesb6jcSRrJm2FiaVKAZ7nNWX8yzo4kveeJMep21ydLbZ7VPaZWfzZjTZ9VlJPVJy+vlz+lSVHvuml7E4OttM+Ma+U0vhNCz4nSd+d3zcuTI0bg8X8/y1JJWn383nzHX6bb4dvXKvi1b9hxr/9FHHwunTg/W+ULLfBe8uzD3+XO90ibqwfcsDMAADMAADMAADJTLAMIcwlxdINFuh7Qlpf948cUhbxe0JU9ebNu0eXOcZbJv/4G6eliA79Na3RQE+SBVx212SlZ6y8sHUpYX23IHoH6zvxjUfyNhTuezOM6ylbFtwliaxspKj+d9bkeYMwHJ1z0V5qy+Jtzl1aOKx02kmjz5qbjMUc+KyxJrTMBrJMzpLdZKJzuYXdMxb/eeb8Kdd90VX7SjF+54m9lbWdOX7fg06b58ojrlsWRsiCm7thttsbJ6ZWuCq3+eoGyXPutP9eWtrHy/9Aq31AMWYQAGYAAGYKC3GUCYQ5irBVlFdVZ7+YMCuOFe/vD9D3tjQDNvYCA+k04zDI4dPxFef+ONeNwH+VY/5ZsGqXpOk57XpODoo7VrYzCrvE6cPBVfBqHjPqC0vNj29gA1Wv3TSJgbSZvFdFYfUR4m6IxEBDPxJU+cSetmQpvS+36p/SzhSXU98OPBOCNwJPVKy+3Vz7asc8PGjUECnX+GnNVZ7daS1/THCDsvW2q8spl25sd0zFN6E+dSAU6C0NRp06IPXpoxIxw8dLj2HDotyRw8czaojvKT8ldeqtdIhblutMXs0s2tbCLbaKmwfvRR2fYiIc0AlSCqlwpZnewlH3rphr6/9N2j5w6ufH9V9GX6Qg+7ji3fPzAAAzAAAzAAAzAAA2IAYQ5hrhZcFDUoaPaGllhlBeaNAkif/q933hluu+0vdaKDBY4+nRclbHmXP699y0uBVlFtJB8G0HYYEMteaDHxpVlGLb3PI62PpWlWZNP1rQpzqndWXdIZc1bHkZZj1/X61mYF6/lv+t+5a1fdmGMviWj0xtQLF3+Kop69QMf8mGVfCUAS2CTkvbdkSd2z7CQQSURKx0P/2Y+fNr7m8WI+M0a72ZZu+91s7m1l+7J1+sIN/TCkY5bGbx977PHa7Mdut4Py+J6CARiAARiAARiAgWowgDCHMFcXOBbVcTWTZsmSpWHMmDExWNHSrNUfrhnyplaVd3rwTHh55swYXCq9rpPIpkA0K3D0QY8/r7w0G0czRRQ8pXlZQFlUG8mnGoNcL/qpHWFOHKsPDMezBJasZ9U1soeJL3niTHqtnzGXntPnPGEuK+1oOGYzd+UfzZiTyObbZc8nW/vxJ3XHfRqJbZphZW9zNZEoS5jTdZrJtWTpssiEtvps+Uk827hpcxwT9UOH6qVxUaLfl19urxuPRyrMdbst1qZubOUDfQcNzF8Qxo59MNpN9tN3y67de4a8cEN10lLmjRs3hSfGj4/pNatOzwrU91s36kwZfB/BAAzAAAzAAAzAQHUZQJhDmCNogAEY6CADEse8mDzSfRPXTJCTgJL1pWvnff5pWhPSfJqR7nuByPLLE/L6TZjL8gvHqnuDhO/wHQzAAAzAAAzAAAzAQDcYQJjrYEDeDQdSBgMFDMBAWQwgzMFeWexRLuzBAAzAAAzAAAzAAAyMFgYQ5hDmMmffjBbAaQeDNQzAAAzAAAzAAAzAAAzAAAzAAAzAQK8ygDCHMIcwBwMwAAMwAAMwAAMwAAMwAAMwAAMwAAMwUAIDCHMlGL1XVVrqxS8IMAADMAADMAADMAADMAADMAADMAADMNA9BhDmEOZQxGEABmAABmAABmAABmAABmAABmAABmAABkpgAGGuBKOjPHdPecbW2BoGYAAGYAAGYAAGYAAGYAAGYAAGYKBXGUCYQ5hDEYcBGIABGIABGIABGIABGIABGIABGIABGCiBAYS5Eozeqyot9eIXBBiAARiAARiAARiAARiAARiAARiAARjoHgMIcwhzKOIwAAMwAAMwAAMwAAMwAAMwAAMwAAMwAAMlMIAwV4LRUZ67pzxja2wNAzAAAzAAAzAAAzAAAzAAAzAAAzDQqwwgzCHMoYjDAAzAAAzAAAzAAAzAAAzAAAzAAAzAAAyUwADCXAlG71WVlnrxCwIMwAAMwAAMwAAMwAAMwAAMwAAMwAAMdI8BhDmEORRxGIABGIABGIABGIABGIABGIABGIABGICBEhhAmCvB6CjP3VOesTW2hgEYgAEYgAEYgAEYgAEYgAEYgAEY6FUGEOYQ5lDEYQAGYAAGYAAGYAAGYAAGYAAGYAAGYAAGSmAAYa4Eo/eqSku9+AUBBmAABmAABmAABmAABmAABmAABmAABrrHAMIcwhyKOAzAAAzAAAzAAAzAAAzAAAzAAAzAAAzAQAkMIMyVYHSU5+4pz9gaW8MADMAADMAADMAADMAADMAADMAADPQqAwhzCHMo4jAAAzAAAzAAAzAAAzAAAzAAAzAAAzAAAyUwgDBXgtF7VaWlXvyCAAO9y8DFny6FV199LWib5yedmzR5cvxvlC7veo73rv/xDb6BARiAARiAARiAARiAgdHJAMIcwlxukE+nb7/Tm1CycNFi7NzHfe3osePhgQfGhj/dcsuI/iWymcA2eOZseGH69LB+w8ZMlq5d/zkKdypn0qTJcV/H2u3HKk95qg3t5sX17Y8p2BAbwgAMwAAMwAAMwAAMwMDoYgBhro/FAjpz85352+++HyKoeNEkz5YIc83bOM+Go+G4RC2JZam4ZWJaltgm5lLGhsvHBDTjTjPsUnHOzqV559kZYa4xw+PHPxneeHN2uP7zjVzh8quvd4Zbb7017Ny1qy7N1WvXw4yXZ8axJctX8okxkoq6Y8c+GOYNDIQzZ8/V5en9qDrt2PFVmDbthXDnXXfFcrTV542bNofLV67WrpWfVYa483nYvtgTX3k/MnS6LVaPbm3VT9Z8tDZMnvxU9J1s88T48WH1h2uC2prWQ7b+bMvnYcKEiTU7z35rTjg9eGZI2vRaPjfuY9gH+8AADMAADMAADIx2BhDmEOYIGppgAGGOL4N2vgyGE9SaFeZUBwkjXsQxoc1EOavncMcR5ophev6CBWHcuEfCyVOnM8fSn2/cDBJoJkycGM6eO1+X5tDhI+Gee+4NEtm01Wfzn23zhDkT6lT2kSNHh1x35uzZMHXatCgSWdp06zlqV5jrZFvMFt3cqp+l9rLPs2a9XifO3fzl17B02fLM9BJuT50eHOKfbraFsorp69gRO8IADMAADMAADHSKAYS5JkSZThmffKvXsUc6e8jEkbxZJjBQPQZa8VmRwpzyenvu3DiTysSUVJSzOnpRp1khzq617UiZt+v6ZSvRXrPhZKesNkuwk3i2fMXK8Muvv9Wl+XDNR/Hc1m1fRGFu7cef1J1XfubD1H8/Xbocli1fEctetHhxXd6aCffSjBlRKNL24KHD4cbNX2Le2mpZ9Lr168PAwPzajEpjqdUZc51qS5ZNu3Fs5furwoaNG+NScvlN/6cHB+Ny8jvuuCPs23+g5isTJZ9++plw7PiJmFZ+Ux5iI8v33WgDZfTH9wt+xs8wAAMwAAMwUH0GEOYQ5mrBRVEdOi+QN5HKz9JQmecvXAxLliwNY8aMiYGktgPzF4QTJ0/Vgk2JEXq+lqXRzAUtGdLSoXQJmQKoHw8eDC/PnBluu+0v8f+VV14N78ybl/msrEuXr8TASbNWlK/KeH/VqlrA6u2S1zal0fImBWJWRwXjCxcuioE3wlz1B0vPwUj3ixTmrGyb0aPldupTNpsn3YpZlS/xTvsm9KT9UP1m/4EDcZaVxAT1HfWh2bPfyuw3Vo9+30ogmzLl+bgkNWuJ45bPtwYJOT/s3Vc31tp1mk2nfS1pnTp1WtB45G1q/kqFOaXR2KmZeKkvVaY4eGvOnMxxzOdv+2JD17QizHWyLVa/Xtl+um599KcX5mS7rKXKZpcsv/ZKe6hHf3834X/8DwMwAAMwAAO9wQDCHMJcXRBYRMdUkJI1gydLmFNgqaA2FRP02QebWUtJ7RqJYRIVrO6793xTe56SpbFtWq9z5y+EZ597LrP81994Y0hQm9c2BeRa3mTlpFuEud4Y8IyRbm9NGEu5GO6ziTHWdyx9nnhiIo44zWujpfH9S2lH0m/y8u7H4xp7NCMqaymqxoU8wU1CnQQ7PX9OdpPPsgQ885ex4G1ss/HemTcQtJxS52zpbFZ9/LXpvsoXX3lsGcNZY1mn2pLWsczPmmm4d9/++KzI9LtBNnnwoYfC8RMnh/S7RufKbA9l9/d3Ev7H/zAAAzAAAzDQWwwgzCHMDQkk2u2keeKViQteEFBQqmBQS7lsqZVmjGzfsSM+S0tBaV59tFxLDz/X8iHNTFA6PcNJM0gkwH319dcxTwXOKnvxe0vqBEMFsno+lB6Gvn79htozg5SvlojpeDrLJa9tWoKmdsx5e27tOVIWyMWZc7yVNdePef4dTceLmjFnfShPPDERR5zm2c/S+H6Y1W90vfpV2m/y8u3n4z8ePBT+fvfdQcs5vR1siWO6RFVjkpaf+ufOmciWLns0f3lhTtfrGXL6MSCdqSWfaUx88aUZ4crVa3X18XVL902YM/E3b5sKc51sS1rHMj5bn5M9Hn543JBZ2ln+8fVcsXJl3feOP8d+b90Q4w/8AQMwAAMwAAMwUBYDCHMIc00Hbs1CmideWYDjBYE933wbBS0tx0uXpKblaXadAlwtaR3/5JNxqZ2CpUcffaz2cG0T+rSUK70+rZfeZqgHc6eBsK6zJWIKqnw+aR46p+BXQbBm/plAaNdYm9Ng1s6z7Y/BvxPCnLGVJ6Ckx8WueDMhwffDkfQbmB3KbN7MOAl1WTPXTAjVDwM2003jn97u6sU676/Un/osUU4vHbAfNZTeuPD+bcZn4iOrjPRYOpZ1si3N1LvTacyeZoenn3k2fP/D3tosbetPXjj1dcr6zvDn2R/an7AJNoEBGIABGIABGOg3BhDmEObqhKciOkBeIGIBjg8Y/RJQzVB79tnnwsqV78e3DGomhuqjrYQ2nbfgyG/98tS8spVPes6WZvm80v00CE3zUL7WrjTtcOd0nv/+sEEnhLksdkwkEKdZ53XM0vh+mMW1Xd/onKVhO3Qpqmb+6tliEtvSHx0khEpUS2c+btv2xZAZcOavdGy6/fbb48xiGyfNB+3OmEvrZPnaeJmOc51si5XdC1vZWbMU9bxSL7aaf/KEOWbM9ccY3wuMUgdYgwEYgAEYgIHqMoAwhziSG8C32rHzAnkTsLwgoDJsyefSZcuCZiPoofMKWjWTTbNJbEaGBDgJdHounC3RSstKP/s2pOcs0EwDXv85DULTPJS/tStNO9w5Xzf2qzuINuO7Tgpz4k99SlsTCcSpPotJHfN1tDS+H2Zxbdc0Omdp2IaQLkW1566ls3dtZpwfZ9J9vRBCz4qTXc1fXvg5cuRofKmMno8pscjbv5vPmOt0W3y7emVfwqX8pX5hdVI/8zO37bjEvAXvLsx9/pylYzu6x3/8i39hAAZgAAZgAAaGYwBhDmGuFlwMB0uz5zdt3jzkrXW61gQsLwhk5SnR7Z+vvFILdExA09vw0vSpaKCys2ai6Lo0rS1lTZ8LlZbhP6d56JzNjMlql7U5S7Tz+bI/ugdrC+ZTAWa4z16MESPGk5/VJLa0vHvwzNmaiCNO9VnHte/5MqHH82oztXy+dk0W83aO7R/cmkg1efJTcSm8fljIEmtMwGvkez2XUulkX/NXyoK9rEPinH6s8L6QGKj89Qw6zUr25/L25Wddk8WArrFx2I9l3WhLXn3LOm6PX/D9Svv63tm5a1edrTV7UY844K2sf/STsvxGufgABmAABmAABmCglxlAmEOYqwskioBVz99RkKIXMygo1KyBY8dPBL3JTse9IPDZls/DqlUfBIlktiRL1yxcuKgW1OpNd3rj3WuzZtWe4aY0ekGEglW/lNUeti5B4vTgYMxTge3XO3cNSWsvfxgzZkx8+YMENrX/9yVL58K69euDBAtvkyyRwvJR2z5auzYG0srjxMlT8WUQOu6DWZ8f+/3xBSFuUmFFvjfRxQf5xoQEkvSaVJhLZ+Kl+aXnfZm+H1q/0UsD1FfFr/rYl19ujw+8933M6sd2KLu2rHPDxo1BAp1/hpzZS77W21f37T9QN7bYefldY4bNtDOfpiwovYlzqQAnQWjqtGlRqIMXdwAAIABJREFUaHtpxoxw8NDh2nPoNENZoq3qqHFJ+Ssv1Wukwlw32mJ26eZW/WzuO++E3Xv2xB9eVLbN7J40afKQt+fm9R+9MVy+zHqOaTfbQ1lD+yo2wSYwAAMwAAMwAAO9xADCHMJcZnDYDqQ+KPSzQv56551xmaoXBCwY9OlsXw81l+ilmShz5rwdg0Y7p60Cnv+fvXP/lqI41/C/GX90LbNYrqPxRJOoiVdE8cYRSYJERYOAIkHDRUREEkU0ChqViwIqgnjl5l3wlj7r6ax3/KZ2VU/P7Nl7ZvZ+f5jV3dV1+eqrp6q73qnuvvba67qEOSZPGzdtnhKX+EyGU4GBlSasOIn5xn3swxdMlmM4+3GirEfL0jiqs4W5+T3w0/6Re/UviS7iTOFiLjJGWBTmtB/TKiyueuJ8LFtlxrBSv6GP/eqyy6b0m2in939mW4/d8/43fukKKsTO5fesaPxi6udffFmLesQjvtorZQG/I6AisNFOf9+4setddgisiEjpmBSPIwNwwrnITmzbdMXcbNYl2jEb++pH0Vdxn2sMfUa2cJ3iehXjaP/662/orH5UfG9/7jP2hX1hBsyAGTADZsAMmIGqsjBnYa4zuRhmhzh56nR1z4oV9YSRFWkbN26qP+jA5DJOBr/+5tv6S6usLmFyyY99VtIhyMkmHm/lXT18AIJ30JH3e8eO1SvdUrGNieyT27ZVlMvkaNGim+vVJ88++1xWYGCCuf3pHdWNCxfW8bHhziVLqt0vvFhhHzb0EuaIc/S9Y/UqFdKndbYwN38vOBI0ooAmriW65M7BXBRjFBem6UOszhJXElU4F9NQDunWrF1bP4qoY9LHfqhw9Rv1gf0HDtYrR9M+Jvu97eZaq2dpB8YxRLboo/eOHa/+99e/rse8GB73EdtYYaUPDKjd03ZVmiiqpoIRYxvjGKvnGDexi7EJ0Y/VkJxXPmKorTA323WRnbOxpQ2OH3+/Wvfo+vrPH/yG//AjfYLzqR1cr3bvfqFzHeFaxbsCuRamcX3c3W/sD/vDDJgBM2AGzIAZmO8MWJizMDcvJg1MpBD2SpPb+T4QuP4zdzFEPCtxJ9GllzCneIhprOZhW8rTbTlzbWnf2rdmwAyYATNgBsyAGTADZsAMDJsBC3MW5ua8MMdXCnlXnFYw6GuHw+5Mzs8DdI4BRLTSKiQJbhLmEPFYnaOfwll1x6o34qsMrXBS3F5bC3nmU+x4axbMgBkwA2bADJgBM2AGzMD4MGBhzsJcZ6I/VzpmSbDgS4e8C26u1NP1GJ+B1G3htjADZsAMmAEzYAbMgBkwA2bADJiBQRiwMGdhbs4JVfv2H6gf89M7lbRS7pNPT865ug7S6Z3GFwszYAbMgBkwA2bADJgBM2AGzIAZMAPjwYCFOQtzFqvMgBkwA2bADJgBM2AGzIAZMANmwAyYATNgBkbAgIW5ETjdqvR4qNJuB7eDGTADZsAMmAEzYAbMgBkwA2bADJgBMzBKBizMWZizIm4GzIAZMANmwAyYATNgBsyAGTADZsAMmAEzMAIGLMyNwOmjVGJdtv8JMANmwAyYATNgBsyAGTADZsAMmAEzYAbMwHgwYGHOwpwVcTNgBsyAGTADZsAMmAEzYAbMgBkwA2bADJiBETBgYW4ETrcqPR6qtNvB7WAGzIAZMANmwAyYATNgBsyAGTADZsAMjJIBC3MW5qyImwEzYAbMgBkwA2bADJgBM2AGzIAZMANmwAyMgAELcyNw+iiVWJftfwLMgBkwA2bADJgBM2AGzIAZMANmwAyYATMwHgxYmLMwZ0XcDJgBM2AGzIAZMANmwAyYATNgBsyAGTADZmAEDFiYG4HTrUqPhyrtdnA7mAEzYAbMgBkwA2bADJgBM2AGzIAZMAOjZMDCnIU5K+JmwAyYATNgBsyAGTADZsAMmAEzYAbMgBkwAyNgwMLcCJw+SiXWZfufADNgBsyAGTADZsAMmAEzYAbMgBkwA2bADIwHAxbmLMxZETcDZsAMmAEzYAbMgBkwA2bADJgBM2AGzIAZGAEDFuZG4HSr0uOhSrsd3A5mwAyYATNgBsyAGTADZsAMmAEzYAbMwCgZsDBnYc6KuBkwA2bADJgBM2AGzIAZMANmwAyYATNgBszACBiwMDcCp49SiXXZ/ifADMwuAx98+FF1yy2LK7Y53587/1113333V28dOpw9n0uThvUqI41fOt7w2OPVrud3D2yH8h2WPcrP29ll1v62v82AGTADZsAMmAEzYAbMwOwxYGHOwty0J+HusLPXYUu+Rgi58sqrhiKqlMpw+GDt/MWXX1Vr1q6tfnHBBcX2QZTj/KDi3DCEMARCyoejQe0QI8OwR3mlW4RDbKSM9NwojiWsIq6yPwobXOZgfdN+s9/MgBkwA2bADJgBM2AGxoEBC3MW5jyRnGUGEGpuWby4YnVSOgggOiDQxF+bCb+FufG/oNC2tPueva90tW9s69x+mxVswxTCKK8NczlWc/aXwlQv9Qd8w37aJ9Jj0k2yMEe/xyeDip/TTS9/58af1Nfz+fjkqVPVps2bqxsXLqzb68ILL6wWL761eunlPdX3P/w4hdPz331f/eull6tFi26u419y6aXVqodWVydPnZ4Sdz771XUf/2uV28htZAbMgBkwA2Zg9hmwMDfLoowhn33Ix83nTRPjnNjRRiSxMDeZXDWx0A+3av+c2ANTMZz9kljWJjzmVbKxH6FQPrAw145hC3Pt/FRis024VkGW+sOmzVuqH378qSO4sU9YLv7ChTdVn5481YnbpnzHmfk2to/tYzNgBsyAGTADZmCcGLAwZ2HOE4ZZZkBCRNOKFc61FSoYUCTMaBXSOA0y890WhNVcu5Q4oC159DV9LFKCTDr5RyhT+6dMSehtI+5GjtqIb03t2o8w15RP7hx1muQVc7k6zWZYibvZtGHcy6LvrVv3aPXynj31Ks4ff/pPvUru9TfeqNm77rrru8S24++fqK644jfVbbfdXn340ccV8clj65PbKlbabXliax027vW2fZ6gmAEzYAbMgBkwA2ZgNAxYmJtlUWY+gK4VOfv2H+h6tOeGG26s9r7yatcE5bvvf6i2b3+64hwTGEQHPQL0yacnO6KhJj47//HPTph8ySNED/51VbVkyf9VX371dT0hQoi49977qkOHj1T3rFhRXXTRL+vf6tVrqs8+/6LiMaXHHn+8uvzyy+syefzo8JG3p+TN5OrZZ5/rPM6EbUzYmNyqfLYSC949erTa/vSO6pprru3ke+jQ4U6dJaCk4koqNDQJc9iPDdhCPthO/P/99a+zAlC00/uzP9A+v/u/jydHoVV9JCeAwdaOZ3b2FGaj+CWuIkcS5di2bXflk7MrzYO+QT9LWW5zHIVC5RPDKAtxg/5019Kl9dhAH6Yvr1r10NgKc++f+KAed+J4c/bsZ13+11iBr6NP6dcbN27qGpM2b3liSr/OpVfYsMafaJf3fx4zYHL93zZM4Q//c/3at39/V5tyPeK6dNddS6uvvv6m65z9+rNf7Qv7wgyYATNgBsyAGZjvDFiYszA39MmCRIeLL754yqSdycvuF17slKlJeW4yf/31N1QS5xRP4lvsuKlop7i5PAm79trrOqJWjBPLI/9vz52vVq58YEodSIMdTKRlhyZmv7rssinxo1gi4SOWy36MQ54lYe7sZ59Xd9x555QylB92yCZvx+cCp1VKtE+JAbVh3EYxL21P8pKYFfOEHc6RT788KJ82wlxqTzwmn6Yv0ca46q+qi84dOPhmtp9Sr7S/KM0otrJ/wYIFnT8XYhsiLCLQyDbaJLW/n36dS08YY+uwxh/Z6m33GCJhbtHNN1dnguBKn7v697+vPvr4k047y3dN5xTH224/2x/2hxkwA2bADJgBMzDfGLAwZ2FuykRiup1AwtyyZX+s3nn3aP0IEBMaVqSxkqzX6gHistKNyesLL/4s4vHS7XRVAnF5TIh8UxGPuGsffrg6feZMvfqGVXIStW67/Y7q7XferW1jxd3fN26shYy9e1/p+IPVeeTBqhVNrJmE79r1fC0YYI98xcSYyXjMlxeEP/vcrjoPtoorkYYJm8LSLedSUYb3GD26fn3Hpq+/+bZOz6rDV1/995SVNWmePp68CxwcwFbadhKDdE5CGCvtJAoNIq6NizCH6IH4wRjA44N62T798PG/b5wibKX+mc1jtQWrb5/avr0zVtA/WV1Fe8RxhTaLwlypX5Nvrl+n6akrYcMcf2bTf5NUFo+pcq3hEVWuPdiu9k/Ha9Xria1bu9pb4d5O3njsNnObmQEzYAbMgBkwAzPFgIU5C3NTJv3ThU3CXE4YeHrHM9Vvf/e76sQHH3bKZdJN3IcfWVevsrnqqqs74gKTGtmjyTqPrSKmEa4wBCu9jFsTpXQFDvEpP4p4yht7sEtCxzffnqv+9Ofl9SOyKktxz50/X/3l3nvrL+4hihGemywTfvrM2YqXf0cRblBhTnnF+ssmCSqyX+HejsfFQ0yqfcSA+gjh4pWw0iRf7UmcKO5ImGMLa8pL8dMtcSTg9bMVx7K/n7RpXNVRvok2v/7Gvtq+KH6rDqW+pvOzvc3ZLxvUZxHoJOSk9itO236dpqesXBjhylvtRpjaLobJXm/L44VWNbKKmtXU8pXaXzwrXNtS2+i8t2Wf2zf2jRkwA2bADJgBMzBfGLAwZ2GuM8EYFvSIBkzCJTrEfA+++VbXOR4HRQBLJ+06jpNHrY7jJds8vkq+TNx5ZPbI2+906qGJUpzoy4bSJCkVtjR5lR25bcy/lK/yifXIhck+bYmfTvRSGxWXbdO5GM/7o7m4qc3VJ9Jj+BFPxEnbPrab+I5M0f56dHQ6LCit7Izltt2nLthPfdjvlU71Uf2JX+pPvc71KmsmzufsVzkS8ZvqJp/nfJU7l/NNLgwbxFlkJRcme73Njw98VZUPO/DeUvwX/aT2L/VZr5jL+zT60Pv2kRkwA2bADJgBMzDfGbAwZ2Gua5IxjA7BpB4hKze5ZyUMj4fqQws8LkrcVQ+tro4ff79+DIwVdKXJo94nx+OrrGpbfs+K+pdbwRAnw6pXaQKbToBVfk6QU1jMv5Sv8ul3Ymxhbm5dnOgLpRVusAk/4om4pUm+4sa8CINfCXOKU+qDnC/91A9yfbeUJobHfkBedy9b1iVkSMSI/UFhqj/5xXxi/r3OpXFn4zhnv8rVyltWWWnlbVo3+ZxwpdM2dy5NT9xcGOGDjj8q39uq/gAJ7x99+JFH6mtOzifwnH6plXj8mcRqydL753J5Oaw8Ptk39o0ZMANmwAyYATMwVxmwMNcwSZ2rjT7T9WJSnxMFeNSUd7nFCQwTGt4lFT+kgH25CSXhTG555Is0L+/572q59HG3polyaQKbToA1oebxWj0i2+S3Ur65eigsPt6W5p0T5li1ge/4mqwei1O61H6FezseFy/4iMJTKr7F8+m52IZq5yhscZ7wKMwRRpxUwIt55faV/yDCHHVI+z1hspUt59nSB+in2JDrr7yTDQE/Zwd59luvXF2HFZazX3nz3ksenY+P5Kf288EAhJu2/TpNT1m5MMI11qgNYljT+CP75/O2fkfos8/VK7K3bXuqI6zmfIL/4dVfZR2P8TbXRg5z25gBM2AGzIAZMAPjzICFOQtzU1ZpTBdYJtNMwPn6apx866MJq1ev6UxyEOouufTS6o19+2uxCcHp408+rTZseKy66KJfdib10SaEOPLnEdb063jEa5oolyawEiQ4r7JYzYcNTKqZ4GIbP/YRDp7ZubMTt5RvbmLMC+x5LIofYpvKi1sm0umqKVYFskIQf+195dX6hfhMHo8df7/68/L/Pg4c7Y/5eX90FyLxGMUR2ikKdfE4CnPihzDlk3JB2+aEOcIpsx8RS/0gJ4iVGJKN9Mm0LNnMuVjfmJfixPNaGUsf4YX79Dv452MIf/jDNVPKifnN9r7sv3PJko6tGsf4AA79lQ/NyK50rFC/5hH9AwcPdvo1bfHAgw/Wgk/s12l68s2FEa62iey1GX9k63zd0qarVj1U8UGP1157veavyRclXvlIBIIdK7xhoikPnxvdGG3f2/dmwAyYATNgBszAqBmwMGdhbuiTBQlzTMbTH6tHTpz4oFMmE1Ymrmk8JviExwmlOos++ECa3IRHE+U40Vfa0gRWgkScADNh5hG01DYdR9tK+eYmxvoKo/JhK0GDfGI4+7EeBw6+mfXXry67bMoEXnX2drQXGjEgttJj2odzaueSMNckspWEOfImHRy1EdvUD9rEjXlTRsmGpv5IHrnzCM4bN22e0hcQOWBd/YX0o/7J/rTf6ph6UB/ZmRsrSv16wYIFU/p1Ln0ujPLEWhyrmsYf2Tjft/Kb2jC3VX/FV/h00+YtU3glHY/B6ovh892vrv/oxyu3gdvADJgBM2AGzMB4MmBhbgwmdnOtc0iY41EpVpEwmUZk4z1yJ0+d7kxQqTerCA4dOlwtWnRzPalBuNv+9I7q5KlT9YqxOKGUn0izafPmKn4EQufYaqIcJ046X5rASpDgvOKy5dHZf730crV48a11PZhoYeuOZ3Z2PX5bylcTvLQehK9b92jtF/xz111La9+QTzoJjPWg7vv2H5jir3ePHq3FitT+WBfvj2YQpj9ISCrxQLupnYmvVXESu3gn45q1a4viWiwj184lPtO46gfkl56Lx6qHbOacbGXLMXnAsphky3HaF0r9lfAnt22rVy3RRxhL9h84WD23a1fHn9GmUe3Lft6n97cNG2p7qecNN9xYf5wminLYmGuLtF+zUmvjxk312Ag78mEpfS5P4qqdUp+Xxp9R+XDcypXf0rE4Hkf2sZ9rxe7dL1Q3LlxYc1665o1bXW3PaK4L9rv9bgbMgBkwA2bADEQGLMxZmGucgEdY2u5rQt5rct82vzSeHv3isU720/M+9iA3TgwgiiC01cLV4sVdIovsRFjRRF9Cj0SAVFRRGsIVh20UbxQn3bYRHGKeuX2JhmneEvWUpmS3xgeJlWk+Pv65/6ZfsbZvfvaNfWFfmAEzYAbMgBkwA2bADMwVBizMWZgburClifdMCXNH3n6nfr9c+tGHudIpXQ9fYCaRAYTBkmg3ifUZpc2soEPo5B178WM5o7TJZXtcMgNmwAyYATNgBsyAGTADM8OAhTkLcxMlzOn9SLmPPniQmJlBwn61X83AzDKQrjbUqkMe4X1+925/OMDX6aFfp92nZ7ZP27/2rxkwA2bADJgBM9APAxbmfMM/9Bv+mVwxx0u0eQ9d7qMP/YDvuB4ozYAZGBcGTp85W61Y8ZfO++niO/VYPTcudtoO9xkzYAbMgBkwA2bADJgBMzB8BizMWZjzpM8MmAEzYAbMgBkwA2bADJgBM2AGzIAZMANmYAQMWJgbgdOtMA9fYbZP7VMzYAbMgBkwA2bADJgBM2AGzIAZMANmYNIYsDBnYc6KuBkwA2bADJgBM2AGzIAZMANmwAyYATNgBszACBiwMDcCp0+aemt7/Y+DGTADZsAMmAEzYAbMgBkwA2bADJgBM2AGhs+AhTkLc1bEzYAZMANmwAyYATNgBsyAGTADZsAMmAEzYAZGwICFuRE43Qrz8BVm+9Q+NQNmwAyYATNgBsyAGTADZsAMmAEzYAYmjQELcxbmrIibATNgBsyAGTADZsAMmAEzYAbMgBkwA2bADIyAAQtzI3D6pKm3ttf/OJgBM2AGzIAZMANmwAyYATNgBsyAGTADZmD4DFiYszBnRdwMmAEzYAbMgBkwA2bADJgBM2AGzIAZMANmYAQMWJgbgdOtMA9fYbZP7VMzYAbMgBkwA2bADJgBM2AGzIAZMANmYNIYsDBnYc6KuBkwA2bADJgBM2AGzIAZMANmwAyYATNgBszACBiwMDcCp0+aemt7/Y+DGTADZsAMmAEzYAbMgBkwA2bADJgBM2AGhs+AhTkLc1bEzYAZMANmwAyYATNgBsyAGTADZsAMmAEzYAZGwICFuRE43Qrz8BVm+9Q+NQNmwAyYATNgBsyAGTADZsAMmAEzYAYmjQELcxbmrIibATNgBsyAGTADZsAMmAEzYAbMgBkwA2bADIyAAQtzI3D6pKm3ttf/OJgBM2AGzIAZMANmwAyYATNgBsyAGTADZmD4DFiYszBnRdwMmIERMfDWocPVfffdX507/92stQFlrVm7tvrgw4+GViZ53XLL4il5fvHlV9UtixdX1HOQCzj5XnnlVX37aNfzu/tOM4h9TjP8mxL71D41A2bADJgBM2AGzIAZmG8MWJgb0YR8voHm+npwNQNTGTj63rFauGojziE2/eKCC7p+hG147PGusDQOx4hbEuIQ5igPwQzhTOJXLl0uTOlie5aEOQS5WHZM02tfop5s6EfcU9qYhn3lldsOamevevj8VO7tE/vEDJgBM2AGzIAZMANmwAz8zICFOQtzA61kmZRO9MOPP1WPrl9fT8gXL761+vyLL+d0fWkXCRBRlJiU9pqLduYEtZwwVAojPX5hKwEvJzz14zuJc4h6pXSUlxPhiN9GzMPWHc/s7NhcKicXLvtUX1huEs4Uv+RDwuVH2Z9b4ZezpVdYqeyrrrq6Wn7Piur1N97IrohUGzbZnGufb8+dr57fvbu67fY7qosu+mU9tl1++eVTyqK+ad7yJ3XSOHHhhRdW+/bvz3Lw3rHj1RVX/KbOJ/ov+uT4+yd6xlFdY/kxj3HcP3nqVLVp8+bqxoUL6/rjJ64hL728p/r+hx+z/lI9fvzpP3UbkSbXhoo33S1+3fbU9mrRopsryqK9sXm6+Tr9zzfJ9oV9YQbMgBkwA2bADMwGAxbmLMzN6Zv4M2c/qxbdfHPFJLlpAjobnW22ytCE28LceFxEEDQGESQk+EgQifnQtiXRrC1niGt3L1tWr5pL06Rlp+fT49KKuabVfCX7VXYqaDTVWWnwUfQTdsZzsjuNo/BBtso/FcHiMSLghx993DXWSqyK8dL91AeIYNdff8MUwS2mUxrqGMPZjxxqnLj44ourPy9fXn39zbdd9sU/NUhLfjn/7PzHPyvykDiIcJjGU11j+WmccTru1aabNm+p8E/J5gMH36wuufTS2v9qj1LcQcMPHT5Si9VpG89UeYPa6XTjcR1yO7gdzIAZMANmwAyMNwMW5izMFScXc6Hzvv7GvnrS+PKePbVAx+q5pgnVXKizJtxs50J9Jr0OUQSiTXLiBJPpNFzigASRmA/xZ3ICjp1NK9TSNskJcxJjchzGusS8mtIQL1dOLr18ljuXChk6zqWJ6Uv7aqdUaPzm23PVm28dqpYt+2Mt0CCoffLpyU6fVF3Tdi+Vc/rMmWrhTTfVfzCsXrO2+viTTytWZhH/u+9/qPPe+uS2assTWztlcA5OUtsIp12oO2l++7vf1Sv7YtmIgFf//vfVxo2b6ng5/1DHP/15efXgX1dVT23fXq+cI13Mh/1+65qmn+1j2nTdukcrrhvYjp9ZJcfqR/rFddddX3168tSUemLn8ePvV9dee131xNat9TVnJvopHMETKyYpRzbOtp9c3njf4Lt93D5mwAyYATNgBiaHAQtzFuayk4vpdGJN+PbtP1D966WX68dsmADecMON1d5XXu1MJimDCeX27U/X5/QoDisNVj20umsSq8elWJ2R2nb+u+/rieGSJf9XffnV153zCr/rrqX1xAVRrjShYtLJhOvNN9+qJ6Ks/sBmHhd7+513Kz0+xiNDhHP+6R3PTHmkickbjzopXq4u2I/AQHm5yS4TuVQUkX3vHj1abX96R3XNNdfWdlDOoUOHOz4lHvalv7aT/9S3Ph7+YJ4TSgjr1Ua0LXFOnT5TCy05wWsY7SWhKWUwzbvEGuyRlsdYJQhFQU35kz7mybHix/B0X+lz9cePKfsck7fEoTSd8kvtScstHSt9yXbGBMYtxrf4x4Ds6dXulIswhOBGXbZte2rKuFOyjfAcb4RrnGZ11yPr1nWtmtNqOQQ3xnH5MC3nyNvv1H987N37SqUxGqEojddPXdO043RMO6z/24Yp47NsPHHig3ps3rhpc3X2s89rnvG/zg9jKxbgiUeaOR5Gvs5j+GO9fWqfmgEzYAbMgBkwA20ZsDBnYW7oN/Wa8PF4UzpJZjKx+4UXO2VqUpvG4ziuMFG8VHwDdE0IU9GOVQUIWAhoxMMuykc4SzsIk/KcDYQhwvEobHqevPbsfaWTFxNwJmRpPI6xg0mbyh1EmKO8X1122ZT8o4BSqkebyb9s83bmLyC0UxRy+hHmWAWqNi+1d45ByuNxSrY6n4pUtH2a5yDCgvoreZEn5cjmuM85iTZ8KRZOZVvTlnjEjz6U3bFOURBUOZyP9sX9QdhX+mhLmg+PifK46MKFN1Wnz5ytfSJ72vTNr77+puIPBh7L5/H8NP+m417CHP7gXXJx1RxjKqvlEN44T1uoLVWWBCLVSX7IjdH91FX5j+NWwlyuHRDi7rjzzurvGzdW/CmkOg/Sf5rqzntSedcd7y/MPTbclNbnZn5st4/tYzNgBsyAGTADZmAQBizMWZjra5LXBjJN5HiE6513j9arO5jQHD7ydi1QMcFkolnKi7h6f84LL/4s4iGoIU7FF5VrcojwFR8TI28mkry4nEkmx6ymY9LIKhAmTrF8Teq1Qg6RjYnm43/fWE9KEed27Xq+nghRJqtItBqOVX/kxRc2CaPeesyMPEhHeJxIDSLMMTmO9mHjs8/tqn3CVvWR/9kqzNvRXiA0SY/iBvuatLPtJdAQnzhaMae0adsqHuyl53Qse1JGxGW92u2WxbXwjKCWE50UNyegpfEpR8KcbGAbhbMYrv1e55UvYwtlIlrio+gn+TzWWSIS5+K+yu1nq/RpndM8+IOAPysYEzkne3L+U5ja+KOPP6mFsocfWdf3o/jkkbMN31EOW8YSrZpjnERc0jipePKj6iWBKK4k97UAAAAgAElEQVQCZIymjgh6ihfr2ovxmGYc9xG2udbw+C/XAdlIW957733VypUPdMQyta/aUHGnu1W/W716Tb26W38acY259777plwHp1ue04/22mH/2/9mwAyYATNgBuYHAxbmLMx1JhfD6vSayLFN82RyysqMEx982DnHpJC4TDp5SbomGkwa42NR+pCDJozkrbA4OSSclQQIYVEMk4gXxTrZx6QzJxywkuR/f/3rKavszp0/X/3l3nu7xBTqlstbj4XF/DW5Sie72MNELsYlrGQfq29YsRInf03+V329nf0BXgJO2rYKj22Yax8YkLBR4kGsKF4uH8IkGsQ+GpmMgpjsS+0u5Z0Lp5xB0kc7cvmWwvAP40f0aayz6oRd2idNKb+mcKXPiV8xnWySz2WPRLjcVvarbXQc8+21T5qcbdhBmbJHq+a2bHmifkeaxDXFS/3DHyQLFizo+qNEq5TT8Vh17cVlr7qM8rxWxEXxDXu41hDGajniyEbVeZA2Ux65rdojxwth6ersXB4Om/3x3z63z82AGTADZsAMmIEmBizMWZjrTCSaQOnnnCYOmvDFtAfffKtrMvjZ51/ULw8vTTLipCYnrJVWaEhQSyeTrFZhRUf62CvxcsKBJsRpPpqMx4lmaQJM/UkfJ8GlfIlLPqktJftyk78m/8e28P5oLg6p2CSWIuu5toEB8aZ2F5e0uZiJ8eJ+zFPp1Ud1LBtSG0nLOTGs+KV+S7jyIi12ECZ7oy1N+zk7muKrLHzBClb8Jb/IZuosn8f9fm2THcorJ34pDluEe0R+xiaOZY/aNMZN92d6xRzladUc7RT//MBHadvxZwN/pPBIJSvnZC+rh3k/aPqoZz91VV7jtOVDD7fddnu9Ko66RNvkH3zU9BuUr1gW+yqP/sUfM1q5x+PSfICDVeW0gVZyp+l9PJpx3363382AGTADZsAMmIEmBizMWZjrmmQ0wdL2nCYObNM0PGrGxIFHzziHQMZkhokEX7PjMSomiJrIxck98fU+OV6EzhcB01VxxJGA1zRJSh+nZdKkCXy0uSSgaTIeJ9XYWpqckz/2yCelfCmbfFJbSvbl/NTk/1g374/HxUFt2GvizvmUN/UPtjoX44kzcac2V5mEK47yIg5hrF5lqzRsyTvHeCm+0pL33Xcv6xLrdE75NvXX0rnoM/XJGEbeqivvg8R26qww9kvpon1N+0qf84vSaQVvFKxkg9pNcXPbmX7HnMpENGTFFR+8URg+wv/Rr1oZV2oXwvkghPLop65KMy5bPrjD+04ffuSR+pqT2iX/NPki9V+aRz/HpT+dyENfyU2vb/3k77jjcV1wO7gdzIAZMANmwAzMLwYszFmY60yehtX5NVFhG/NklQXvLopfRmXCzmSVlXMxriZyUSzgvL60SpqX9/z3fUbpxxz0LrmmiVL6HiQmnakYRnkSLeKklHBNxuOkWiti3j36Xlddco+yagVMfFRX9afOqS0l+3J+kv9Znag8vR3dwA4jTSz2OifBBwYib3DCT4yqv+XixXSwIG4kVqV89xLaxBPpKFfx2b972bIuQU/nKItzlK30vbZKy7YpruIhJub8iV2qc7SXdOrLqQ+ayovnlF7tFM+xzx8FvGeSPyT4Q0ErnGRP2jZpeuWhr7LygRn+vMjFy4XBSM42/ICv2ObSKUzxon8Yc3N+jmFx1V0/dVW5o97i42effa5eYc2XcNP3kvayT3XG/73i9nNery9Yu/bhKRzo2sdrFnjdQj/5Ou7orhH2vX1vBsyAGTADZsAMWJizMDf0m3dN5Pj6KpNWBhq2+ggCL63WJAehjpdWv7Fvfz1hZdLKhxM2bHisuuiiX2ZX2GhSiLgWV6BoQKN8JsFxxYbOsWUyjvAVJ8lMOlMxLMaNk1LCNRmPk2p9/IEPTPCScOoS6x3fd8cEikejmDAj0pEnYTyKxIcmUltK9uUmf6xGpP74UP4nf//GzwdiMeUr11bEEW/ijzAm/gonXYzHscqIAoy4iWGxTNLkVszFOOQhES7GJ88oRsge4mMnxzEf7ZMu1oPwmK/iqe452yk35h/rGfdJqz6m/GI6ldVmq/Sp+MXqJd7TxtdYEaxK7yBL61wqk1VqrNyib69es7bzgRni89gi57c/vaP+MEHMA5+ktnEeHwwizKm+pVVZjHuPPf54vfIOmyhLvm9b12j/KPap46pVD9Vj8Wuvvd4RU/uxRXWOfaGf9KW4+qMHDjZveaLiEVbicv3gmPD04xSlvBw+ftcEt4nbxAyYATNgBszA/GTAwpwFi+wkeToDgiZ8cfWE9tMXU/PIFMKczmvLpJnw3KRGH3wgbhTXsFmTFj6IwMqCXD00sYyiHpNyTdRjGoka6aRdecSJJissWM2iOsRtWm8mr0yeYhz2ESP/55JLpthSsi83+Yv+Uf7Rzlg/749u4BdbaiO2KWexfTiHEMaPuIgtEpjYKi7xYnvnWBU3MZ3Ss80JYvE8+6RV/4zxKW/N2rV1HqqjymGbE4lUJnbH8zFf4shu4nEutQl7og8VX+UTX/6Q3+O5NL82x2l+yjdu+ZoyYn3MT7bFeOm+/Kt0+lp1Gi8eKw1+iOHsRy6oN2G96q948qteJ8AKYdmVbkmDQKR3ebapay870jJm8riNvdGXOVuUh9ojF2fQsJOnTle33nbblPalPe9aurTrIxSDluF0o7s22Pf2vRkwA2bADJiB+ceAhTkLc8XJ1aADgiZy6/+2obpzyZJ6gobIxnvkmFDEfBGoDh06XC1adHM9yUDAYtXHyVOn6gl6blJDmk2bN2e/gKrHfNKvAsYy2WfVHRNHvizIMZPO6Qpz5IM4R96qj+qtlSPRDib0iHPEQZC7Z8WK6r1jx+qVbqktJftKkz9W7zFBo44SOP0y8PEY4KOQI7EDLtRvmFzHcDFDWCoG0D/SsFw88hZTsfw0rcpKBTGFa0seEt8Iy8UXm7EuKrtUrs4rTZov9c2NCbKLc0pLmGyIok/0Gfnjl5hGebXdymbaLf74ujSrZHmvplYIxzxlW0yT7ufqSrodz+ysP7xA/yYNZfHo6IGDBztlUac0v+h38RZ9E+3TvuLJR6WvTys+Wz1SqVXCberay46Y/0zvt7E3+jJnj/LItWEufr9hvP5h48ZN9ao+2lnXTt5n2G9ejj8e1wa3g9vBDJgBM2AGzMD8ZcDCnIW5od/EayI3UxMtvUhdkz4PYPN3AJuktle/YBLdNFmXWES82IcQRnqJAfijKZ5EJPJBOGAbV6i19Sc2IsyRH2mwU8Ifx6pDrp6pYEGcVEDq5zj6pJQX9qncGB9bFZ6zta0/HM9jkBkwA2bADJgBM2AGzIAZMAODMmBhzsLcxAlzvLeJ98uxMm1Q8J3Og+ZsMYDw1UuMy9mSCkZNglsU/VJBL+adCmqcK4lZJXEsCnAxrVZUKc8moQs7er3DLtrddp8yox3Rh01+UbwohLYt0/E8lpgBM2AGzIAZMANmwAyYATMwHQYszFmYG7q4JZFgJia5eodcfD/cdDqA03oANQNmwAyYATNgBsyAGTADZsAMmAEzYAZGxYCFOQtzEyXM8a423qWTfvRhVB3I5XrwNgNmwAyYATNgBsyAGTADZsAMmAEzYAYGZcDCnIW5oQtzg8LodB7IzIAZMANmwAyYATNgBsyAGTADZsAMmIH5xICFOQtzFubMgBkwA2bADJgBM2AGzIAZMANmwAyYATNgBkbAgIW5ETh9Pim/rqv/6TADZsAMmAEzYAbMgBkwA2bADJgBM2AGzECeAQtzFuasiJsBM2AGzIAZMANmwAyYATNgBsyAGTADZsAMjIABC3MjcLpV4rxKbL/YL2bADJgBM2AGzIAZMANmwAyYATNgBszAfGLAwpyFOSviZsAMmAEzYAbMgBkwA2bADJgBM2AGzIAZMAMjYMDC3AicPp+UX9fV/3SYATNgBsyAGTADZsAMmAEzYAbMgBkwA2Ygz4CFOQtzVsTNgBkwA2bADJgBM2AGzIAZMANmwAyYATNgBkbAgIW5ETjdKnFeJbZf7BczYAbMgBkwA2bADJgBM2AGzIAZMANmYD4xYGHOwpwVcTNgBsyAGTADZsAMmAEzYAbMgBkwA2bADJiBETBgYW4ETp9Pyq/r6n86zIAZMANmwAyYATNgBsyAGTADZsAMmAEzkGfAwpyFOSviZsAMmAEzYAbMgBkwA2bADJgBM2AGzIAZMAMjYMDC3AicbpU4rxLbL/aLGTADZsAMmAEzYAbMgBkwA2bADJgBMzCfGLAwZ2HOirgZMANmwAyYATNgBsyAGTADZsAMmAEzYAbMwAgYsDA3AqfPJ+XXdfU/HWagzMC5899V9913f/XWocO+AHosNgNmwAyYATNgBsyAGTADZsAMzEMGLMzNw0a3UFIWSuwb+2Y2GZAwhzjHflPZnF+zdm31wYcfNcZryiM9R1633LJ4Sp5ffPlVdcvixQMLhuR75ZVX1aJjr3pFm3Y9v7vvNDG9991/zYAZMANmwAyYATNgBsyAGZg0BizMWZgb2iS/H/j7EST6ybffuKxU+sUFF7QSICRWbHjs8ZH4rN+6Of5kXJDaMqg+g2AGixK/4LfNT+kiFyVhDpsQ1jgf47fZVz+RTf2sBlTamEb+UX7pdlA729TFcSajD7md3E5mwAyYATNgBsyAGTADk8yAhTkLc31PvIcBvESGNiuFhlFeKQ9N+qMQUIor0SAKcwqLYsGFF15YLV58a7V79ws9V0GVyhok/Pj7J6orrvhNLdKw8miQPCYpzbgw1MZn4ixy0nY/9hHVOTKYlk/b50Q44rUR8yhvxzM7B1q5JvtkM/VuEs4Uv8kXkeWSkJj6YDaPS3W46qqrq+X3rKhef+ON7DiQGztSP+Ta+dtz56vnd++ubrv9juqii35Z9/fLL798Sln4Lc1P7YJ/xCTj1b79+7PjxXvHjvccU9qMO6prLH8222iQsk6eOlVt2ry5unHhwtqPGtdfenlP9f0PP2b9pXJ+/Ok/dRuRJteGijfdLX7d9tT2atGimyvKor2xebr5Or0nNmbADJgBM2AGzIAZmF0GLMxZmBvJTbwms6OeqGlyyrbX4KPJZZxoKSydAOt45coHKibSvfIexvmd//hndfHFF1eapM9WucOwfZA8xoWhNrb3Eqja5KE4iFN3L1tWr5pTmLbySRSzdC63LQldMC6G021J9FPZsX9QJnXvlQZ7+cXxQPnFuqRxcnWa7TDZmfopHvO48Icffdw1DvQaO0if+hIR7Prrbyi2TUyDr6IN7Ef/auxjzPjz8uXV199822XfDz/+VD26fn0nj9gO0cdtxh3VNZYf8xi3/V5tumnzlgr/lOw+cPDN6pJLL619l7ZhKU2/4YcOH6lF77SNZ6q8fu1z/Nm9mbe/7W8zYAbMgBkwA5PNgIU5C3PFycVMdm5NfEY9UdPklG2v+mpyGSc+Cov1YLUEk/Bly/5YT8z27n2lZ969yu51/ptvz1V/+vPy6sG/rqqe2r69XuXCJL5Xukk+Py4MtfEhfJVWjsFTZKpNfqU4TeXk0uSEOTGd6xMlYawpDeXmyon2KH1O/NG5VIDQcS5NzHum98VhKj7SJ99861BnHEBQ++TTk50+qXrFsaPJ1tNnzlQLb7qpXhm1es3a6uNPPq0Ya0jz3fc/1HlvfXJbteWJrZ0yOAdbqW2E0774kDS//d3v6pV9sXzGj6t///tq48ZNdbycn9uOO/3WNdoxin3adN26R6uX9+ypBXD8zCo5Vj/Sj6+77vrq05OnuvwsO48ff7+69trrqie2bq0W3Xzz0Pq28mcLR/DEiknKwb9iIcbz/mTfoLv93H5mwAyYATNgBuYPAxbmLMxlJxfTGQSYIOw/cLC6c8mSehLJIzbs8wgQEx7y1mSWSen7Jz6oVj20ul5hwETj/vtXVmfPfjbFrpOnTnfiMaHk8Z1/vfRydf6777viliaiiANMqqIIoslpKkKw2owJK6vPKOuaa66tNmx47L/b8I65pgknj4H9769/3SmP8lnppDxzdaBcHn/jl1vxhg9Z4XLk7Xe66swx4YiAerSMCVvajrJ3/d82dLURqzt4BIqJ9onQHrTdXUuXTlntQ74z2R779h+o25Y2lv+puyafqgfn0l/alqkPRnGMTbDHFpEkihzsp8KJ6hdZ7WW3+lRJAFR6ykt9pmPS8hir7ImCmvKPtpNnzn6VFbdKn2sf6ikb4pa85Ys0nfJL7Yllzsa+7JDP0jIRdFhVRl9iBZpWWqlebYQ5uEdwwzfbtj3V81HKaENpPMSf5MfqrkfWretaNafVcgj99EXi5fzc77jTpq7R9nHbpx0YO0t9jLGTa8XGTZurs599Xvejfvpwm/qKBXjikWaNiW3SOs78ubl3W7utzYAZMANmwAxMFgMW5izMTRFvptuJd7/wYud9N3GSzb4m15rMIibxS+OlEzhNeNJ4HDMJiu/8KU1E2wpzCGI8gpori7A40WqaXGvSKoFME+FcvoiAmmAxAc6JbyXRThO1hQtvqk6fOdsRPZcs+b/qy6++7mpf2ZuzgTDyYMKXnkeci3nNdHsgaKY24JODb75V16epHmJsuhwPMz02aTIPP5GheE5lihXVJa2vwhWfLdxEn8UyYrymffVLiTDRtrhPHrKJL8XSX2PZpX3iET+KWLI71ikKgiqH89G+uN9Up5k+JztindIyeUyUx0XVR6P/0rEuTcvxV19/U91119J6BdaZzJ8WuTQKg4OcbfiTdmLLnwhx1ZxWyzGGKZ6YUL6DjDtt6qr8x3FLnRHmWAmXtgNC3B133ln9fePG+s8icTtIP2yq++dffFm/w7T0501TWp+brBt0t5fbywyYATNgBszA/GHAwpyFuS7hZrqdX4828RgnExXyQzT76ONP6hVnh4+8XYdpMosItPbhhyse02LSg/hz/8qV9STxxAcf1nF5TGvt2ofrFXW7dj1fT86Jy6NclEMe8eXlpYloW2GO1S1MWHlcTJMv6vD2O++2WjFH3KPvHatuu+32rMAWfcyEndUqxJXwxWNKrLqIq2tII6GPlWMxD03UYvzSyjpNFvUIFGXiSybmlEm9ERB4FJdw2pP2QBR7592js9Yef/jDNfVjY7Q9dryxb3/d/kyKOab+YmgSJvuIGxLmEDiiUKI2icJHiWHFJb/IgNiuV7vdsrjas/eVurxYjuIrbk48S+NHu5WebRTOYrj2e51XvowHlPn6G/tqcY+2PHX6TB0mf8Q6q805F/dV7ii2siP1XWrL0zue6epHqleuHRQmUYfxk8dKH35kXWfFXZp/6bjEEm1AOWwZs7RqjjEBcYnVcqxGVjy1h8oZZNyZhL6q+uW2jIuMk/GPFOLRlvfee1/9h45WOqt91Ya5/AYJU/9dvXpN/ZgxHxmhHVn1fO9993U9Lj1I/k4zfyYAbmu3tRkwA2bADJiB8WHAwpyFua4J/nQ757nz56u/3HtvPbFmMlnKT5PZ3ESNSbomjKRnFRgrTaLwpHz12OZjjz/eEWxKE1FNaOJESZNOtuQpYbFptVlMr8mXJtLpNl3N99nnX9SPtfFIK++L0lcV4zuL9BgZE0C9k0phuZUaiJILFizoEidL4p7sjXWg3uTPpJ9HjlmdI/+yZZXaqNpDdqhdIi9NDCnduGzhS8KcOBRzqofaJD2OdVD7KS3nlB/CCft8aICt8lG5MZ+2+9Hutmlkk+zoJx11gDX5grSxzqoTdmk/FYz6KW8YcWVHL2FOdVPbqV7pmBGP5Qe1sY77sZs0OduwI/ZrrZrbsuWJ+h1p/BFAOYqX+nmQcSf2337qMA5xtSIu/aCPVlizWk5/RmGv2neQNmuqr9ojchL3uW6workpD58bn5twt4XbwgyYATNgBsyAGYABC3MW5oZ+Ax+/SMdLsJnIvPrqv7u++qfJbG6ipokHWyDVpDSdGHJOk5+YT2kiqnziRCktS/nFOBosc+cUFidGiG08+sl79rS6iy2r2PSlvhif/VQ80eo4Vu9RvoQ23jOlPAmXoLZ48a0VK1hkKyvNeG9fKuTJ3lz9Sn5LfSQ/zkZ7qD45XnJhij9uW3yoNlYbRP/hezEs/4r/WBel1Tkdqz1JmwpinIMx0ih+yl88Vl6Ui42ci7ZGe0r7OTtKcRVOGfiI1ab4IvUX9qvN436/tqm8YW1lU078imWwYo5HtBHACFdbqN1j3HR/plfMUZ5WzdHeWi1HOL5OGRh03GlT17Tu43DMhx5Y1cyqONot2iT/xD6U2x8WpyqPfsqfVroesPqaD/+wgpyxn2tAtNP7vuk3A2bADJgBM2AGzMD4MmBhzsLcjNy8szKMd80hyulRG74ip1V0mszmJmqaeLBl8JBQkZvY5Ca3TFhyk2TlE4WHtCzlF+NoAMudU1iuHkrHlkdiEckQGxDoWFnBKjDOSZDAPqXR++S0cg+B7oorflN/2EFx2Eqwy00EFRa/Cit7c/Ur+S31kfw4G+2huuZ4yYUp/rht8ZWYzNkdz8f9tB5qP9pE7RDbkrBUmCOPUp6l+CqXvO++e1nXCjadU77irJ8t9igf+SOGcU515bFcfEedFcZ+KZ3yna2t7FD75spVf45CuerSa+wgv5l+x5xs1iPtPLavMPX/2D6Djjtt6qpyx2X77tGj9RdQH37kkc6YHW2Tf3rxH/0X0/e7Txsh8Oby08pi3keYrnzutxzHH98bd7eN28YMmAEzYAbMwNxjwMKchbnOBGymOjj/6POOMN5Tpg8haDKbm6hposMWm/QoK++ZY1VHtDP3KCvvR4qPhip+TshIy9IEOGeXJtJRCFFYLr7KZauyn31uV5f9nGOCpdVBMQ0CHqsfXnjxxQqBLq5iUTzi9JoQxnSyN9ZBeRGWExdSH81me8i2HC8K49FpHqFW3HHc0saREY6jr/FxXC2Wax/qpfaTWJVOznsJbfIN6ShT8dnn8WqOFUfnKItzlK1zvbZKG/PLpVE8xMQcx9ilOkd7Saf2T32QK2cmw2RHbM9YHuMf78akL8cVr6pX5CKmi/vkoa+ypo/Hx3i5/bb9OpeWMPxO20Q/DzrutKlryY7ZDuda8+yzz9XXLb6Em379u5c9at9SX+6VvnS+afzl/YBcKyZhTCzVz+Fzb6LhNnWbmgEzYAbMgBnozYCFOQtzrSfbbToUkxE+5vDmW4fqiTNpmFS+e/S9WngYRJjTxx94RPQf//xnnS95lj7+gJDFRJIX4TOZYoLFhwv4UAThcaKkSSdbbNW73JhEP7NzZ1dZfAyC8Jhek69eE049isaHFPSRB1bR/Pu112qBJifMaVUK749L3yGHrRIESqsj8BHv3ovvqpO9sQ5qV8Jy4kLqo9lsD9mmukY/07asyMR37x071nmkS2nGaYtvo89Tn8pWBCfqIx4Vrq3ar3ReQhdbpUm35CERLsYnz2gjQgz+Jj7bKMzEPEkX24VzMV/FVRvmbKfcmH+sZ9wnrfqK8ovpVNZsbmVH2ndYvcQj6XxMhXGn9A6y1Hcl2xkPWHXMGMRYxPhHHyc+fZLz25/eUX+YIOaBb1PbOI8vsSvXHjG94snPqu8g407busbyR7FPHVeteqi6/PLLq9dee73j535sEbexT/WTvhQ3XqM2b3mi84oIriscw0f6cYpSXg7vfZNsH9lHZsAMmAEzYAbMwGwwYGHOwlxxAj8IgJqMMOFLfwhEfNWOfDW5y03UNBGME0ZeZk36NE+O0xUkmsCmcX912WVThLV+yvqfSy6pP9YQJ1qqb64e0X+ISHxFL7WJSRTv4ZPYENNoAkYaPdIaz2u1IO+uiuFxn/pRht5VJ3tjHRS/nwn8bLYH9pV40Rd0o18jN6rbKLfyebQL4Yo2l9gh+zjOiSg6n8tL59jmBLF4nn3sUPvH+Ph4zdq1dR6yTzazLdlFXPiP52O+lCm7ice51Cbsib5QfJVPfDGgto7n0vxm8zi1S/bF7W2339EZ+2Sb6hjjpftqJ6U5dPhIzU0aLx4rDf6M4ezHcQr/EdbLj4qn9pnOuJPaE4972SEfzMa2TdtEX+ZsUh5qj1ycQcNOnjpd3XrbbVPaF3/yftP4EYpBy3A6T0LMgBkwA2bADJgBMzB7DFiYszA3ZZI8nQ7439VxR+vHLlltwESB7UOrV3e+MEr+mszmJjeaCKYTNSYjvNRaH1BYtOjm6l8vvZx9xIgXyCNmUT6CHitJeFcQYkicKJXKIj0THEQt7N+4cVP9pTvEh5hek69cPVI/soJm/d821Paz+u+eFSvqlV485pYT5kh/+Mjb9Wo5CWsxTwS53HvnYhw92rT8nhUVK/Rkb6yD4hMWxRWFl3w0m+1R4oXwJ7dtq9uItr5x4cLOy/Vl/6i3+C/n19Qu1THXNsTVeepZ4i0VxHJlSHzjXC6+GJEQE8sulSvblCbNlzqV6kX+nFNajmVDHAOIo/LJPydskna2f6o77RJ/vFuTfsdXpnOPQaqOMU26n/MZ6VgNzAdfGJ9IQ1k8sn7g4MFOWfgzzU/+w0elfp36T/HUPtMZd1J74nFs69SG2T5u0zbRlzn7lEeuDXPx+w3jPa5cl3Sd1XWOcb7fvBx/9scN+9w+NwNmwAyYATNgBiIDFuZGMJGLDeB9d8gmBkoffWhK43PjxRQTeEQNTdSjGNFmH1Hv1OkztShFXuTDto3Yl7KAoIUwh5jEOcSQKApL8MqJCbJf59i2sb8UJwobpbywT+XG+NiucNmT1tXH49UP3B5uDzNgBsyAGTADZsAMmAEzkGfAwpyFOf+7PqYMaLVb/HiDB7L8QDbOfhlEQEvrkwpqnC+JWSUhLApwMa1WQinPJqELO3JffU3t7feYMqMdUXSjPqXVVIpXOt+vHY4/ef3LbeY2MwNmwAyYATNgBsyAGZh0BizMjakoM+lg2f7pD4779u/PfvTBvp2+b+1D+9AMmAEzYAbMgBkwA2bADBU2bIYAACAASURBVJgBM2AGxoEBC3MW5rxibgwZ4J1UrJTLffRhHAYO2+ALmBkwA2bADJgBM2AGzIAZMANmwAyYgekzYGFuDEUZgz19sO1D+9AMmAEzYAbMgBkwA2bADJgBM2AGzIAZGHcGLMxZmPOKOTNgBsyAGTADZsAMmAEzYAbMgBkwA2bADJiBETBgYW4ETh93tdb2+R8FM2AGzIAZMANmwAyYATNgBsyAGTADZsAMzDwDFuYszFkRNwNmwAyYATNgBsyAGTADZsAMmAEzYAbMgBkYAQMW5kbgdCvOM68428f2sRkwA2bADJgBM2AGzIAZMANmwAyYATMw7gxYmLMwZ0XcDJgBM2AGzIAZMANmwAyYATNgBsyAGTADZmAEDFiYG4HTx12ttX3+R8EMmAEzYAbMgBkwA2bADJgBM2AGzIAZMAMzz4CFOQtzVsTNgBkwA2bADJgBM2AGzIAZMANmwAyYATNgBkbAgIW5ETjdivPMK872sX1sBsyAGTADZsAMmAEzYAbMgBkwA2bADIw7AxbmLMxZETcDZsAMmAEzYAbMgBkwA2bADJgBM2AGzIAZGAEDFuZG4PRxV2ttn/9RMANmwAyYATNgBsyAGTADZsAMmAEzYAbMwMwzYGHOwpwVcTNgBsyAGTADZsAMmAEzYAbMgBkwA2bADJiBETBgYW4ETrfiPPOKs31sH5sBM2AGzIAZMANmwAyYATNgBsyAGTAD486AhTkLc1bEzYAZMANmwAyYATNgBsyAGTADZsAMmAEzYAZGwICFuRE4fdzVWtvnfxTMgBkwA2bADJgBM2AGzIAZMANmwAyYATMw8wxYmLMwZ0XcDJgBM2AGzIAZMANmwAyYATNgBsyAGTADZmAEDFiYG4HTrTjPvOJsH9vHk8DAhscer+677/7q3PnvxuIC+Nahw9UtixdXX3z51YzZMxtlTELb20aPUWbADJgBM2AGzIAZMANmwAzAgIU5C3MzNgH3IONBxgw0M4BI9YsLLqjYtvEVghnCGWna/kpCG6Lgrud3d5VbEs0ITwVE2d5kB2mwma3KKpXRpv6O08yT/WP/mAEzYAbMgBkwA2bADJiByWPAwpyFua6J+aR3Yib/TUJBPIcwMen1tf2TN+jGNmOlHKJVWxYlzCFuxXxK+yURjHye2bmz7itXXnlV9cGHH9X5pfFVHv1mz95Xsiv70jTpseo4V4U51S8VLmkT+a8kjpbabZDwYZRFG0UeBrHDaSZ7TCq139M7npkizpfiOnxuMuB2dbuaATNgBsyAGZg5BizMWZhrNcGflE5oYW7mBotJYWDc7Ox3hVsUj9mPoo7EF8SvNvVMRbI0jUQlCYNpfMJzglPMJ02THqsMC3Mz93gw7SE2Ii+xndrsW5jz+Jly8t33P1SHDh2urrnm2p5jQZrWx+bJDJgBM2AGzIAZMAPtGLAwZ2Gu1QR/UjuURIHpTFYnte62u90gOEl+kviSindNx/2wn4pqbXyTpkmP1QfnozDXxn/jFMfC3NwbM6bDFzzEsaWXSD+dspzW7JkBM2AGzIAZMAPzmQELcxbmhi7MMTHnZn7f/gPVv156uVq06Ob6+IYbbqz2vvJq9eNP/+mUyb/x27c/XXHuwgsvrONdcuml1aqHVleffHqyE+/4+yeqK674TbXzH//shKnjnv/u++rBv66qliz5v+rLr77uOi9RIBUn9u3fXy1YsKBiq3y0JQ/yIk/yVh5MSt4/8UFtGzZedNEvq9Wr11Rnz342JY+vvv6m2vLE1uqqq66u63T55ZdXT27bln0UUOV6Oz8uRjw2umbt2iksILrBGNsSCxLm6GOlODG8JJLFyXa/+6yikx1t0u54Zmddr7kqzDG25PyA7+PYwT5tE8PS8eT++1d2jSeDjlMqS+20YcNj1XvHjlX3rFhRj1uMX+v/tqH65ttzHY5o11w9tJoycuX9+TFWWZibH+3s/ux2NgNmwAyYATMwegYszFmY60zMhtUhJcxdfPHFUyZ6iG+7X3ixU6YmqbkJ4fXX39AR5xQvJ741iXZKlwpzn3/xZbV48a0d8S3WPZ0MKw+EPImH0V5s+uzzLzp1OvvZ59Udd945pe6keeDBB6cIMrFs749+UJzJNkCU4x1edy9bVp06fabDDGUioiBiwUlJeJPQUjqf2k68lP00jsrGJspvEz/mweQ9rqRJy1T/sTDXLcwxPubGyOjLQcapmF68/M8ll9SCXBy32P/7xo3VDz/+VHNoYW5ujz2xz/a7rz4c2eo3D8c3X2bADJgBM2AGzIAZKDNgYc7CXJc4MIzOwsScSd+yZX+s3nn3aPX9Dz/Wq+QOH3m7fk/NXXctrVhRViqLFXWHDh+pBYwXXvxZxHvp5T21MBZXuRGXlWm8/yausFPemlCkYoPSsQoPYU/xc6vvlAer3p7avr2zKu/rb76tV51Q1717X6nzYJL76Pr1FStSdu16vvr23Pk6nLibtzxRhx95+51OeSrX2/IgNVd8o34hgSqtlzi7++5ldf/JxZPQkgosTccp+7Fc5ac42IhweMst/10FlrMhlz7GS4W5GJ/9XufT+ON+rHbLiRa5cwpD5F/78MPV6TNn6vGRlbr3r1xZ/fZ3v6tOfPBhPUYMMk5FO9S+rO59YuvWzth18tSp+s+DRTff3PWnAu3ojz/M/bGo3z4lZiNb/ebh+ObKDJgBM2AGzIAZMANlBizMWZgbukgkAYJt2vn4sluceHIe4Y64Dz+yrhYE9PgnYgOTSeVx5uxnFRNJPWJKuMIQw7TyQ/HZakIh4SGe00o7hD0mwJxTWHxkVnnkJiWnz5ytFi68qRboyEPHMU+Vyao67I910jlvy4PUXPANggc8wzm/3OOBWk1HXO3n4uEPCS6l8/IZZeXYlz2pCEN8wpQuFfwIV96lfqG02Ki4cUvZOZtinEnaL/mBOuTO5cJU39ff2NfhRGEak+KYorBe41QTJ4zFafvTNmmY7PB2bo9RTe3bxGxTOp+bv8y47d32ZsAMmAEzYAb6Y8DCnIW57OR5Oh2JiblEiDSfg2++1XUOsepPf15eh6UiAMdReMitHmEVHY+DlVahaUKREwK0Og6xDIFP+aer75RHTpg7d/589Zd77+08yidBJVcXhcU6pf7xcX8D2CT4i/4QxQ7EF1akwUq0Hy4iY2IpimHEF4/wlJ6L+eX2lWeuP+TixzCJebKxH4FNY4L6AGlj3pO8r/aQX2JdcudyYUojP8V2nc441STM5US4XJhs83bujU1t27SJ2bZ5ON785cdt77Y3A2bADJgBM9CbAQtzFuaGPkHOTS7VGREleISLx1oJY8UHk3U+9nD8+Pv1o1asoCtNKLVShNUjvLh8+T0r6p8eGVU52mpCURIieCwWexD4SqvvlEdu4o0NCIsrVz5QfyhCwocEiNzWwlzvgUntN1e3JRGul2AlFnNcNYXl2M35lr5b6iu5+KUw+kFOfCzFn+RwtUnOx7lzuTDVvzR2DjpOlcZRysuJcLkw2ebt/B23mpg1F/OXC7e9294MmAEzYAbMwPAYsDBnYW7WhDkeNeVl49ddd3316clTdbkIFOl7jujgpQllXD3y8p7/rpZDVCsNCppQlMQGfYEVge/ZZ5/Lrr5THrmJt4Q4PZ6qR1l5TKxkk8OHN4BNqi/FlETaVKjL1Ut9AgEurqhCTIlspuIaxzqvcptEvF7nlBc2Unav+LnzqneunpMWJp+ycpYVtNF+nYs+y4UpTUmYG3ScEjM5f+dEOMLSVw3INm/n77jVxKy5mL9cuO3d9mbADJgBM2AGhseAhTkLc10TyWF0Lk0u+foqN/TkyZaPIfBRhNWr19SrywhHqCPsjX3760dJeZz0408+rTZseKz+imBuQokQx2SfR1j1GGrJbk0oSsKcHl9l1RxfXUWgS1ffKY+7li6tPzBBGtnJBy6w/+133q3rqY8/8KEI6quPXBAf0e65Xbs6H4oo2ezw4Q1w4+xLiSawHB91zdmsuGl/kDBMnyOdWEVgUT7sR2FI4elWZWBPWk4at9fxfFoxx58FrJilDd87dqzzvkp8pPaI/s+FyZ8aO9WeCu9nnIplqU1z7ZkT5vjYDu3/z2efq9/9qfK9nR9jUqmdm5gtpXH4/GbG7e/2NwNmwAyYATPQHwMW5izMdSbww+o8mlwywUt/vL/txIkPOmUiaCFspfGY5BKem1DqkVPSxBei5+zXhKIkzJFGj8eSX271nfJIbdTxxk2buyaxZz/7vP7ioc6n2yia5Gx2WH+D2KT6K/aTHOe96pUTXcgzFfnaCnPYQD+pRbXFi7tW5fWyJT0/n4Q56q5H8mNfpy00dkSxLBcm/4kJtgrTtu04FcvKMaL8csJcLEN1GYRNleHtZI9lMCIO0q2vY5Pdtu6bbj8zYAbMgBkwA+PFgIU5C3NTJoDT7aSaXK7/24bqziVL6ne4IbLxHrmTp053lcdKkEOHDleLFt1cTwAQ7rY/vaM6eepULRLkJoWk2bR5c3XFFb+pRbUmezUJbhLm6hUvDzxYXH2nPG67/Y5q3bpHK1bDMUnBZoQ83omX2sCqO+px48KFdVxW5OELVhF+/c23U+Kn6X08XgPlMNtDq9xgSHyz5TgnyOTKVh9TeuJIhEknzBzHeLn8NAFX+bJRx7k0TWHzTZhjjHhy27bO2EC/f+/Y8aEKc23HqekIc4yt+/Yf6IzHjHXP7PyHx6t5ep+gcSEV5ThOx5mm8cDn5u71zG3rtjUDZsAMmAEzMBwGLMzN0xvumexAEg0GndT3sg3Rq9dHH3rlEc9rBd6j69dXPIoaz7EvYS5OeNM4Ph7OgDSX/SjxrWlSqzgl1iS+pSKehLTcZJk8S8Kc2E7zox2UZ86WaAdpB/mlK/vmctsPo269xqlhlOE8PI6ZATNgBsyAGTADZsAMmIHZZ8DCnIW5KULUdDviTAtzR95+p36/XO6x00FsJx/eV0e+ufQSL3ICRS6+w2Z/IBtnn8MNwlVJHMvZLlGMdOJOq1dS8U3hOSFc+aTnFB7zz9lBmMTCplWnpbQOH15f6DVO2dfD87V9aV+aATNgBsyAGTADZsAMzCYDFuYszGXFqOlAOJPCnD6u0OujD23tb7P6zsKcB+W2PM1mvByXUXDTKrYo5MXzMbyN3erXXuk2+/2hzTjVpg0dZ/bbzj63z82AGTADZsAMmAEzYAZ6MWBhzsLcRAlzn3x6suI9dL0++tALfJ1vs/ouJ4AovbceZM2AGZhpBtqMUzNtg/M352bADJgBM2AGzIAZMANmYGYYsDBnYW7owpw768x0VvvVfjUDZsAMmAEzYAbMgBkwA2bADJgBMzC3GLAwZ2HOwpwZMANmwAyYATNgBsyAGTADZsAMmAEzYAbMwAgYsDA3Aqdb3Z5b6rbb0+1pBsyAGTADZsAMmAEzYAbMgBkwA2bADAzCgIU5C3NWxM2AGTADZsAMmAEzYAbMgBkwA2bADJgBM2AGRsCAhbkROH0QBdVprLybATNgBsyAGTADZsAMmAEzYAbMgBkwA2ZgbjFgYc7CnBVxM2AGzIAZMANmwAyYATNgBsyAGTADZsAMmIERMGBhbgROt7o9t9Rtt6fb0wyYATNgBsyAGTADZsAMmAEzYAbMgBkYhAELcxbmrIibATNgBsyAGTADZsAMmAEzYAbMgBkwA2bADIyAAQtzI3D6IAqq01h5NwNmwAyYATNgBsyAGTADZsAMmAEzYAbMwNxiwMKchTkr4mbADJgBM2AGzIAZMANmwAyYATNgBsyAGTADI2DAwtwInG51e26p225Pt6cZMANmwAyYATNgBsyAGTADZsAMmAEzMAgDFuYszFkRNwNmwAyYATNgBsyAGTADZsAMmAEzYAbMgBkYAQMW5kbg9EEUVKex8m4GzIAZMANmwAyYATNgBsyAGTADZsAMmIG5xYCFOQtzVsTNgBkwA2bADJgBM2AGzIAZMANmwAyYATNgBkbAgIW5ETjd6vbcUrfdnm5PM2AGzIAZMANmwAyYATNgBsyAGTADZmAQBizMWZizIm4GzMCEMbDhsccrfm0H/V3P7+4rfppvqbwvvvyquu+++yu2aRof+6bEDJgBM2AGzIAZMANmwAyYATPQmwELcxM2ITfUeagRHq688qrqgw8/skBgpseKAdj8xQUXDPzLCXBwDu9vHTpcrCti2S2LF9fl5vLoZyxpEubWrF1blyFbiNumvorfjx2Omx//7Bf7xQyYATNgBsyAGTADZsAMTC4DFuYsYhQn9pPUsacrzE0nfVshArGCciSqsNLo3Pnv5oT/J4mVcbJV4lkbkaoXZ7BFPhLFEOVyK9mIpzhxS3jJNyVhTvEpty3P/dRZ+Y/zlj5M3aMv2b/qqqur5fesqF5/442e/fzbc+fruKRL/Vhqr7Q8jmknfNUrDaLu4SNvd4TbXF4xTH965PKN9ur8FVf8pjr+/oksT/jjwgsvrP0VuY/sxrLjfow/zkzMJdvOf/d99dprr1dLl95dXXLppXW7seV49wsvVl9/823dzurXkYfUD/AplnROzMR2Jv8//ulP1aHDR6off/pPF0cqJ8Zn/9prr6u2PLG1+urrb7riU06ujJg+2hTzX3jTTdXpM2ey+SlNr7xjOeqfqnuvLfFj+qZ97MjZEttD52erf37y6cnqodWrq8svv7xTD9rp4UfW1deq73/4sXM/1FQ3nUuvafv276/HEsaT0tigcYU4xM/5/L1jxyt8Qjn4SHEiC7KBfBYvvrXavfuFnuO68mELxydOfNDlDzhfvvye6sDBN6dwHq8r2IaNMT/2VbdS3WN83XeWGFR50ccKU921vXHhwmrbU9u7+lrOV8SnvR/866pOe0eb0v1hXgdLtqsObGPfSG1Jj2P7cW0nPSwsWnRztWnz5grWNVblxrmYn9otsqawaN9FF/2yuu32O6p/v/ZaRV+JeZTqh22PrFtXnT5ztis+aXNlxPLYF0sx/zb8ldo/zZ9jjZ2xPk37GrdyeaVh+D5Xz8i1zg9rTMjZEOsD19uf3lHRbxSXMZH7wxf/9VJ9DZ2O/7jXyo1f0YaY/6Pr11c//PjTFD64lv95+fLaxtg3Iguyn21uHIhlen8wcdDCnIW5KZ1zEjsTA3e/g32s53TS93vzrBukOPBFW7w/2GA2iX7TxVI3Q73qoJuOGA92+RFGPvEGJMbTPnEje7roKg/Fi1vK5RfD2pQV42u/3zor3bhu5b94w5Lu33LL4urDjz7u8l+sj26suKnmBiuKWrRLml/pWG3UKw1j5UwJc9zsLliwoJ4cpJOJOPGiDpF79kv1UniMH/3n/ZkZMxGl7lq6tLFdNJaoX+s41ybwmV6nm1iFped37+5MeMlT5YiJdHvHnXdWZz/7vKuvNZVB+miT8r/hhhvrvrj1yW1d5WMD+SlNr7yjfeqfOd/kwogf0zftY0fOltgenJ+t/vnynr0dIbdkN/1Z90OlODE8XtuYWDLBZIJ78cUX1/u5yabGFeIw6ZSQLH8rH5WDj3ROLOhcul258oGKMU3xS1vGwU2bt3T+kEjz4fivq1Z15aXrynXXXV/99ne/q1avXlMhkscyVLc246L8XGJQ5UUfKyxnL2Gxr/XyFfH/9Ofl1Weff9FVh1ifYV4He9mOPbFvRDvSffyO+EbfKflC4wFpc+NczFPtFllTWCn/jZs2d4lzvep3zTXX1kJwrtxSGYSLJeXflr827a9yo6+ifaX93LimvNItvs/5MnKt8zMxJmBP7GMff/Jpxf1famc8Jv50/LfzH/+sx0CJfbkxSflzb8Z4khP69UcHtsW+IRaizXE/jgOlNnR4+3s0C3MW5ooXyUnqSAzc/Q72sX7TTR/z0gAYB7Z43vvtB6i54ivdFMeLWa/9HM/cUMRw8uWi//ob++p+zPl4A5LzH6xHNnXR3fHMzjq8rV1tysqVr/5B+tz5SQuT/1K/f/PtuerNtw5Vy5b9sb4pu/76G+p/1XP1e3rHMxU30nv2vlKLAdxo5eIRViovxteNbL8+Jj7tT/qYX7rPjWRaX+JoHN2y5YnszR83ftzor1v3aF1OtK9t2aktPp6Z8TT+e46gcez4+52JIULDqdNnqud27arbEibVr+PYkrYN3MTxS8zAXGThu+9/qFfpEZfVSZ9/8WWHx1w5rFRBRFy95r+P1af89tMflD+iz983bqxy/VacM/6mdWzTP9M0bY9lW5OPyWvU/fPM2c+qRTffXPtu/4GDFe2JXbTTl199Xbc1QhR/DuTq3qa9WBG0cOFNFYIF4wnlUW6an8YVBFYmpKzYjXEQg67+/e+rjRs3TRn7cv6mDvzJonF9795XuvKLeWuflaWIOvC895VXOwIcfjn45lv1qij6AOKdxEVxRFtzbWZ13dvvvNtVluoW+47KTLe6B4GN9BzHKi+O67mwtK89sXVrnV/JV7Q3K77Ilzoi9BOWs2GY18Gc7bkye4VR32d27qxt/8MfrqleffXfnfYTzwcOHqweePDBzp9vuXEulqN2i+NULoxxljbnHi8dN0v1w7ebtzxR8/bY4493/amQKyPaFfeV/3T466e8WHavfdkWWc2lKY3TsmtYY0KubMIk+rPy8ekdO7q4pw6soMUGVnrn8pCdkZM0HveZCN6sSn1q+/Ypf+wqvvon8bies6oy/nGqP035A4CxNF5jcv4ujQMqz9vB78sszFmYyw4I0+lUpcFQA0OuwxP2/okPqlUPra5vQBjIGCDOJjdaDAbvHj1aX9y50SHePStWVKtWPTTlwsWNyN3LlnU9RsGy83+99HLXP49cRLlhSH/xBobHYxg8tYSdfyae3LYt+yhDrp7Rnzof81fY+r9tqLiRvXPJkvrCys0Y/9Qx+DKIyz/UnRuc3CqcfmyNdnl/8IG0l+8koKUTObU7F+CYRyk+ceCGPqa08aJNPm1uVnJ9MOYTbVGZkVfC0rJ0E5H2Ix2rjrJbx2lZk3acu2mJdeDmB6GNPpt7hIAb6SVL/q/u2+zzeMNddy3tekwo5terPOLSlvi9Xx+rDZtYIH9YyHFGOiYQTCbSmz/d+DGO7tr1/BT72pYdfeH9mRuzXnp5T91GPIoIc718rX4dx5Y0DdykE8wSq1zruR6m8ZvKOfHBh7X4ko5VpTJS+zhW/uTBOEz5CHQSTIgjztPxnHNt+meu3DZhsq3Jx+Qz6v4pv/3jn+U/GJrq26a94JMVL++8e7R+RJXxNSeSaVzhcVEmo3HVnCbOTFb37T9Q807Zsq3J36w4+d9f/7r2teLnthrfcyuYFJ8Vnqw6IQ6PRBIujmhrwu64486uyTJxVDe2yqu0VZukfUPxVV4c13Nhii9hVCw2+Yo05PW3DRtqH+f+eJKfuMcdxnWwyXbVoc0W39MurKD96ONPevqZPPFxOm7FstRukbVcmNI8+9yuKdfLpvqxKjEVV8irqQyVpa3ynw5//ZSncttsZVtkNZeuNE7LrmGPCakNspM5am4VWxo/PZadkZM0zpG336nHQcY+rTiVWB7jqn/CJn9OpKvm9KdpLQQvXtw11qgeOX+n40As0/uD3Z9ZmLMw1+pC008HKw2GGhh0ISdPdXiW13JjpUm8tkxY49J3BlLEKp2P2/RCqEEtxtF+fDyFgUrhcasbGN00xXPa518y6hD9k6tn7rzy55zSKN90yz/DOf+k/z72a2u0y/uDDaJt/MZNMf96phM5tTusxnzS+E0sixUumqy4yl08Y970z1wfbLr4w2rklfywKZaVHqvMtI7pseJN6lZjWPRFWhetPqIfcyMTz+vGSqseaQcmnITHeNpvUx55wEXKlfIobcVZEwukhYVcfUmncTi9+dONHxOdnH1tyy7Z7vDhjV+s5GGCnD5W3eRj9es4tqTx4UZ86FyOBc7x+BiCSdpnmspRX2LljfJnWyojxtG+8sdWxEHuFVI/RM6VTts2/VNx+93KtiYfk+eo+ycCBqvQ/nLvvfWfiv3Ws1d7iQ1WivCnJSsqWVkJL5yL5WlcYYuYFlfNabUc3CgeZSt9k7/FWm4SrPRsEQ4Zz/lDAp7iubgvIfyFF1+s44gjtTXXdu6TGUeVTjazVVhpO2xhToIV4wTjRZOvZBOrWnlvo9pN4Wzlz2FdB+W/3HUqlttrH8GDa2lOTCylzY1zMa7aLbKWCyMNzMAOInB8/LCpfmob3uUY/1AolRFt077ynw5//ZSncttsZVuvti2N07KL7TDHhNR2xiIed+eax4rz9HyvY9kZOYlpxIaukfIL82bE7RhX/RM2dT+qVXPxT1PGUvyqdicP5Zvzt1jTOBDL9P5g92QW5izMdXXeYXSk0mCogSHX4VmBxjJcDSYMHPxbzgVR/4Lq8QgGOSZ9WoZLmsf/vnHKDX+uLuTLYHTbbbd3yiJeyWb9o4oYyCoP/etBPiwXJ5wbilhWrp658wyQClcaVgByo0edGHS5aPBvHX7gn15WyBHOzej9K1d2/jEmn0FsVfneDjaAtvWbboppx7a/dAIby0qFO53ThbxUBudhPXeecF2Aiac82cJq5JUw4sQLdXqs9GJbeabHijepW/ks+iJXF8QCrfDQefoyj5vEx7B0o1OayLUpr9TGavcSW7QRcUgvG3NbWMjVl3TKO978sc+4rzrJPjFBGSpbNua2MX7OLocNZxzj+sM1MjeBLvlY/Tpe39O4cCM+dC7HAtdZVltxPUxXmebKoR8xJjIhSUU0ylEZOaYIizYpf4139EceZ9UkRvnFNKoL2zb9M8bvZ1+2NfmY/EbdP7k34xFTfMu9HV/ufnnPnnrVP/7pVWe1V6m/63oqsYT2Z2yJK85UhsYVttilVXMwzkpIiXmKR9lKm/M3eRx971jdP5r+QFEeCG34gUdWFZbbpqs9xZHaGnv5Izau+JPNbHN5xjD5TFzHc+yrvDiu58LwNe/NWrHiL3W9EBRJn/NVWgb3qIhFvM7gDY/DmwAAIABJREFU05OnOjbPxHVQtpf6POHybWpnPIaRVBSL53P7uXEuxlO7RdZyYQiePPqce3eY6hfbCz8ifiIG8Ud+FHEpX2U0+UQsKX/5aBD+VF6sZ/TDoPuyLdY9lxfl5sZp2cV20DGhyYexj2kxCdcyrqeMWaxKw5+0V85uhcnOkv/0h0S8RmolcWleKtviH6eMTXzIgWtdrh/n/F0aB2S7t4Pfi1mYszDXODAM0rlKg2FTh9fgH8vTElkEOgYB/kljMNSNQIxbKpPVdgyEPNLKP3UMjuSR3hiU0ssGTShjmVounv5jmqtnTKfzGiA5lwsjXDcyPNqafm2OwZS6MHgTdxBbo13eH3wg7eW7kpDWb7jKKaWDhXizAtdp30rDdNElnH14jnlQJqxGXglLy9JNROmGRZyKdR2rTpO6lf9Sn6X1wb+xv3JefzbEGyutBoliXcyrTXkqq9QWuZtVylAbkj6Wme7DQq6+pIt56+aPd87pxo+8ZF9kQGWXbE59l9rk4+GNX+qj6djR5OM2aeAm8hFZyLU7QkT6IQeVk4vP9Z33eaUTHvGWS0NYtEn5a7wjL94xxZ9wTKhkc0wT/dKmf8b4/ezLtl7tMg79k3GM14bw+pDU7wiovJIkbSf5Qu0VxwedY8s9XSrAasWVxDrF17iivLRChjGJL4ZqAqt4lK208ndqv47TF/IrXdz2qovipsKZOIptzXjKqjlWz5FONqtuyiu3TfNP46i8OK4rTPVNt/HjF/JVtDctg+PcGDAT18FetlOXXraW7M3VK4bl6hjPq90iawpLfcwxfwzQfjGPpvohyvG+QkSnmKapDJUrlpR/9FG//Km8WM9oz6D7si2ymsuLcnPjtOxSXYc5JuBHXTuwiTHuvWPH6lcuaf4pX7N6l687p6t8VRfZWfIfwmu6ilZ/7MZ7SvJT/5Rt+uP0wQf/Wr8+RXNcxYvtLn/L7nQbxwHZ7u3g92MW5izMdQ3cw+hMpcGwqcPHQUA2nDt/vn4UQudK+RI/PcdgiIDX9rHXNL1s0M1MOhDFYw10SpOrp86x1fmYLhemNMTLXYA0aOviMoitKsPbwQfRNr6jbXKPsrYN73VhhEcYhoXICmHqP7IzDVPehBNHx5FP9uMx8dKy0mOVJ7bFaXqseJO6lb+i33N1YcVc+s87fzZwEy3fKB2rhHP/eHO+TXm0JUyk+Sr/0pb4YqkUh/DSmES58UZYN3/kqRs/0ufsa1t2k10+N5xxjH/zZ3vFHIzE37pH12cnLBo/Ylz2f/Pb39YrmXIM5HjLxSNM+cfxjj/heMeXvoyZch7zatM/Y/x+9mVbOqaneYxb/8QnfCzktdderx5+5JH6vox7s9L41NRePC3AypPUB/xxybs5eUennmzALxpXVJZWyMCMVsvFeJQtf8rfkTUm1wjGvAu4JCwqPdthrZgjL7GlV5ikdYvlpvu6P4xcxzjKO17HFBbrz3WJx4bTdzXLV2m7xDL0R7MevdO5mbgOyvZYH5XXz3a2V8xFX7PPCsn0T3nsV/3S+Ag1fGwjx6Z4iYyXfKH8Y3sqrC1//ZRXsiMXLjt6tW1pnJZdbMl/kDEh+iVnYy6Mcljlxkdvtm59sn5vIe0XP/oS08nOXHupL6UfR9JrKNI/dtU/Y/9HaKU/x5XGihfrJ39H1krjQLTf+4Pdj1mYszDXuQkZVicqDYZNHT4OArJDN2Co8fyjUMqX+Ok5/QPHJBGBjn/dyS8XtxRGuG5m4oCU7seBjjS5ehKun87HdLkwxSde7gKkQVsXl0FsVRne/tw+M+GLNm2TchUFjtQm8ssJffSD2JfSY/JJw3TRJVzlkD+rTOGSMBiMvBIGd5HL9Fh5iW1xmh4r3qRu5b/oi7QueodHvFnSyri03eNx7r0dbcqjLclHPk/tKR0Tn3SRhVzc0phEupRbbv7iajnyy9nXtuycPQ4b7vilm/t0VVKTn3W95r1i/KmWxmWiyOr33Gr1yCp9hWs+wg0v5E8nmBo/4jinx4V4vYOu87H8HG/xfNxX/ul4Rx48ushK9RznyqNN/1TcfreyLdY9l8e4989Dhw7Xvkx9rLo0tZdWxsVxMu6nrwvQuBLHQr0iRCsgKVfxKFt2tPW34ue2w3rHnPKGP+qInbI51k3x0q2eqNATKOl5/REePzzUD8ttfKX78iieztR1sB/bU1/E40HeMcefcKyG4vHkmJf29bSLXtNDuNpS/CHisCITAYTX6KTjYK5+fCAOkYUPifBIq8rTNi1D4bmt8k/Hmn7466e8nA2lMNnWdM9FWnyZ3o8QLrvYqozZHBNUJn2Gp6FK9ZCdYkLp2GplXBz70v3Il/pnHHP1x2l857rixXZv6+9on/cHvyezMBcEE4M0OEjRd/xDmN4ccb6pw8dBQHlJzNCjolpFEgdTxU0HYKXla0aKo20al3DCchdS3cykL5NWXrltrp4xns7HATIXpjSlm2wN2vLHILaqDG+Hw37Jj7qwpRdY2i53Uc4Jb2KEPHSeR1p4fw/5UzasRK6Im/atNKxkW6xLmi/nUtvTY6WX3eI0PVa8Sd3Kf7l2pE7cUHNjzQ12XDXW5sYq/pMp//Qqj3i0MTdp8rnS9toSn3Skb4pbGpNIl7sRTvPK2de27DQvH8/M2MUfWrDQ9jGVXmKeVp3FiT9tl2NBHzFCnEN0i22s8SOOa/Sx53fvrvtYzt5cGTHPuK/84zjKeb1jCVHh6R07ipy36Z+xvH72ZVusey79uPdP3aukPlZdSu1FOzOGphPQ9DiOsxpXeo2FikfZsqOtvxU/t4UbHt1lLEc4ycUR73G8F0dpWyNksXKTP3leePFfrcd5rSiMfw5FW3TPHP8Mkg2la1tM38tX2M3qM9oqvo5mpq6D/dge65Huy76m9kvTNIl5rHTCD+kcKcef/qTg3oHxLYpzpfrpTwrEufQ1ALkyUtt1rPynw18/5ancNlvZ1otL+nLufkR2sW0qT/GGPSaoTK16K9UjV77S6vqcjn3xOK4IVv8sjbnKV/Fiu7f1t/Lwdnr3ZBbmLMw1DkyDdDCW6XIh4SW7XFi4mPDRAr5gSniuw7M0mgsgcfnxctlly/7Y9V4XfQqaR2z0EQTyf/XVf1d/+MM1XQOwvgrGP+jcGFEP4rLEm0EwHaz1uME/n32u670MDJw8q8/LV5lca0k5NnJz+dyuXZ2PU8hXuYFN59jqfBwgc2FKU7rJ1qCti8sgtqoMb6c3kLbxn9pY/OtiFy/6TflEDiTMsSWcn/IXD+RF3ipPeadhbexQGcqDLeXEGwrxGG8M4r7sytkZ8520ffkv+oI6sHKH1R08ioIf0htl2iG9OY91x1+Ml3ESw/lSeTEteVOmfB7PNe2rDUnfFC+yGOORLh1b43nt5+xrW7by8HZmxywJUXAEw3xVjlUc+J0tjyYyWYQFmCRckwWECMYmXc/1QnLyiqIJaXIsEB7FiihoaPxIxzXKkjiXvvurVAblpD/lT73Sc3rH0q233VbkvE3/TPNteyzb0rqn6UfdP7kHXPnAg9WBgwfr6xJtg41ww70Z4g8spGOb6lFqL73sPIpHSsNWvoc/3fdpXOk1FioeZSvPtv5W/NKW9x4yljM28jJ/7kWJi5jNCqTbbr+j9kd8pE11ybU1q3tYzcq9cNtxnjaQqIl4TZ9U/6Sv4rO0TWRDem3L1TPnK/KnHXgXluqYCuf4eyaug/3YnquPwqgDK4rwDfMM5htqP9UPzteufbiel5BOYh7zBtqbdiacdPqoTWSUczn+lAafpX9SNNVP4lzq61IZlJP+lP90+OunvLT8pmPZ1otL2Mrdj8gutk3lKN6gYwJ9gnkv1yWul+IAbjgHC7RrFNCiPbnyOa/6p39yKS3581GxKPSrf+aua0rHVvFiu6u8Xv6O+Xh/ap9q6xMLc5kBqa3zHC8PXryh52Km3/9cckn98YVch1ecdBtvsLW0O43DDc+vLrusawDWv4q5uLzwNx2sJfrF+BrANEGI5+J+HLRhIjewRVZ0XvnHNDFMaQjLDYgatOPFpV9bVYa3eZZnwi/wIn5y7ZorMwpxnI/H8MRjpzue2TmFE8qK/Y20sXzZwTblONoBgymbcBftT49j+rgv/iO38fyk7eumJfoy3WdSwp8Jqhs36Ky8afrqpSah8bEf0qu86Hvlq22pjWVXOv4pHW3SxEIu38gX50t5qwy2yicyoLJlY24b48f8vD8z4xfM8sh8ri0UFtsfrpkM6ly6TcXpEgtqz9yjWRo/YrmKr3sE7gni41/iLbVHx5FZ5Z+Od5ShR39IF9OofLZt+meM38++bMvVnXxy9YxxZ6t/tunLf121qiNwpD5QPdL+jsBD2/JOsjSNjklLHH2RUrakeSm+topHeoX18rfi9drCJaIbdom5dJv6QxzF9lM55Mcf38qjV92Urtf9YSrkyIama43ylq9kU27Ll1xZOas0M3kdlO05OxSW861si1vsjP5W+riN4wHCiP4kiHG0n4pslJXjTzao3RBajh9/v/af6pdrm1g+q/OYD8UyZEduK5aUf85HbflrqpPqNshWtuXqXqpnjCu7VNeSDYqXGxNyvlOYrh1t+kTuwx6yJ1c+5zRfbXqSi7SMN/oYjmyRbSoj3SpebPde/k7z8PH07scszFmY61wkh9mZTp46XX+FhoGBf402btxUL+NncMx1eCau69Y9WsdlcONLXvybygUg2sUA8eS2bXU88ub5fF7Cy8q1eGEkDStWeJ8GF0Fe2HvPihX113G4YU/jciHjfTb6ghg2P7PzH52yuTBvf3pH/a4k7FPZ/BPKzXq0MTew5c7HAVJpYpjSEBYvKgrXoM1WYWz7sTWm8/70BtM2/tOEQxdwbVMee+UVhTniip94A0E4x7G/5cJ00U3TygadT9mEuxyXSlfaytaU21L8cQ+Xf9SW2l511dW1+MYkUjfGqgsrHvgQhG6aFB63jEmscEjf86Xymnxf4ky2lXjTmFJiIZdv5Ivzpbxj3ZRPZEBly8bcNsaP+Xl/5sYuridc51jVrq/KcX1EMI6rR9QGsM6L4XkpNddJ2pF3DHL9JC/F0zbHgs6x1eoPiXoaPyJ3MT5lIDBQNpNj+pHKyDFFWGRW+afjncrQO5ZiGp1j26Z/xvj97Mu2Ut1z9YxxOV+yO9qhfGJ/66d/ct/G+9v4gMcNN9zY4YB7seXL76nblHaJZcb9XPl67Kv0KKbSa7WSvkoou2NdFDduFY+yFd7L34rXZkt9+Tojq2PoP3DX5A9xFNsvlsM9AG1JPr3qFtPl7g9zH3MgjWxoutYob/kq7WP8EU6dDx0+UvdFxWc7k9dB2Z7aE49Lvo02ap/2ow6x/RgPmbswtqXvdFN7r/jLX+p2plza/aHVq+sVdcpX2xx/OsdWf1LokVrVr9Q29EEWNlCuFjiojOiDdF8sKf+Sj9rwp/Jin4p1GnRftpXqrnJj3WJcnVddS3YoXrS/xHksS9cOGGAuDB98PIj+TjyuTfQ57v9y10TZkyufcwhy6X2h0mjLAhlWZeqPXdkt2xQv3SpebPde/k7z8PH07scszFmY69yEjKIzqcPHQWAUdrjM6Q0k9l/Zf9wQ6KIdL/DRZ7oYKl7cxokUF1WdixdY8s31oVJ4LDu3H8uhvHhTo/jcNOTCdb60VV173RSV0ju8zJp9Y9+YATNgBsyAGTADZsAMmIHJY8DCnIU5C3NmYKQM+MIxeRcO2qytMCfxXYIi2ygquv0ns/3dbm43M2AGzIAZMANmwAyYATMwHAYszFmUGakoo0l7brWPO/lwOrn9aD+aATNgBsyAGRgtA/Hxr/hHRWnfq4pH217uL/a/GRg+A3pqojTupeGlJ03cNsNvG/t09D61MGdhzsKcGRgpA74QjP5C4DZwG5gBM2AGzIAZMANmwAyYATNgBkbDgIU5izIWZcyAGTADZsAMmAEzYAbMgBkwA2bADJgBM2AGRsCAhbkRON0q9GhUaPvdfjcDZsAMmAEzYAbMgBkwA2bADJgBM2AGxokBC3MW5qyImwEzYAbMgBkwA2bADJgBM2AGzIAZMANmwAyMgAELcyNw+jgps7bF/xSYATNgBsyAGTADZsAMmAEzYAbMgBkwA2ZgNAxYmLMwZ0XcDJgBM2AGzIAZMANmwAyYATNgBsyAGTADZmAEDFiYG4HTrUKPRoW23+13M2AGzIAZMANmwAyYATNgBsyAGTADZmCcGLAwZ2HOirgZMANmwAyYATNgBsyAGTADZsAMmAEzYAbMwAgYsDA3AqePkzJrW/xPgRkwA2bADJgBM2AGzIAZMANmwAyYATNgBkbDgIU5C3NWxM2AGTADZsAMmAEzYAbMgBkwA2bADJgBM2AGRsCAhbkRON0q9GhUaPvdfjcDZsAMmAEzYAbMgBkwA2bADJgBM2AGxokBC3MW5qyImwEzYAbMgBkwA2bADJgBM2AGzIAZMANmwAyMgAELcyNw+jgps7bF/xSYATNgBsyAGTADZsAMmAEzYAbMgBkwA2ZgNAxYmLMwZ0XcDJgBM2AGzIAZMANmwAyYATNgBsyAGTADZmAEDFiYG4HTrUKPRoW23+13M2AGzIAZMANmwAyYATNgBsyAGTADZmCcGLAwZ2HOirgZMANmwAyYATNgBsyAGTADZsAMmAEzYAbMwAgYsDA3AqePkzJrW/xPgRkwA2bADJgBM2AGzIAZMANmwAyYATNgBkbDgIU5C3NWxM2AGZhFBt46dLj6xQUXVLue393od+Ldsnhx9cWXXzXGixfPDz78qLrllsUV2xg+3f0Njz1e8Uvzwbb77ru/LxvTPHw8mou//W6/mwEzYAbMgBkwA2bADJiB8WDAwtwsTsgN/XhA73ZwO4yKAYQsxDaEOX45sUu2TYowt2bt2rou2Ivt1En1a9oqvurrrfulGTADZsAMmAEzYAbMgBkwA/ORAQtzFuamrIKZqx3h3Pnv6tU9rPBhv996thUcECNYDcWqpSuvvKouc5Dy+rXP8cf7IpbyJz4kzkm0k2AVhTmdS4Wu19/YV/OVhqfHyhNGYDM9z3HTCj5slJ05zsi/bb9SXaJNuTwnJUztmvr0qquurpbfs6J6/Y03eo433547X8clj9SPpfZKy+NYbdQrDePS4SNvd4nEufwURnx4zeUb7dX5K674TXX8/RPZMRZ/XHjhhV1iLm0NDyqvtJ0rzEwK29h5/rvvq9dee71auvTu6pJLL63biC3Hu194sfr6m2/rdla/jjyk9YRPsaRzYia2Ofn/8U9/qg4dPlL9+NN/ujhSOTE++9dee1215Ymt1Vdff9MVn3JyZcT00aaY/8KbbqpOnzmTzU9peuUdy1H/VN17bYkf0zftY0fOltgeOj9b/fOTT09WD61eXV1++eWdetBODz+yru7v3//wY+c+qaluOpeuIN+3f389ljCelMYGjSvEIX7O5+8dO17hE8rBR4oTWZAN5LN48a3V7t0v9BzXlY+3431v5vZx+5gBMzAuDFiYszDXuQkZFyhnyg5NoOONaj9l9XuTLOFl0PL6sc1xx/+ikpuU6sYfRk6dPlMLJZpgsE0nIrRzE8cwFx9lVf7Kk/RMPCKTyi9OSFKesJ1fDC/ZF+Pk9nM25eJNSpj8p4lbbkubfPjRx13+i/VDxGJiiJiXTpo1mc7lm4apjXqlQVSYKWGOieuCBQuqR9atq5h4x3pGARLbI5fsp/VJj2P8mK/3Z2b8Q5S6a+nSxnbRWKJ+reNcm+TGwCZWYen53bu7xDmVk7Kh4zvuvLM6+9nnXdw1lUE6iWzYrPxvuOHGui9ufXJbV/nEIT+l6ZW37GKr/pnzTS6M+DF90z525GyJ7cH52eqfL+/Z2xFyS3bTn3WfVIoTw+P18Icff6oeXb++Fv0uvvjiep+w1I8aV4jz5+XLO0Ky4ikflYOPdE4s6Fy6XbnygYoxTfG9nZlxyH61X82AGZgvDFiYszA3b24qNIGON6rT6ei6aRtWftOxxWnH+6KVm5CqzcTlE1u3thLmyEsTlH4mbnEiGZlV+Tue2dlq9Z3yYcIjO1SXNtv/b+9Mm+Qozi18f+b1R0fgUDiMI66xwUCwCi0IkMGyLQRGCFkgBAYhxKIwQiCNZJvNZsfsEohNu0a7AN+6cdL3NO/kZFVXj3qmunueDx1ZnZXrm09mZZ7KqnK/mRSRxfbLbXH23PnqvX+9X61Z87u0uL7xxpsq7SAp2ei5nc9X1113ffXKq68lMWDXCy8WwyluXX4xXS/QB7WxF7FxcRrT9XFk0H5yFU98PPXU09WVV11VaSdKPK8dKzfccGO1ZcsjySaxfG3zjulxPH/jnnbCSciQGCH3wGef94RWCa66kbBnaiq1pZh0v45jS94+pXGwxOrFb79Lu/TEknYnnZw+1eOolI921UlE3PTgfx6rz/kt5ZGXzf+dvkSfJ7Ztq0r91pxLVHI8u236p8MO6rpsTTZWml33z2PHT1TLli9Ptnv7nXcrtafKpXY6dfpMEuQf2Lgx3Rwo2aBNex09drxauvSWatuT2xODyk/55ul5XJHAqjFJO3ZjGN0Uuebaa6tt255MrEd2SvZWHXSTxeP6q6++NiO9mDbH8zc+YVtsCwMwMIkMIMwhzM3LpEJ3Ef/y3M7q5qVL02RHjzLokYavvzmUJmeevGqCeejwkWrrE9vS3VXdzdVODnU2hdm9e08vDT3eogWdJkuxM2py/Ns1a2Y8LrFs2fLq7y+9nB7DUVhPsPI7nvofF4d6DEaPw2jnis6p3M/u2JHKEvOMadZNkp2nJsmOa79H//xYpQnrHatXpzvYqtuT27dXWswfPPhFtfFPm3r20I6F0m6bQcrq/HEX/kImPixmNdnfbJhHubnY07QgVNpd7pjzAqjUx2I/y+vZZJNxOOexLG8rl10ihoQ2jW1a7Oe7OrRQXb36N6nP61iPv955513FR/KUZr/8FKbNwtbli67bMC5O43kf91v4f/TxJ0nMibvmvFtO4+vU1N40vpp1pds2b5cBd37HspdefiW1ka7bYq6fvd2v666Hit9WmFNYCSC6TuZjZ1M+B7/4Mokv8ZqrtAbpD05faXg3lwS62G+bxuE2/bOfLevOu2xNNlbcrvun7fbCi/U3GOrqKP827SU+tQvu408+TY+oanwtiWQeV9559720izfumvNuuQ0PbKzeevudxHsc+5rsrZsO//OLXwy8C7Kp3pyb3zEN+2JfGICBUWcAYQ5hru+Ee1CItQDTFv/SAt0TSk9eNen+1ZVXzgiriVRTGlrEnjg53Su3J16l/PwYiidYpTCKrzrq8Rc9BlMKc/+GDbMWJ07Tdcrt5PNxkWC/Uh7y0x1gTTDz8xLntGh3HoOW1fFwF/6iJD7EQN6m/u+Fp9kwj3Kj2GPOfV5t6X7ktOrcGEcLj8is04gLkpwTlT9yrPOl8sXyOo28Xvl/hxtX1/Yr1d118u4j9W/t9LC/3A8/+jgtMPW+QP1XO2jBKf8Yzsdt8lMaYiG2u+M3uQqveE0sKL5YKNVX8cyzdqbEXXPeLaddg6Xytc27qfycG874ph1OujmUP1bdZF/36zi25OHFjfnwuRILOqd320kwyftMUz7uS9qB6vTl1uURw/jY6ausEgc1h8jtEDl3PLtt+qfDDuq6bE02Vppd98+vvv4m7UK75957083GQevZr73Mxu//sDalrx2V2lkpXnQu5udxRa7EtLhrzrvlxI3DKW/Hb7K3WdNOd4fHHc74gx2xIwzAwGJlAGEOYW7okwrtDtHiTo+V+NECTfTffe9faWecJq6evEqEemjz5vQYiibB7ojeYbL9qad7gpTiaKeFdpfpbqnDllwthLVbY9Wq22bE14S2NKn1nVOlrTwkDCpdpaMyyD9fKDdN2hTX5zVJdhntd9llP6k0oZPYpnprwqhH2WQ33dHVDjn5awfdfevX9+4MK525lNX543ZzsdOkvyRkRH+zIT+1Uzyn/+JIfMSfw7pd2+6Yi2n4WAsS98s8XeUdOS6VLy+vy5TXK//vcOPq2mal9o11kljgHR72Vx9/fOvW9NiXx0oJVxoLtLMsjomO0yY/L2zdtrmbiyNOW22osHFx6nPRFQul+iqe07YYqXFYxxp3XSeXL3LmvPOyxv8xfCwPx8Md13Rd0rXTwkcb+7pfl66vji9uzIf9Sizo+qvdVrpO5rtMS/mon2js0027XERTPs4jshSPY5mcvsc79Uc9zhp3f0bOXQ+7bfqnww7qumxNNlaaXfdP7RLWI6aysZ460Je7X37llfQ0gOzTr95ur7r+7h15fuRf7a+xReNm/roAjytyVS61o+ZYYlw7IS3mOZzydvlK9lYan+4/kPpH0w0Up4E73LEJe2JPGICBSWYAYQ5hrjcJGQboEpI0mdcEOe7wytP25FV3VM9fmPnyXKfhCVOMq7CKo7v5fm+JzmsHnSZpeqRVX1LThF6TQr3PSI/KKozzLE1q/b4SLxxjnkpb7y/J74yWJm0xns97gq9zJT/5S2zTl8r0aGv+VTkJmqqLJ6lzKWssF8cLf1FT25WEjOhvNtzO8VzeZrkA5/N1/j4vVwuP2AfcL+SvY7/rTuVxPDEcOZZ/Xj79j4vd/Nj1yuvpPMbVtf1K7RvrVFps+l1MUXzwbpC6dya1yc955W3g/1GIiGV0Gyp+9M+P2yz8Fce75vTOOb3WwItml89MKKzzdhlLbgyfl4n/wxvX3EfjONHPvm3iiJucPbNQam/tFM8/5OB8SuF13deXYnNBuykPpRPL5PQ93imt53ftSjfn9Ii27KD0Ypxomzb9M4Yf5Nhl69cuo9A/NY7pdSJ6rUjeVpoffvLpp7PaybZwe9X1d831cgHWO9gs1jktjytOy7vmNCbpC7G+4epwyttxbe+8/P4v8VFCncPjDm8MwpbYEgZgYDEygDCHMDfUSYUnMno3TD45jh3Mk9c+KQr9AAAgAElEQVTSBNNpePJTch1PeWj3nHa0lcLFyXNTnr4DW0rDfp6oux4up8tif7s+H+OV/By+bjLtCaMnlnMpq/PA7eZCp7YrCTfR32y4nducS0LcypVF9s2t3MigFh6RWfcLL0j8P8bRcfwvjmL5Sv/NWl6v/L/Djatre5XaN9ZJO+b0TiItDO2vx1e1a9htbn+9K0n+evzTfnbb5NdvYeu0clflEC9mIT/v/2KhVF/Fi2Oud80pzXjTo1S+tnm7DLjzN5Z1sWMujlc63vLIo7MeS1Sbe/zIw+uVGNrJVOKixFspXEw/jne6OXf77XdUmzY9mMqUcx7TatM/Y/hBjl33OH6X4o9a/5RN9LGQ119/o9r88MNpvqY5Wz7uuS5N7eUbt7kNdENT7+bUOzr9xIPS87jivLxrTvzEm78Op7xdDts7sibxV4Kx3hHcNMd1GrjzN05hW2wLAzAwaQwgzCHM9SYhw4DbE5mFEua840SLQQl0uruuiZvqkk+ePWHOJ3QKOxexy3Utpac0fT5O8Et+tnvdZNoTRk8s51JW54HbzUVMbVcSMtTm5sdsuJ3zOOLZLOnY8WKbJqFuxcrEc/SPx3lc9wv5O5zS0e5TlUl+ytd5O0xevvy/w+X1yv873Li6tl+pfV0nLRS1YIy74LwzLi768uN8Z7DSa5Of2lJpmSWXo5+r8IoXWSjFEQul+ipeFOYUV7vm4m45+ZXK1zbvUnnwG+64Npd3zFkwKe2CV/tIxNC8IO5iL7GgvqJ31Eq40Qv5c/HD40cc//Rif4XXax98/Y9MlHiL5+Ox08/HO6WhRxe1g73EudNo0z8ddlDXZYt1L6Ux6v3z/fc/SLbMbey6NLWXd8blY6X/568L8LgSx0K/OsQ7IJWvwylvl6OtvR0ed7jjEPbEnjAAA4uNAYQ5hLneJGQY8PuuZdtHWUsTTE/w9WinHvFsKpdFqt17pmaFyyfPnjCXFg5+PDR/aXRT3v0mbT4fJ58lP+dRN5n2hNETy7mU1XngdnORU9tJyNCuATHvRUQUMcyG29lx5K92s+imXSFKQ3yLGafVz/WCQ27sd+4XPl9iRPlEjhUmL1/+3+nk9cr/O9y4urZfSahSnSQs6L2V2gEXd435XXJN7VZ6Z1K//JSn2lLpmqW2tlV4xWtiQWnVjVWKF5muy7dUvrZ516WJ/3DHNt3oEgsSyeIOpDo79xPzvOss/+JwiQV/3Ehim0S3mKfHjziGqY/t3bcv9bFSeUt5xDTjsdPPxzvtItROKQnsz+3cWct5m/4Z8xvk2GWLdS/FH/X+6TlMbmPXpa691M4aQ5vGTJ2L46zHlX5jocMpb5ejrb0dHne4YxD2xJ4wAAOLjQGEOYS53iRkGPBr4qSvmGly1ObjD3UTTL0nRI8M6H1XmhwpXf10rMe89M4Xlddf/9Kdcr/TTouIf77+ehJC4iJRO1Q0aZff/gMHZtyJ9wcV9KJiLaL9njflqUnknqmplG+0Ub9Jm8/HyWfJz2nWTaY9YfTEci5ldR643Vzk1HZ1wo3bxGy4nUtxxIj6Vl1aFu/kOt3c1cIj9jsvJOOCJI+jfCPHOp+XT/+bFkyuV17PPK9x+2/75W2iGwza3aEXjcsu+uJzfF+W7J3v7oh1l70k5uUfuqnLL8ZV2srTNo/nmo7dhk0sKH7dWKV4ccyty6tUvrZ516WJ/3DHNgtR4kgMH/js8977tPQ4oG4ySAwTC2JS9reYpxtzGoN83T567FjvS+1RNFGcEgvytzgncfrgwS9645nHjziGKbzysjiXv/urLg/Fy39OPx/vFE67P5csWVLdumpVLedt+meeZ9v/Llte9zx+1/3zgw8/qtbfv6F65913e/M3lVHcaM6mncDiKh/bXI+69vLXV0s7iRXXto83hj2u9BsLHU55uxxt7e3wuLP7EzbBJjAAAzDQngGEucLEDIDaA1SylSfUmnjlP08oPYHy/zwdP86Sx/d/T5oltum9L/a3qwWtXuybLxIl+DmMXU/YmsqtsHHCpvL2m7T5vMsa40Q/171uMu0Jo8up8IOW1XngXhrbc7Wf2i4XbpxWnZhWimOm6vpNXVrOS64XPebfbs53jCM2c2bz8uX/Y/x47DoofPQf12OPZbZjyV112+3pS8uuo8Y37bxp+uqlF6H5O5OcXx1PyqOujV22fFx0udQmClPHQindyKLO16XtPGL5IgPO22UsuTF8TI/j+RnX9HXwFSua32EZ27/fdTsXp+tYcHtKkJMwp3gS9+Tv8SPm6/ASfiTK6fqvG2wS62IeJabkF5l1+vl4p3TiOxNjHOcvt03/jOEHOXbZSnVXOqPSP9v05Qc2bqzdiel65P1d79xU2+rdnHV2U1yF8fs5XZY8rTy+wym+z/Wzt8Phzs/4g12xKwzAwGJjAGEOYa43CRkm/Jqg/+W5nWlSrYmvdqI9vnVrdfhI/y+kuhz+qtfKlbemiZbS0Re+dj6/q9JjMQ6nnSl6d40ee9Euu7vXrUs74jQxzyfPmjQ/u2NHKo/S07uP4svYXW7567wmePpSqr70pkm585Tbb9Lm83GCX/JzmgpXWmx7wphPLAcpq/PA7eYip7Yrta3ao+5cyV+M6N1v+onPujSb2lkLj7iw80IyLkhifJ+PHDeVO8YtHbsP5DyXwo6Dn+2j9oi/q6++JolvWkRqLIt10ZijD0HkXxCMYSQqaHdR/vVB59fU9mrLWJb8OB8Xna/aRGHrWCilG1nS+bq0nYdcpxMZcN55WeP/GD6mx/H8jWu6zuj6p8c4dX1Ve+h6LsH4H//45yxxpXTd1vVU8wGllbdViYUYxu+Ps6jn8SNyF8MrD+2M17VbO+jUj5xHZCkeR2adfj7eOQ+9Y047XWMcn5Pbpn/G8IMcu2x1dS/VM4bV+bpyx3I4ndjfBumfEkj1/jZ9wOOmm27uzd80R1u79u70eLJF05ivj0v5+8v18T2dDh9dvyLAX7p2uWNdYngfO5zytl8/ezsc7vyNP9gW28IADCwmBhDmEOZ6k5DFBD51ZaBfSAaadrJpARgXTy6XFgpRfMkXVV4AxgVm03GbBZnzVpliWrEcDpOXz/79XC92+i2U+qXDefowDMAADMAADMAADMAADMDAJDCAMIcwhzAHAzCwAAzkYpeFLwtmJaHNd+8lZmmXnAS+UbnwtBXmSvWq240yKnWjHEzwYAAGYAAGYAAGYAAGYAAGFooBhLkFWJAvVGOSDwMHDMAADMAADMAADIweA7qxohsxvinTz2VX8ei1If2KNoEBGIABGJgvBhDmEOZGZgfOfEFOugygMAADMAADMAADMAADMAADMAADMAADo8gAwhzCHMIcDMAADMAADMAADMAADMAADMAADMAADMBABwwgzHVg9FFUaCkTdw5gAAZgAAZgAAZgAAZgAAZgAAZgAAZgYGEZQJhDmEMRhwEYgAEYgAEYgAEYgAEYgAEYgAEYgAEY6IABhLkOjI76vLDqM/bG3jAAAzAAAzAAAzAAAzAAAzAAAzAAA6PIAMIcwhyKOAzAAAzAAAzAAAzAAAzAAAzAAAzAAAzAQAcMIMx1YPRRVGgpE3cOYAAGYAAGYAAGYAAGYAAGYAAGYAAGYGBhGUCYQ5hDEYcBGIABGIABGIABGIABGIABGIABGIABGOiAAYS5DoyO+ryw6jP2xt4wAAMwAAMwAAMwAAMwAAMwAAMwAAOjyADCHMIcijgMwAAMwAAMwAAMwAAMwAAMwAAMwAAMwEAHDCDMdWD0UVRoKRN3DmAABmAABmAABmAABmAABmAABmAABmBgYRlAmEOYQxGHARiAARiAARiAARiAARiAARiAARiAARjogAGEuQ6Mjvq8sOoz9sbeMAADMAADMAADMAADMAADMAADMAADo8gAwhzCHIo4DMAADMAADMAADMAADMAADMAADMAADMBABwwgzHVg9FFUaCkTdw5gAAZgAAZgAAZgAAZgAAZgAAZgAAZgYGEZQJhDmEMRhwEYgAEYgAEYgAEYgAEYgAEYgAEYgAEY6IABhLkOjI76vLDqM/bG3uPIwPSp09WKlSurf73/wUAXx8ce35riKX5Tvaf27qv++Mf7qvMXLjaGq0tD6St+v3zq4uNPv4QBGIABGIABGIABGIABGICBqkKYQ5ib06J8Lp3HQoOEg7nEl0Dx3z/60cBCxVzyGkYcCR+//vXV1RdffjWn+g6jDKTR/YVOwpcELLGrn5kwz/bP+4X7i4W5PLzi5XFiGPHX1P65MOf8XJ461+U5cvRY9ds1a2aIgEqzLl70l+CIoNc9m018cI72gQEYgAEYgAEYgAEYgIGFYQBhDmGucfE+zI7ohX8uJrTNw6KDhYG28RTO4sil7BCK6USRIT92/RDmFmYQG4SDLsKaPXGrPiAxS2Kt/ptHsWJu5Orn/mLe5VrQcpqK5zo5vPwU1gKgz+euwjn//Fzb/85zkHRiPdrmM8rh3BYlG9g+brf5rMcw8hIT/biZzzqMatpHjx2vli69ZWxuCg3Ljhcuflv9/aWXq2XLlifB/fKf/7za+KdN1eEjR3vjzrDyIh2ulzAAAzAAAzAAA4uZAYQ5hLkFm2B74WgBYtCOpwW9RDC5g8ZtWjwPkpbTycW4+N/1Y5HLxUVsmRlxqz4wDGFOwt6KFSt7uzHdt8ScedZxLggpnoSXyKuP59KvlFdeFudf5yqfvFx1YcfB3+2LMDd5/f37f/9v6rOP/vmxOV97xoHhUhm/+/7f1ZPbnyqOFRIpDx0+0htrSvHxm7z+QJvSpjAAAzAAAzAwfwwgzCHMLdjk2uKBhatBO7YW9BIR5iIgNC2eBymH02kjLCDMzd/ANUibdR3WzIjbYQlzYsv9KKaf11Vh6ljVuZKYlKcx7P+LSZgbtu3mOz3GrB/GLF+vLFzP9doz3202X+l/9vnB6pe//FW1atVt1ZdffV1JpNRY88yzO6of//jH1VNPP5P85it/0v2BRWyBLWAABmAABmBg8hlAmEOYmxdh7tz5C2kCf8UVVyQx7brrrq8ee+zxKrnZO+Y04X//gw+rNWt+V1122U/SpP/Ou+6qPt1/YEbZ6oQ5LRZ2795T3bx0acpLj9ts2fJIEkE0iJUWWF5sRZHv9JmzabFx9dXXpHRU9md37EiLEQ+GFkHqxA6Hk1ta5Gp3kXZM2S4qhx4T0uNCemwoxpdd9h84UN29bl2yi2xz771/rDY//DCPm41RvzUzwxLm9G43CWoxPe2eM9MlN3880X0CYe7SL/IaC0o2V/u47aOdo9/nB79IjwZqzFL/vu++9dXx4yd648Bbb79dLVmypJIbxwYdnzp9plq9+jfVhgc2prEjpqtjhXE7a+yNY4ny0y6ws+fO99KVUFuqhwXgPP9J/2/bRZvE68Wk11/XLwlwOXvm7s4776p0zZx0O1C/Sx8jsSE2hAEYgAEYgIH+DCDMjdECf1yAlii3fv39xUWeFjlxoSfxae++/ywA4gJIx1o8xoWQjuUf/Zry0qL1xMnp3uI0Tz+mdfzEyer2O+4olvn+DRt64pwXv3MV5lyHUlm0E0H2cDu/8+57yQalsLnQ4ji4/Qe9hbaRmVHba7F/qY+yKh2lEQW6WCedz/n0I6w6p7ByxZUFI5exxFruJ/am9u6d0VecbixH3XGpfHVhx8F/rsLcT3/600q/3L5uE9X95PSpauXKW3viW7RHLtq5DWN8i0s/u/zyJPzleT2xbVulRxaVLsJc/djh/jII57GtxvFYPFxz7bXVV19/07smuR5N5xwGt54nbINtYAAGYAAGYAAGcgYQ5hDmZk26c0gG/b/rhRfTYnPTgw9Vx/5/98e3331fffTxJ7N2zPlxGe2W8+MyEqcUVruAvBtEZSgtjpSX7upvf+rptINE4bRAnZram0Stl15+JdWvtGh1vbQwfeTRR1N4xZPYp3Nnzp5L6Uog/PCjj2ekky9w/T+KjqUdc84zusrn4S1b0iND2o2gc7LbsuXL0864N958s5L9ZBcttLc+sY0dc2PUb82e+B2GMPfKq6+l/lUnEsg/F+Yibzq2CKM+Ft9VF8NZ1KnLR2FLYcS9+0Od2698sRyjfuz2jYKYy1w6Zz+NWw9t3lwdPXYs9W31/fvWr6+uvOqq6uAXX6ZxQH1ejwzqkUKNlU5Xu2s1Nurmg8cMpxvL4fbRbrynn3mmF/bwkSPpRoTGGN28cLptxyyHXyyu+oBYbuoLk2QLs1TXT8USN4dYUEwS89QFnmEABmAABrpmAGFujBb4XcPSJn89GvX7P6ydsWB0PC8So3j13M7nk1j3zaHDvcWhw+/eM1XdcMONvZdM54sj5xXFO8c9f+FCdc+996bHxC5++13xkTKH9Rf3Su/M0aJVi1ctRBTeC5Y6wSHWrW6RqzQlKGrX09JbbuntZIl1fePNt9JC0MKiyyq3Lt0YhuPRubjUsVLy10JYwoo4cn+xGCDXC2WdjwJMbO8YLvr7WOmKvQcfeiilJ7adrsPIzfOP53xcCiM+68qmeP3K57THxfWYUKpz6VzJz3V1v3eby983L+L4ZD+NI45bStftE8clh9fYm4srjC3lcUPtgTD3g23g5AdbuD/hYhMYgAEYgAEYgIFLYQBhDmGut7C7FJAct2khWDqnBWNJoLBfXDjmiyOn57Al14vl0qLVZfZjfqX49vPC1umUhAynZzdfvGj3i4Q27cBzutGNdc3jOk25TediOI5H4+JgZsSvmL3UR1mVhpnV7jmxGDmqOxY35kc867/6h9KTq/LJz2y7f8lfP/tHrmIY+ztd1dt+k+y6fT3WxLqWzpX8HEd2VvvJtZ93x+kGgXbSehed3tcZb2iU0nX7ePxymnLVTnHMqfOLcRbrcaldJtkWZqnU51VvdsyNxrVlkhmkbjAGAzAAAzCw2BhAmEOY6y0AhwF/00KwdG4xCXPx8VQJdHqvnXb9ye75Ijn/H9um6VwMx/FoXNC8yNXiXn1gGMKc0xQLeTsrn7oFdcxfcaOY5DQt4ri/utxKM88vhnE58nTtP6mu7RZt6bqWzpX8HL5OANL75PToq8YNjyN6/N7vh1P8UrpuH7ep85GrdkKYazdG1LVLtOekHYuZuIvb9ZMwrA+H1L1/zuFw27GFnbATDMAADMAADMCAGECYQ5ibtbC/lMFBX2nT19pKi9TSIlGPUy1dekulx0n75Zsvjvwo6+aHt8xYoJbS8aJVj7fqMdcYxo+yqizRv3TsdOqEjxgnX/h6l5Me0Y3hdJyH/evf/pYW4qpzv7D5ef6P1uAuZvTYqNpffSAKcxZM1P4+lquf+4sZkGvuzKHimR8fx3Dyc3yFUxn8WLbOxX6qcFGoyfNXeOdvxvIwLktM12En1XVblMYWn4v2KPnZNmqDfMeczvlLmGvvXpe+QK2PRvi9l45bStftY7YcVq7aM7a3/eI77mL4xXxc1y6TbBPxwVdZR+taMsm8UTdYgwEYgAEYWOwMIMwhzM0Sfi6lU/hDCprQP79rV9rFoTvsX39zqNLHIOQfF4l+V9If1q5NooE+cqD8tcjUwlNfDfTLzUuLI71jyS821yJUeemn41dffS2VQenpcTB9KVYL0f0HDqQwrqfLfMUVV6SPRkhc1DmlI9Fuz9RUSsvl0iI7FyicVnTzha++bqddBnrBu+ukD0388/XXU3pxkWy7SMTRi9pVFtnkzbfenhU25snx6F3UxKLFuHgsPtwX4rH89FNYcSbu1a5yzV08F9PMw+UMRj50zoKR03N5FM5+zt//Fc/p2M9h5B/TdbjcVfjIe35+nP43jS0lsazk5/rKLiVhTv1f75jT+LlkyZJKAp0/UuO4pXTdPrFdHb7Ehm4IKP8Xd+9JH5xx2MXu1rXLJNvF16BVq27rfZhJzOnr4eIwvvNwku1A3Ubvmkqb0CYwAAMwAAOTyADCHMJcb5E9LMAPHvwifdBBC7z4+9nllycRLS4SteDcu+8/d+ZjWB9biFDZSosjLRQkuDl87sa8JOLl55Wm0tZjpbffcces8w5vMcKL31iuOrvlC18t4DdtenBWHlrkXH/9DTOECgmU257cPiusyqPdMpMiatTZbpL8tUtNwpxEEv0s0olNcyU3sqr6W1Qxo+bfTFpUU7wYV+Ein0o7/rdt5e80dJwzleeveHlaMYyOJcbHdJ1X7qqMeX55mHH6Xze2eLywnVWnkp/r6jaWaz+7FkrU/qWPwpTSdftEPpxeqc1jHuasFNdpTLJr29kO0S31p0mzhW5YPbn9qeI16MYbb5rxfsNJqzv1YcEHAzAAAzAAAzCw0AwgzCHMzVoADgPCT/cfqO686650Z1070bZte7KSYKcFTb7QkzinXWzr7rmn92EExdnyyKPVZ5993tvdVrdoleD195derlauvDXlpwXUsmXLq53P76r0BVTXRwvXZ3fsqJS2wty8dGm1/8BnvfMS+f7y3M7kr/MSzO5Yvbra99e/VWfOnkvhvPhtszArLXz1+K3ez6MPQGin393r1qW6T03tnSVU5OVVnbQg3717z6ywriPu6F1EolClxb6EOfUPiTUWYBQm7xcWBhxGbs6d4uV+eTgzm6fvcikflUX/Iz95/jrnx7FdJodRX1uxYmU673SVb0wvHrcJE8OP+nHeVz222PbDEObSzrz7N6SvROs9c7lNSnm5ffK2V1y1QS6Oaix+6+130vipMVBj5fO7XpiVV573JP637WSH/Jf3uUmsv+ok5vbt+2vvmqjr1sY/baoOHzm6KJmY1HamXqM3b6BNaBMYgAEYWHwMIMwhzDHBHiMGtHCWsLdYFoaTcFGy6CVxRAt8/X/jzbdmtKFEklw8sTBgEawkuPndddFOSivnQ2kpX7kO208ckwhnsc1xctdljPmV8o/xHCevbwzD8ezJSN1HH7DVbFthE2wCAzAAAzAAAzAAAzAwTgwgzI2RKDNOYFHW4Q+EF7/9Lr3rzrsW9B87D9/Ow7apH2ON6UqUkoAlsc27cXTsXU/2i4JXLszF9Cx2OZ7SjudLxyVhzjvinE4/8UxlirvBlE9eB6cV3TxOqXz4zWRbu2VLH33ATjPthD2wBwzAAAzAAAzAAAzAwLgxgDCHMNd3AT9uUE9KeSWcRDHDx9ddd316LHhS6kk9uHDCQDMDesxeH3woffQB2zXbDvtgHxiAARiAARiAARiAgVFnAGEOYQ5hbkQZ0LuetGNK76KTKOedct8cOkybjWibjfqAT/nGc1KiL1Rrt1zpow+06Xi2Ke1Gu8EADMAADMAADMAADJgBhDkW+Ig8MAADMAADMAADMAADMAADMAADMAADMAADHTCAMNeB0a2K4qKQwwAMwAAMwAAMwAAMwAAMwAAMwAAMwMDiZQBhDmEORRwGYAAGYAAGYAAGYAAGYAAGYAAGYAAGYKADBhDmOjA6SvjiVcJpe9oeBmAABmAABmAABmAABmAABmAABmDADCDMIcyhiMMADMAADMAADMAADMAADMAADMAADMAADHTAAMJcB0a3KoqLQg4DMAADMAADMAADMAADMAADMAADMAADi5eBRSHMfXnoBKovAiQMwAAMwAAMwAAMwAAMwAAMwAAMwAAMwMDIMPD9v6vq+PSZ6tTZc2Px+6+5FvTQ0ZPVhW+/HxnDo4QvXiWctqftYQAGYAAGYAAGYAAGYAAGYAAGYAAGxMD5i99V02fOjoUoJ01uzsLc8enT1cnT5xDmUMVhAAZgAAZgAAZgAAZgAAZgAAZgAAZgAAZGgoFTZy+MjSh3ScKcIh86enokjI4qjioOAzAAAzAAAzAAAzAAAzAAAzAAAzAAAzBw4tR4PMLqJ1jnvGNOCRybPludOHUecQ5VHAZgAAZgAAZgAAZgAAZgAAZgAAZgAAZgoFMGTp45X02fWUTCnCp79OSZavo04hyqPKo8DMAADMAADMAADMAADMAADMAADMAADHTDwOlzF5Mot+iEOVVYO+eOnzzLxyBQxjtVxhn8uhn8sDt2hwEYgAEYgAEYgAEYgAEYgAEY6IoBfZhUT3NKn/LPj4mOg3tJj7JOnz1Xxd+x6dPV8elz1YlTZ6uTZ87xwwYwAAMwAAMwAAMwAAMwAAMwAAMwAAMwAANDZuB8enrzxGmJcWdnaFPSqcZBkHMZL0mYcyK449XotBftBQMwAAMwAAMwAAMwAAMwAAMwAAMwAAPdM4AwN2ZKKp2m+05DG9AGMAADMAADMAADMAADMAADMAADMAADw2AAYQ5hbqy2eA4DetJg8IQBGIABGIABGIABGIABGIABGIABGBgFBhDmEOYQ5mAABmAABmAABmAABmAABmAABmAABmAABjpgAGGuA6OPgiJLGbgzAAMwAAMwAAMwAAMwAAMwAAMwAAMwAAPdMoAwhzCHIg4DMAADMAADMAADMAADMAADMAADMAADMNABAwhzHRgdNbpbNRr7Y38YgAEYgAEYgAEYgAEYgAEYgAEYgIFRYABhDmEORRwGYAAGYAAGYAAGYAAGYAAGYAAGYAAGYKADBhDmOjD6KCiylIE7AzAAAzAAAzAAAzAAAzAAAzAAAzAAAzDQLQMIcwhzKOIwAAMwAAMwAAMwAAMwAAMwAAMwAAMwAAMdMIAw14HRUaO7VaOxP/aHARiAARiAARiAARiAARiAARiAARgYBQYQ5hDmUMRhAAZgAAZgAAZgAAZgAAZgAAZgAAZgAAY6YABhrgOjj4IiSxm4MwADMAADMAADMAADMAADMAADMAADMAAD3TKAMIcwhyIOAzAAAzAAAzAAAzAAAzAAAzAAAzAAAzDQAQMIcx0YHTW6WzUa+2N/GIABGIABGIABGIABGIABGIABGICBUWAAYQ5hDkUcBmAABmAABmAABmAABmAABmAABmAABmCgAwYQ5jow+igospSBOwMwAAMwAAMwAAMwAAMwAAMwAAMwAAMw0C0DCHMIcyjiMAADMAADMAADMAWLoxUAAAChSURBVAADMAADMAADMAADMAADHTCAMNeB0VGju1WjsT/2hwEYgAEYgAEYgAEYgAEYgAEYgAEYGAUGEOYQ5lDEYQAGYAAGYAAGYAAGYAAGYAAGYAAGYAAGOmAAYa4Do4+CIksZuDMAAzAAAzAAAzAAAzAAAzAAAzAAAzAAA90ygDCHMIciDgMwAAMwAAMwAAMwAAMwAAMwAAMwAAMw0AED/wfbpzwdYZLHBgAAAABJRU5ErkJggg==;" vertex="1" parent="1">
          <mxGeometry x="-110" y="-10" width="598.82" height="510" as="geometry" />
        </mxCell>
      </root>
    </mxGraphModel>
  </diagram>
</mxfile>
